<?xml version="1.0" encoding="iso-8859-1"?>
<!-- Uploaded to: SVG Repo, www.svgrepo.com, Generator: SVG Repo Mixer Tools -->
<svg height="800px" width="800px" version="1.1" id="Layer_1" xmlns="http://www.w3.org/2000/svg" xmlns:xlink="http://www.w3.org/1999/xlink" 
	 viewBox="0 0 496.2 496.2" xml:space="preserve">
<path style="fill:#32BEA6;" d="M496.2,248.1C496.2,111.1,385.1,0,248.1,0S0,111.1,0,248.1s111.1,248.1,248.1,248.1
	S496.2,385.1,496.2,248.1z"/>
<path style="fill:#334D5C;" d="M292.2,332.7c0,0-24.6-7.9-40.1-7.9s-40.1,7.9-40.1,7.9l-73.3-178.5c0,0,40.6-24.2,113.2-24.2
	s113.8,24.2,113.8,24.2L292.2,332.7z"/>
<g>
	<path style="fill:#35708E;" d="M251.8,125.1c-0.2,0-0.4,0-0.6,0v5v194.7c0.3,0,0.6,0,0.9,0s0.6,0,0.9,0V130.1v-5
		C252.6,125.1,252.2,125.1,251.8,125.1z"/>
	<path style="fill:#35708E;" d="M259.1,125.2l-0.1,5l-5.2,194.7c0.6,0,1.1,0,1.7,0.1l5.2-194.7l0.1-5
		C260.2,125.2,259.7,125.2,259.1,125.2z"/>
	<path style="fill:#35708E;" d="M266.9,125.5l-0.3,5L256.1,325c0.6,0,1.1,0.1,1.7,0.1l10.6-194.6l0.3-5
		C268.1,125.5,267.5,125.5,266.9,125.5z"/>
	<path style="fill:#35708E;" d="M274.3,125.9l-0.4,5l-15.4,194.3c0.6,0.1,1.1,0.1,1.7,0.2L275.6,131l0.4-5
		C275.4,126,274.9,125.9,274.3,125.9z"/>
	<path style="fill:#35708E;" d="M281.8,126.5l-0.5,4.9l-20.1,194c0.6,0.1,1.1,0.2,1.7,0.2l20.2-194.1l0.5-4.9
		C282.9,126.6,282.3,126.6,281.8,126.5z"/>
	<path style="fill:#35708E;" d="M289.4,127.3l-0.6,4.9l-24.9,193.6c0.6,0.1,1.1,0.2,1.7,0.3l24.9-193.7l0.6-4.9
		C290.6,127.5,290,127.4,289.4,127.3z"/>
	<path style="fill:#35708E;" d="M297.3,128.4l-0.8,4.9l-30,193c0.6,0.1,1.1,0.2,1.7,0.3l30-193.1l0.8-4.9
		C298.4,128.6,297.8,128.5,297.3,128.4z"/>
	<path style="fill:#35708E;" d="M304.9,129.7l-0.9,4.8l-35.1,192.3c0.6,0.1,1.1,0.2,1.7,0.3l35.1-192.3l0.9-4.8
		C306.1,129.9,305.5,129.8,304.9,129.7z"/>
	<path style="fill:#35708E;" d="M312.6,131.1l-1,4.8l-39.8,191.4c0.6,0.1,1.1,0.2,1.7,0.4l39.8-191.4l1-4.8
		C313.7,131.4,313.2,131.3,312.6,131.1z"/>
	<path style="fill:#35708E;" d="M320.7,133l-1.1,4.7l-45.1,190.2c0.6,0.1,1.1,0.3,1.7,0.4l45-190.2l1.1-4.7
		C321.8,133.2,321.2,133.1,320.7,133z"/>
	<path style="fill:#35708E;" d="M328.4,134.9l-1.2,4.7l-50.1,188.9c0.6,0.1,1.1,0.3,1.7,0.4l50-188.8l1.2-4.7
		C329.5,135.3,328.9,135.1,328.4,134.9z"/>
	<path style="fill:#35708E;" d="M336.3,137.3l-1.4,4.6l-55.2,187.3c0.6,0.1,1.1,0.3,1.7,0.4l55.2-187.3l1.3-4.6
		C337.4,137.6,336.9,137.5,336.3,137.3z"/>
	<path style="fill:#35708E;" d="M343.4,139.7l-1.5,4.5l-59.8,185.6c0.6,0.2,1.2,0.3,1.7,0.5l59.9-185.5l1.4-4.5
		C344.5,140,344,139.8,343.4,139.7z"/>
	<path style="fill:#35708E;" d="M350.2,142.2l-1.5,4.4l-64,183.9c0.6,0.2,1.2,0.3,1.7,0.5l64-183.8l1.5-4.4
		C351.3,142.6,350.7,142.4,350.2,142.2z"/>
	<path style="fill:#35708E;" d="M357.2,145.1l-1.6,4.3l-68.5,181.8c0.6,0.2,1.2,0.3,1.7,0.5l68.4-181.6l1.6-4.3
		C358.3,145.6,357.8,145.4,357.2,145.1z"/>
	<path style="fill:#35708E;" d="M364,148.4l-1.7,4.1l-72.7,179.4c0.7,0.2,1.3,0.4,1.7,0.5l72.6-179.1l1.7-4.1
		C365.4,149.1,364.9,148.8,364,148.4z"/>
	<path style="fill:#35708E;" d="M245.3,130.2l-0.1-5c-0.6,0-1.2,0-1.7,0l0.1,5l5.2,194.7c0.6,0,1.2-0.1,1.7-0.1L245.3,130.2z"/>
	<path style="fill:#35708E;" d="M237.6,130.4l-0.3-5c-0.6,0-1.2,0.1-1.7,0.1l0.3,5l10.5,194.6c0.6-0.1,1.2-0.1,1.7-0.1L237.6,130.4z
		"/>
	<path style="fill:#35708E;" d="M230.3,130.8l-0.4-5c-0.6,0-1.2,0.1-1.7,0.1l0.4,5L244,325.3c0.6-0.1,1.2-0.1,1.7-0.2L230.3,130.8z"
		/>
	<path style="fill:#35708E;" d="M223,131.4l-0.5-4.9c-0.6,0.1-1.2,0.1-1.7,0.2l0.5,4.9l20.2,194.1c0.6-0.1,1.1-0.2,1.7-0.2
		L223,131.4z"/>
	<path style="fill:#35708E;" d="M215.5,132.2l-0.6-4.9c-0.6,0.1-1.1,0.1-1.7,0.2l0.6,4.9l24.9,193.7c0.6-0.1,1.1-0.2,1.7-0.3
		L215.5,132.2z"/>
	<path style="fill:#35708E;" d="M207.7,133.2l-0.8-4.9c-0.6,0.1-1.1,0.2-1.7,0.3l0.8,4.9l30,193.1c0.6-0.1,1.1-0.2,1.7-0.3
		L207.7,133.2z"/>
	<path style="fill:#35708E;" d="M200.2,134.4l-0.9-4.8c-0.6,0.1-1.1,0.2-1.7,0.3l0.9,4.8l35.1,192.4c0.6-0.1,1.1-0.2,1.7-0.3
		L200.2,134.4z"/>
	<path style="fill:#35708E;" d="M192.6,135.8l-1-4.8c-0.6,0.1-1.1,0.2-1.7,0.4l1,4.8l39.8,191.5c0.6-0.1,1.1-0.2,1.7-0.4
		L192.6,135.8z"/>
	<path style="fill:#35708E;" d="M184.7,137.6l-1.1-4.7c-0.6,0.1-1.1,0.3-1.7,0.4l1.1,4.7l45.1,190.3c0.6-0.1,1.1-0.3,1.7-0.4
		L184.7,137.6z"/>
	<path style="fill:#35708E;" d="M177.1,139.5l-1.2-4.7c-0.6,0.2-1.1,0.3-1.7,0.5l1.2,4.7l50.1,189c0.6-0.1,1.1-0.3,1.7-0.4
		L177.1,139.5z"/>
	<path style="fill:#35708E;" d="M169.3,141.8l-1.4-4.6c-0.6,0.2-1.1,0.4-1.7,0.5l1.3,4.6l55.2,187.3c0.6-0.1,1.1-0.3,1.7-0.4
		L169.3,141.8z"/>
	<path style="fill:#35708E;" d="M162.2,144.1l-1.5-4.5c-0.6,0.2-1.1,0.4-1.7,0.6l1.4,4.5l59.9,185.6c0.5-0.1,1.1-0.3,1.7-0.5
		L162.2,144.1z"/>
	<path style="fill:#35708E;" d="M155.6,146.5l-1.5-4.4c-0.6,0.2-1.1,0.4-1.6,0.7l1.5,4.4L218,331c0.5-0.2,1.1-0.3,1.7-0.5
		L155.6,146.5z"/>
	<path style="fill:#35708E;" d="M148.6,149.3L147,145c-0.6,0.3-1.1,0.5-1.6,0.7l1.6,4.3l68.4,181.6c0.5-0.2,1.1-0.3,1.7-0.5
		L148.6,149.3z"/>
	<path style="fill:#35708E;" d="M141.9,152.5l-1.7-4.1c-0.9,0.5-1.4,0.8-1.6,0.9l1.7,4.1l4.9,12.2l67.7,167c0.4-0.1,1-0.3,1.7-0.5
		L141.9,152.5z"/>
</g>
<path style="fill:#334D5C;" d="M401.1,168.9l-35.5-14.7l-73.4,178.5l35.5,14.7c3.8,1.5,8.1-0.2,9.6-4l67.8-164.8
	C406.6,174.8,404.9,170.5,401.1,168.9z"/>
<polygon style="fill:#2A414C;" points="365.6,154.3 292.2,332.7 294.7,333.8 368.1,155.3 "/>
<g>
	<path style="fill:#D7E2E8;" d="M353.5,213.1c0.8-2,3.1-2.9,5.1-2.1c2,0.8,2.9,3.1,2.1,5.1s-3.1,2.9-5.1,2.1
		C353.6,217.4,352.7,215.1,353.5,213.1z"/>
	<path style="fill:#D7E2E8;" d="M367.5,218.9c0.8-2,3.1-2.9,5.1-2.1c2,0.8,2.9,3.1,2.1,5.1s-3.1,2.9-5.1,2.1
		C367.6,223.2,366.7,220.9,367.5,218.9z"/>
	<path style="fill:#D7E2E8;" d="M347.7,227.1c0.8-2,3.1-2.9,5.1-2.1c2,0.8,2.9,3.1,2.1,5.1s-3.1,2.9-5.1,2.1
		C347.9,231.4,346.9,229.1,347.7,227.1z"/>
	<circle style="fill:#D7E2E8;" cx="365.3" cy="234.4" r="3.9"/>
	<circle style="fill:#D7E2E8;" cx="345.6" cy="242.6" r="3.9"/>
	<path style="fill:#D7E2E8;" d="M356,246.9c0.8-2,3.1-2.9,5.1-2.1c2,0.8,2.9,3.1,2.1,5.1c-0.8,2-3.1,2.9-5.1,2.1
		C356.1,251.1,355.1,248.9,356,246.9z"/>
	<path style="fill:#D7E2E8;" d="M336.2,255.1c0.8-2,3.1-2.9,5.1-2.1s2.9,3.1,2.1,5.1s-3.1,2.9-5.1,2.1
		C336.3,259.3,335.4,257.1,336.2,255.1z"/>
	<circle style="fill:#D7E2E8;" cx="353.8" cy="262.3" r="3.9"/>
	<path style="fill:#D7E2E8;" d="M330.4,269.1c0.8-2,3.1-2.9,5.1-2.1s2.9,3.1,2.1,5.1s-3.1,2.9-5.1,2.1
		C330.5,273.3,329.6,271.1,330.4,269.1z"/>
	<circle style="fill:#D7E2E8;" cx="348" cy="276.3" r="3.9"/>
	<path style="fill:#D7E2E8;" d="M324.6,283c0.8-2,3.1-2.9,5.1-2.1s2.9,3.1,2.1,5.1s-3.1,2.9-5.1,2.1
		C324.8,287.3,323.8,285,324.6,283z"/>
	<circle style="fill:#D7E2E8;" cx="342.2" cy="290.3" r="3.9"/>
</g>
<path style="fill:#334D5C;" d="M103.2,168.9l35.5-14.7L212,332.7l-35.5,14.7c-3.8,1.5-8.1-0.2-9.6-4L99.2,178.6
	C97.6,174.8,99.4,170.5,103.2,168.9z"/>
<path style="fill:#2C414C;" d="M122.8,170.2l-29.2,11.9c-3,1.2-3.5,7-7.3,9L74,196.2c-3.2,1.3-4.8,5-3.4,8.2l58.1,141.3
	c1.3,3.2,5,4.8,8.2,3.4l12.3-5.1c4.4-2,8.4,2.4,11.5,1.1l29.2-11.9L122.8,170.2z"/>
<g>
	<circle style="fill:#D7E2E8;" cx="133.7" cy="310.8" r="3.2"/>
	<circle style="fill:#D7E2E8;" cx="112.5" cy="259.5" r="3.2"/>
	<circle style="fill:#D7E2E8;" cx="130.2" cy="302.3" r="3.2"/>
	<circle style="fill:#D7E2E8;" cx="126.7" cy="293.7" r="3.2"/>
	<circle style="fill:#D7E2E8;" cx="123.1" cy="285.2" r="3.2"/>
	<circle style="fill:#D7E2E8;" cx="119.6" cy="276.6" r="3.2"/>
	<circle style="fill:#D7E2E8;" cx="116.1" cy="268.1" r="3.2"/>
	<circle style="fill:#D7E2E8;" cx="109" cy="251" r="3.2"/>
	<path style="fill:#D7E2E8;" d="M108.5,241.2c0.7,1.7-0.1,3.6-1.8,4.2c-1.7,0.7-3.6-0.1-4.2-1.8c-0.7-1.7,0.1-3.6,1.8-4.2
		C105.9,238.7,107.8,239.5,108.5,241.2z"/>
	<path style="fill:#D7E2E8;" d="M104.9,232.6c0.7,1.7-0.1,3.6-1.8,4.2c-1.7,0.7-3.6-0.1-4.2-1.8c-0.7-1.7,0.1-3.6,1.8-4.2
		C102.3,230.2,104.2,231,104.9,232.6z"/>
	<circle style="fill:#D7E2E8;" cx="98.4" cy="225.3" r="3.2"/>
	<circle style="fill:#D7E2E8;" cx="123.3" cy="309.8" r="3.2"/>
	<circle style="fill:#D7E2E8;" cx="102.1" cy="258.6" r="3.2"/>
	<path style="fill:#D7E2E8;" d="M101.6,248.8c0.7,1.7-0.1,3.6-1.8,4.2c-1.7,0.7-3.6-0.1-4.2-1.8c-0.7-1.7,0.1-3.6,1.8-4.2
		C99,246.3,100.9,247.1,101.6,248.8z"/>
	<circle style="fill:#D7E2E8;" cx="95" cy="241.5" r="3.2"/>
	<circle style="fill:#D7E2E8;" cx="91.5" cy="232.9" r="3.2"/>
	<circle style="fill:#D7E2E8;" cx="140.4" cy="302.8" r="3.2"/>
	<circle style="fill:#D7E2E8;" cx="136.9" cy="294.2" r="3.2"/>
	<circle style="fill:#D7E2E8;" cx="133.4" cy="285.7" r="3.2"/>
	<circle style="fill:#D7E2E8;" cx="129.8" cy="277.1" r="3.2"/>
	<circle style="fill:#D7E2E8;" cx="126.3" cy="268.6" r="3.2"/>
	<circle style="fill:#D7E2E8;" cx="122.7" cy="260" r="3.2"/>
	<circle style="fill:#D7E2E8;" cx="119.2" cy="251.5" r="3.2"/>
	<circle style="fill:#D7E2E8;" cx="119.8" cy="301.3" r="3.2"/>
	<circle style="fill:#D7E2E8;" cx="116.3" cy="292.7" r="3.2"/>
	<circle style="fill:#D7E2E8;" cx="112.7" cy="284.2" r="3.2"/>
	<circle style="fill:#D7E2E8;" cx="109.2" cy="275.6" r="3.2"/>
	<circle style="fill:#D7E2E8;" cx="105.7" cy="267.1" r="3.2"/>
	<circle style="fill:#D7E2E8;" cx="115.7" cy="242.9" r="3.2"/>
	<circle style="fill:#D7E2E8;" cx="112.1" cy="234.4" r="3.2"/>
	<circle style="fill:#D7E2E8;" cx="108.6" cy="225.8" r="3.2"/>
	<path style="fill:#D7E2E8;" d="M193.1,324.6L131.2,174c-1.4-3.4-5.3-5.1-8.8-3.7l-22.8,9.4l67,163.1l22.8-9.4
		C192.9,332,194.6,328,193.1,324.6z"/>
</g>
<polygon style="fill:#2A414C;" points="138.6,154.3 212,332.7 209.5,333.8 136.1,155.3 "/>
</svg>