<?xml version="1.0" encoding="iso-8859-1"?>
<!-- Uploaded to: SVG Repo, www.svgrepo.com, Generator: SVG Repo Mixer Tools -->
<svg version="1.1" id="Layer_1" xmlns="http://www.w3.org/2000/svg" xmlns:xlink="http://www.w3.org/1999/xlink" 
	 viewBox="0 0 512 512" xml:space="preserve">
<path style="fill:#FF9811;" d="M347.961,341.208L347.961,341.208c-3.34-3.355-4.256-8.441-2.278-12.656
	c5.385-11.481,8.115-23.698,8.115-36.311c0-50.12-43.872-90.894-97.798-90.894s-97.798,40.775-97.798,90.894
	c0,12.611,2.73,24.829,8.115,36.311c1.977,4.214,1.061,9.3-2.278,12.655c-18.603,18.686-28.848,42.566-28.848,67.242
	C135.191,465.547,189.386,512,256,512s120.809-46.453,120.809-103.551C376.809,383.773,366.564,359.893,347.961,341.208z"/>
<path style="fill:#BF720D;" d="M347.961,341.208L347.961,341.208c-3.34-3.355-4.256-8.441-2.278-12.656
	c5.385-11.481,8.115-23.698,8.115-36.311c0-50.12-43.872-90.894-97.798-90.894v310.652c66.614,0,120.809-46.453,120.809-103.551
	C376.809,383.773,366.564,359.893,347.961,341.208z"/>
<g>
	<path style="fill:#50412E;" d="M273.258,263.505V80.539h11.506V0h-57.528v80.539h11.506v182.966
		c-10.314,5.969-17.258,17.113-17.258,29.888c0,19.064,15.453,34.517,34.517,34.517s34.517-15.453,34.517-34.517
		C290.517,280.62,283.572,269.474,273.258,263.505z"/>
	<rect x="221.483" y="385.438" style="fill:#50412E;" width="69.034" height="34.517"/>
</g>
</svg>