<?xml version="1.0" encoding="iso-8859-1"?>
<!-- Uploaded to: SVG Repo, www.svgrepo.com, Generator: SVG Repo Mixer Tools -->
<svg version="1.1" id="Layer_1" xmlns="http://www.w3.org/2000/svg" xmlns:xlink="http://www.w3.org/1999/xlink" 
	 viewBox="0 0 512 512" xml:space="preserve">
<g>
	<path style="fill:#FF883E;" d="M507.915,220.596c0-4.512-3.658-8.17-8.17-8.17h-32.681l-10.894,16.34h43.574
		C504.257,228.766,507.915,225.108,507.915,220.596z"/>
	<path style="fill:#FF883E;" d="M499.745,277.787H456.17v16.34h43.574c4.512,0,8.17-3.658,8.17-8.17
		C507.915,281.445,504.257,277.787,499.745,277.787z"/>
	<path style="fill:#FF883E;" d="M499.745,245.106H456.17v16.34h43.574c4.512,0,8.17-3.658,8.17-8.17
		C507.915,248.764,504.257,245.106,499.745,245.106z"/>
	<path style="fill:#FF883E;" d="M499.745,310.468H456.17v16.34h43.574c4.512,0,8.17-3.658,8.17-8.17
		C507.915,314.126,504.257,310.468,499.745,310.468z"/>
	<path style="fill:#FF883E;" d="M499.745,343.149H456.17v16.34h43.574c4.512,0,8.17-3.658,8.17-8.17
		C507.915,346.807,504.257,343.149,499.745,343.149z"/>
	<path style="fill:#FF883E;" d="M499.745,375.83H456.17v16.34h43.574c4.512,0,8.17-3.658,8.17-8.17
		C507.915,379.488,504.257,375.83,499.745,375.83z"/>
	<path style="fill:#FF883E;" d="M499.745,408.511H456.17l10.894,16.34h32.681c4.512,0,8.17-3.658,8.17-8.17
		C507.915,412.169,504.257,408.511,499.745,408.511z"/>
</g>
<path style="fill:#FFE1AA;" d="M107.574,70.809c-4.512,0-8.17,3.658-8.17,8.17v103.489h16.34V78.979
	C115.745,74.467,112.087,70.809,107.574,70.809z"/>
<g>
	<polygon style="fill:#FF883E;" points="211.064,78.979 211.064,149.787 194.723,171.574 178.383,149.787 178.383,78.979 
		194.723,57.191 	"/>
	<polygon style="fill:#FF883E;" points="385.362,78.979 385.362,149.787 369.021,171.574 352.681,149.787 352.681,78.979 	"/>
	<polygon style="fill:#FF883E;" points="298.213,78.979 298.213,149.787 281.872,171.574 265.532,149.787 265.532,78.979 	"/>
</g>
<rect x="14.979" y="340.426" style="fill:#8C3B5C;" width="32.681" height="163.404"/>
<rect x="91.234" y="149.787" style="fill:#FF883E;" width="32.681" height="81.702"/>
<g>
	<rect x="178.383" y="8.17" style="fill:#8C3B5C;" width="32.681" height="70.809"/>
	<rect x="178.383" y="149.787" style="fill:#8C3B5C;" width="32.681" height="92.596"/>
	<rect x="352.681" y="149.787" style="fill:#8C3B5C;" width="32.681" height="92.596"/>
	<rect x="265.532" y="149.787" style="fill:#8C3B5C;" width="32.681" height="92.596"/>
</g>
<g>
	<polygon style="fill:#10744A;" points="467.064,212.426 467.064,424.851 434.383,424.851 390.809,318.638 434.383,212.426 	"/>
	<polygon style="fill:#10744A;" points="4.085,329.532 4.085,362.213 58.553,362.213 58.553,329.532 31.319,307.745 	"/>
</g>
<path style="fill:#169B62;" d="M91.234,212.426c-48.052,0-87.149,39.097-87.149,87.149v29.957h54.468v-29.957
	c0-17.974,14.706-32.681,32.681-32.681s32.681,14.706,32.681,32.681v37.583c0,47.932,39.217,87.694,87.149,87.694h223.319V212.426
	H91.234z"/>
<path style="fill:#FFE1AA;" d="M47.66,512H14.979c-4.512,0-8.17-3.658-8.17-8.17s3.658-8.17,8.17-8.17H47.66
	c4.512,0,8.17,3.658,8.17,8.17S52.172,512,47.66,512z"/>
<g>
	<circle style="fill:#10744A;" cx="401.702" cy="318.638" r="8.17"/>
	<circle style="fill:#10744A;" cx="369.021" cy="351.319" r="8.17"/>
</g>
<g>
	<path style="fill:#FFE1AA;" d="M211.064,157.957h-32.681c-4.512,0-8.17-3.658-8.17-8.17s3.658-8.17,8.17-8.17h32.681
		c4.512,0,8.17,3.658,8.17,8.17S215.576,157.957,211.064,157.957z"/>
	<path style="fill:#FFE1AA;" d="M211.064,87.149h-32.681c-4.512,0-8.17-3.658-8.17-8.17c0-4.512,3.658-8.17,8.17-8.17h32.681
		c4.512,0,8.17,3.658,8.17,8.17C219.234,83.491,215.576,87.149,211.064,87.149z"/>
	<path style="fill:#FFE1AA;" d="M211.064,16.34h-32.681c-4.512,0-8.17-3.658-8.17-8.17S173.871,0,178.383,0h32.681
		c4.512,0,8.17,3.658,8.17,8.17S215.576,16.34,211.064,16.34z"/>
	<path style="fill:#FFE1AA;" d="M298.213,87.149h-32.681c-4.512,0-8.17-3.658-8.17-8.17c0-4.512,3.658-8.17,8.17-8.17h32.681
		c4.512,0,8.17,3.658,8.17,8.17C306.383,83.491,302.725,87.149,298.213,87.149z"/>
	<path style="fill:#FFE1AA;" d="M298.213,157.957h-32.681c-4.512,0-8.17-3.658-8.17-8.17s3.658-8.17,8.17-8.17h32.681
		c4.512,0,8.17,3.658,8.17,8.17S302.725,157.957,298.213,157.957z"/>
	<path style="fill:#FFE1AA;" d="M385.362,87.149h-32.681c-4.512,0-8.17-3.658-8.17-8.17c0-4.512,3.658-8.17,8.17-8.17h32.681
		c4.512,0,8.17,3.658,8.17,8.17C393.532,83.491,389.874,87.149,385.362,87.149z"/>
	<path style="fill:#FFE1AA;" d="M385.362,157.957h-32.681c-4.512,0-8.17-3.658-8.17-8.17s3.658-8.17,8.17-8.17h32.681
		c4.512,0,8.17,3.658,8.17,8.17S389.874,157.957,385.362,157.957z"/>
</g>
</svg>