<?xml version="1.0" encoding="iso-8859-1"?>
<!-- Uploaded to: SVG Repo, www.svgrepo.com, Generator: SVG Repo Mixer Tools -->
<svg height="800px" width="800px" version="1.1" id="Layer_1" xmlns="http://www.w3.org/2000/svg" xmlns:xlink="http://www.w3.org/1999/xlink" 
	 viewBox="0 0 512 512" xml:space="preserve">
<path style="fill:#F7B239;" d="M185.383,269.228l57.388,57.388L69.279,500.107C61.359,508.027,50.966,512,40.586,512
	s-20.773-3.985-28.694-11.906c-15.854-15.841-15.854-41.534,0-57.375L185.383,269.228z"/>
<path style="opacity:0.25;fill:#4D4D4D;enable-background:new    ;" d="M220.706,304.551L47.215,478.042
	c-7.921,7.921-18.313,11.893-28.694,11.893c-5.259,0-10.519-1.027-15.462-3.066c1.981,4.81,4.923,9.318,8.833,13.225
	C19.812,508.015,30.205,512,40.586,512s20.773-3.973,28.694-11.893l173.491-173.491L220.706,304.551z"/>
<polygon style="fill:#F7B239;" points="482.394,210.918 484.744,213.267 323.324,374.686 320.975,372.337 139.649,191.024 
	137.3,188.675 298.732,27.243 301.081,29.592 "/>
<g>
	<path style="fill:#F95428;" d="M328.52,364.792c7.921,7.933,7.921,20.773,0,28.706c-7.933,7.921-20.773,7.921-28.706,0
		l-61.963-61.963l-57.388-57.388L118.5,212.172c-7.921-7.921-7.921-20.773,0-28.694c3.96-3.96,9.151-5.94,14.341-5.94
		c5.203,0,10.393,1.98,14.353,5.94L328.52,364.792z"/>
	<path style="fill:#F95428;" d="M506.058,187.254c7.921,7.933,7.921,20.773,0,28.706c-7.933,7.921-20.773,7.921-28.706,0
		L296.038,34.634c-7.921-7.921-7.921-20.773,0-28.694c3.96-3.96,9.151-5.94,14.353-5.94c5.19,0,10.38,1.98,14.341,5.94
		L506.058,187.254z"/>
</g>
<g style="opacity:0.25;">
	<path style="fill:#4D4D4D;" d="M328.52,393.498c-7.933,7.921-20.773,7.921-28.706,0l-56.994-56.994
		c7.933,7.921,20.773,7.921,28.706,0c7.896-7.908,7.921-20.712,0.062-28.645l56.933,56.933
		C336.441,372.725,336.441,385.565,328.52,393.498z"/>
	<path style="fill:#4D4D4D;" d="M506.058,215.96c-7.933,7.921-20.773,7.921-28.706,0l-54.645-54.645l-2.288-2.288
		c7.933,7.859,20.736,7.835,28.645-0.062c7.896-7.908,7.921-20.712,0.061-28.645l56.933,56.933
		C513.979,195.187,513.979,208.027,506.058,215.96z"/>
	<polygon style="fill:#4D4D4D;" points="479.701,218.309 330.869,367.141 273.875,310.147 422.707,161.315 477.352,215.96 	"/>
</g>
<g>
	<path style="fill:#666666;" d="M252.007,149.828c-1.507-8.046-12.524-9.946-16.834-3.129c-2.28,3.606-1.737,8.426,1.263,11.455
		c2.584,2.61,6.681,3.399,10.061,1.992C250.49,158.484,252.89,154.083,252.007,149.828
		C251.897,149.237,252.129,150.418,252.007,149.828z"/>
	<path style="fill:#666666;" d="M255.671,133.937c0.445,1.111,1.134,2.154,1.992,2.989c5.72,5.893,15.941,1.317,15.737-6.745
		c-0.199-7.844-10.169-12.027-15.737-6.292C255.033,126.446,254.254,130.574,255.671,133.937
		C255.894,134.491,255.439,133.384,255.671,133.937z"/>
	<path style="fill:#666666;" d="M291.93,102.661c-2.844-2.76-7.152-3.493-10.71-1.689c-3.181,1.612-5.189,5.036-5.038,8.601
		c0.159,3.723,2.622,7.028,6.119,8.293c3.821,1.384,8.259-0.01,10.61-3.324C295.509,110.879,295.047,105.867,291.93,102.661
		C291.499,102.243,292.349,103.091,291.93,102.661z"/>
	<path style="fill:#666666;" d="M301.499,95.638c6.352,4.184,15.073-0.953,14.306-8.572c-0.769-7.648-10.248-10.922-15.71-5.621
		C296.135,85.519,296.678,92.465,301.499,95.638C302.002,95.97,300.995,95.306,301.499,95.638z"/>
	<path style="fill:#666666;" d="M209.045,190.538c-2.251-5.343-9.051-7.381-13.827-4.012c-4.549,3.21-5.266,10.122-1.215,14.06
		c3.458,3.563,9.58,3.561,13.037,0C209.7,198.008,210.407,193.93,209.045,190.538C208.813,189.984,209.268,191.091,209.045,190.538z
		"/>
	<path style="fill:#666666;" d="M230.975,172.84c0-8.381-10.783-12.348-16.211-6.017c-5.436,6.34,0.054,16.368,8.317,15.153
		C227.543,181.32,230.975,177.362,230.975,172.84z"/>
	<path style="fill:#666666;" d="M291.326,190.759c0-8.354-10.756-12.366-16.211-6.022c-2.674,3.108-2.958,7.725-0.688,11.138
		c2.091,3.145,6.007,4.706,9.69,3.875C288.269,198.816,291.326,195.032,291.326,190.759z"/>
	<path style="fill:#666666;" d="M294.279,171.339c0.708,3.787,3.901,6.747,7.683,7.325c3.957,0.604,7.987-1.571,9.694-5.18
		c1.561-3.3,0.983-7.317-1.428-10.051c-2.741-3.108-7.359-3.99-11.054-2.128C295.538,163.137,293.438,167.328,294.279,171.339
		C294.39,171.929,294.155,170.749,294.279,171.339z"/>
	<path style="fill:#666666;" d="M315.31,148.327c0,3.855,2.5,7.37,6.121,8.675c3.57,1.286,7.707,0.191,10.15-2.722
		c2.514-2.996,2.861-7.335,0.867-10.699c-1.885-3.182-5.685-4.949-9.335-4.374C318.68,139.907,315.31,143.833,315.31,148.327z"/>
	<path style="fill:#666666;" d="M337.24,130.629c1.441,3.407,4.803,5.696,8.523,5.694c3.7-0.001,7.093-2.289,8.511-5.694
		c1.54-3.697,0.444-8.12-2.666-10.656c-2.964-2.417-7.207-2.756-10.511-0.823C337.194,121.434,335.467,126.442,337.24,130.629
		C337.474,131.182,337.005,130.075,337.24,130.629z"/>
	<path style="fill:#666666;" d="M248.181,229.674c-1.462-3.554-5.13-5.88-8.975-5.687c-3.932,0.198-7.388,2.959-8.432,6.751
		c-0.991,3.599,0.328,7.566,3.322,9.813c3.14,2.358,7.517,2.478,10.76,0.264C248.446,238.367,249.784,233.682,248.181,229.674
		C247.949,229.108,248.403,230.227,248.181,229.674z"/>
	<path style="fill:#666666;" d="M270.099,211.975c0-8.457-11.011-12.404-16.35-5.845c-5.319,6.535,0.551,16.47,8.837,14.904
		C266.893,220.222,270.099,216.369,270.099,211.975z"/>
	<path style="fill:#666666;" d="M330.451,229.895c0-8.223-10.41-12.281-15.991-6.261c-2.705,2.916-3.195,7.348-1.246,10.8
		c1.893,3.353,5.799,5.21,9.597,4.542C327.17,238.209,330.451,234.333,330.451,229.895z"/>
	<path style="fill:#666666;" d="M333.231,208.679c0,2.439,1.002,4.777,2.692,6.519c5.731,5.557,15.772,1.594,15.756-6.519
		c-0.016-8.101-9.997-12.113-15.756-6.531C334.227,203.896,333.231,206.234,333.231,208.679z"/>
	<path style="fill:#666666;" d="M354.447,187.451c0,8.122,10.248,12.26,15.876,6.392c2.789-2.909,3.355-7.418,1.374-10.93
		c-1.813-3.213-5.505-5.078-9.168-4.613C357.978,178.877,354.447,182.851,354.447,187.451z"/>
	<path style="fill:#666666;" d="M376.376,169.765c1.525,3.623,5.249,5.966,9.192,5.666c4.006-0.305,7.437-3.241,8.319-7.17
		c1.739-7.745-6.918-14.012-13.734-9.94C376.301,160.622,374.619,165.615,376.376,169.765
		C376.609,170.318,376.141,169.211,376.376,169.765z"/>
	<path style="fill:#666666;" d="M287.306,268.81c-3.001-7.641-14.226-7.307-17.114,0.21c-1.416,3.686-0.278,7.987,2.793,10.474
		c2.983,2.416,7.227,2.722,10.526,0.761C287.388,277.953,289.06,272.978,287.306,268.81
		C287.083,268.244,287.538,269.363,287.306,268.81z"/>
	<path style="fill:#666666;" d="M309.062,249.315c-1.448-6.977-10.48-9.967-15.571-4.723c-5.099,4.957-2.448,13.741,4.283,15.467
		C304.275,261.728,310.277,255.802,309.062,249.315C308.94,248.725,309.172,249.906,309.062,249.315z"/>
	<path style="fill:#666666;" d="M365.49,261.356c-3.57-2.35-8.371-1.952-11.482,0.99c-2.642,2.497-3.553,6.446-2.3,9.853
		c1.316,3.575,4.827,6.063,8.654,6.057c3.841-0.006,7.333-2.465,8.655-6.057C370.46,268.276,368.998,263.665,365.49,261.356z"/>
	<path style="fill:#666666;" d="M372.365,247.803c0,8.534,11.172,12.482,16.465,5.717c5.215-6.667-0.929-16.528-9.202-14.715
		C375.441,239.722,372.365,243.505,372.365,247.803z"/>
	<path style="fill:#666666;" d="M393.767,228.395c0.33,1.761,1.235,3.46,2.521,4.711c5.295,5.455,14.733,1.988,15.668-5.388
		c0.949-7.489-7.452-12.893-13.888-9.045C394.766,220.647,393.001,224.624,393.767,228.395
		C393.876,228.985,393.644,227.792,393.767,228.395z"/>
	<path style="fill:#666666;" d="M415.511,208.901c0.443,1.103,1.139,2.159,1.992,2.989c3.398,3.502,9.242,3.529,12.786,0.252
		c3.821-3.531,3.851-9.606,0.263-13.301c-3.187-3.09-8.17-3.569-11.833-1.013C415.217,200.27,413.89,204.962,415.511,208.901
		C415.733,209.454,415.278,208.335,415.511,208.901z"/>
	<path style="fill:#666666;" d="M326.44,307.933c-3.151-7.489-14.169-7.43-17.115,0.213c-1.491,3.864-0.146,8.431,3.243,10.828
		c2.911,2.059,6.809,2.253,9.913,0.507C326.482,317.23,328.194,312.169,326.44,307.933
		C326.208,307.38,326.675,308.499,326.44,307.933z"/>
	<path style="fill:#666666;" d="M347.656,286.717c-0.444-1.112-1.132-2.155-1.992-2.989c-3.461-3.566-9.576-3.566-13.037,0
		c-5.259,5.112-2.242,14.234,4.811,15.579C344.468,300.647,350.464,293.348,347.656,286.717
		C347.436,286.164,347.891,287.271,347.656,286.717z"/>
</g>
</svg>