<?xml version="1.0" encoding="iso-8859-1"?>
<!-- Uploaded to: SVG Repo, www.svgrepo.com, Generator: SVG Repo Mixer Tools -->
<svg version="1.1" id="Layer_1" xmlns="http://www.w3.org/2000/svg" xmlns:xlink="http://www.w3.org/1999/xlink" 
	 viewBox="0 0 512 512" xml:space="preserve">
<path style="fill:#FF9811;" d="M322.219,363.555c-10.352-2.261-17.863-11.606-17.863-22.222c0-8.151,4.413-15.73,11.517-19.781
	l8.613-4.91v-51.016c0-39.813-32.391-72.205-72.206-72.205h-49.448c-39.814,0-72.206,32.391-72.206,72.205v51.016l8.613,4.91
	c7.103,4.052,11.517,11.63,11.517,19.781c0,10.615-7.513,19.961-17.863,22.222l-13.426,2.931v52.557
	c0,44.982,36.597,81.579,81.579,81.579h53.02c44.982,0,81.579-36.597,81.579-81.579v-52.556L322.219,363.555z"/>
<path style="fill:#BF720D;" d="M322.219,363.555c-10.352-2.261-17.863-11.606-17.863-22.222c0-8.151,4.413-15.73,11.517-19.781
	l8.613-4.91v-51.016c0-39.813-32.391-72.205-72.206-72.205h-24.724v307.2h26.51c44.982,0,81.579-36.597,81.579-81.579v-52.556
	L322.219,363.555z"/>
<g>
	<polygon style="fill:#50412E;" points="256,0 199.111,0 199.111,79.644 210.489,79.644 210.489,284.444 244.622,284.444 
		244.622,79.644 256,79.644 	"/>
	<rect x="210.489" y="398.222" style="fill:#50412E;" width="34.133" height="113.778"/>
	<rect x="210.489" y="324.267" style="fill:#50412E;" width="34.133" height="34.133"/>
</g>
<rect x="358.4" style="fill:#FF9811;" width="34.133" height="284.444"/>
<rect x="375.467" style="fill:#BF720D;" width="17.067" height="284.444"/>
</svg>