<?xml version="1.0" encoding="iso-8859-1"?>
<!-- Uploaded to: SVG Repo, www.svgrepo.com, Generator: SVG Repo Mixer Tools -->
<svg height="800px" width="800px" version="1.1" id="Layer_1" xmlns="http://www.w3.org/2000/svg" xmlns:xlink="http://www.w3.org/1999/xlink" 
	 viewBox="0 0 511.988 511.988" xml:space="preserve">
<g>
	<path style="fill:#434A54;" d="M212.552,42.671h-16c-5.891,0-10.671-4.766-10.671-10.672c0-5.89,4.781-10.655,10.671-10.655h16
		c5.891,0,10.664,4.766,10.664,10.655C223.216,37.905,218.442,42.671,212.552,42.671z"/>
	<path style="fill:#434A54;" d="M260.551,42.671h-16c-5.891,0-10.672-4.766-10.672-10.672c0-5.89,4.781-10.655,10.672-10.655h16
		c5.891,0,10.664,4.766,10.664,10.655C271.215,37.905,266.441,42.671,260.551,42.671z"/>
	<path style="fill:#434A54;" d="M212.552,63.999h-16c-5.891,0-10.671-4.766-10.671-10.656s4.781-10.672,10.671-10.672h16
		c5.891,0,10.664,4.781,10.664,10.672S218.442,63.999,212.552,63.999z"/>
	<path style="fill:#434A54;" d="M260.551,63.999h-16c-5.891,0-10.672-4.766-10.672-10.656s4.781-10.672,10.672-10.672h16
		c5.891,0,10.664,4.781,10.664,10.672S266.441,63.999,260.551,63.999z"/>
	<path style="fill:#434A54;" d="M260.551,85.342h-63.999c-5.891,0-10.671-4.781-10.671-10.672c0-5.89,4.781-10.671,10.671-10.671
		h63.999c5.891,0,10.664,4.781,10.664,10.671S266.441,85.342,260.551,85.342z"/>
</g>
<path style="fill:#965353;" d="M336.9,360.586c-2.875-5.344-6-10.031-9.031-14.578c-8.281-12.406-15.484-23.172-15.969-44.983
	c2.656-2.719,9.891-7.859,16.562-11.688c4.656-2.656,6.609-8.375,4.562-13.343c-0.094-0.219-9.281-22.594-9.281-38.484
	c0-20.812-15.531-41.952-46.139-62.842c-21.336-14.547-42.359-23.734-43.25-24.125c-2.711-1.171-5.781-1.171-8.492,0
	c-0.891,0.391-21.914,9.578-43.249,24.125c-30.609,20.89-46.132,42.03-46.132,62.826c0,15.906-9.187,38.281-9.273,38.5
	c-2.062,4.952-0.117,10.671,4.546,13.343c6.641,3.812,13.844,8.922,16.523,11.656c-0.734,15.249-8.429,32.28-10.281,36.171
	c-4.391,5.828-25.218,35.171-25.218,67.998c0,28.5,12.539,51.374,36.272,66.154c19.992,12.438,48.022,19.016,81.061,19.016
	c33.031,0,61.068-6.578,81.052-19.016c23.734-14.78,36.266-37.654,36.266-66.154C347.432,387.928,344.182,374.179,336.9,360.586z"/>
<path style="opacity:0.1;fill:#FFFFFF;enable-background:new    ;" d="M336.9,360.586c-2.875-5.344-6-10.031-9.031-14.578
	c-8.281-12.406-15.484-23.172-15.969-44.983c2.656-2.719,9.891-7.859,16.562-11.688c4.656-2.656,6.609-8.375,4.562-13.343
	c-0.094-0.219-9.281-22.594-9.281-38.484c0-20.812-15.531-41.952-46.139-62.842c-21.336-14.547-42.359-23.734-43.25-24.125
	c-2.711-1.171-5.781-1.171-8.492,0c-0.289,0.125-2.648,1.156-6.422,2.984c7.992,3.844,22.335,11.266,36.827,21.141
	c30.6,20.89,46.131,42.03,46.131,62.842c0,15.891,9.188,38.266,9.281,38.484c2.062,4.968,0.109,10.687-4.562,13.343
	c-6.656,3.828-13.891,8.969-16.531,11.688c0.469,21.812,7.656,32.577,15.938,44.983c3.031,4.547,6.172,9.234,9.031,14.578
	c7.297,13.593,10.562,27.342,10.562,44.576c0,28.5-12.562,51.374-36.281,66.154c-17.811,11.078-41.99,17.5-70.396,18.781
	c3.492,0.156,7.046,0.234,10.671,0.234c33.031,0,61.068-6.578,81.052-19.016c23.734-14.78,36.266-37.654,36.266-66.154
	C347.432,387.928,344.182,374.179,336.9,360.586z"/>
<path style="fill:#656D78;" d="M244.551,0h-32c-5.89,0-10.671,4.781-10.671,10.672v277.321c0,5.906,4.781,10.672,10.671,10.672h32
	c5.89,0,10.664-4.766,10.664-10.672V10.672C255.215,4.781,250.441,0,244.551,0z"/>
<g>
	<path style="fill:#434A54;" d="M249.879,341.336h-42.663c-5.89,0-10.664-4.781-10.664-10.672s4.773-10.672,10.664-10.672h42.663
		c5.891,0,10.672,4.781,10.672,10.672S255.769,341.336,249.879,341.336z"/>
	<path style="fill:#434A54;" d="M270.066,389.896c-1.805-3.609-5.5-5.906-9.539-5.906h-63.959c-4.039,0-7.727,2.297-9.539,5.906
		c-1.805,3.609-1.414,7.938,1.007,11.172l29.843,39.812v60.452c0,5.891,4.781,10.656,10.671,10.656
		c5.891,0,10.664-4.766,10.664-10.656V440.88l29.851-39.812C271.488,397.834,271.879,393.506,270.066,389.896z"/>
</g>
<path style="fill:#FFD2A6;" d="M388.555,490.66c-5.906,0-10.688-4.766-10.688-10.672V181.34c0-5.891,4.781-10.672,10.688-10.672
	c5.875,0,10.656,4.781,10.656,10.672v298.648C399.211,485.894,394.43,490.66,388.555,490.66z"/>
</svg>