<?xml version="1.0" encoding="iso-8859-1"?>
<!-- Uploaded to: SVG Repo, www.svgrepo.com, Generator: SVG Repo Mixer Tools -->
<svg version="1.1" id="Layer_1" xmlns="http://www.w3.org/2000/svg" xmlns:xlink="http://www.w3.org/1999/xlink" 
	 viewBox="0 0 512 512" xml:space="preserve">
<rect x="90.539" y="97.524" style="fill:#BF720D;" width="36.571" height="414.476"/>
<path style="fill:#786145;" d="M108.826,0C78.578,0,53.969,24.609,53.969,54.857s24.609,54.857,54.857,54.857
	s54.857-24.609,54.857-54.857S139.076,0,108.826,0z"/>
<path style="fill:#50412E;" d="M108.826,109.714c30.248,0,54.857-24.609,54.857-54.857S139.074,0,108.826,0"/>
<path style="fill:#786145;" d="M421.088,114.049c-1.563-22.966-20.735-40.906-43.791-40.906h-18.565V0H249.018v73.143h-18.565
	c-23.056,0-42.228,17.941-43.791,40.906L149.717,512h308.314L421.088,114.049z M285.588,36.571h36.571v36.571h-36.571V36.571z"/>
<path style="fill:#50412E;" d="M303.874,0v36.571h18.286v36.571h-18.286V512h154.157l-36.943-397.951
	c-1.563-22.966-20.735-40.906-43.791-40.906h-18.565V0H303.874z"/>
</svg>
