<?xml version="1.0" encoding="iso-8859-1"?>
<!-- Uploaded to: SVG Repo, www.svgrepo.com, Generator: SVG Repo Mixer Tools -->
<svg height="800px" width="800px" version="1.1" id="Layer_1" xmlns="http://www.w3.org/2000/svg" xmlns:xlink="http://www.w3.org/1999/xlink" 
	 viewBox="0 0 511.999 511.999" xml:space="preserve">
<path style="fill:#D8D6CE;" d="M491.809,401.255c0,27.384-105.576,49.583-235.81,49.583S20.191,428.639,20.191,401.255V173.328
	v-62.584c0-27.384,105.576-49.584,235.81-49.584s235.81,22.199,235.81,49.584v62.584v227.927H491.809z"/>
<path style="fill:#E5E3DC;" d="M256.001,450.838c-130.234,0-235.81-22.199-235.81-49.583V173.328v-62.584
	c0-27.384,105.576-49.584,235.81-49.584V450.838z"/>
<g>
	<path style="fill:#E27F52;" d="M20.191,110.744l0.47-3.092C20.361,108.675,20.191,109.706,20.191,110.744z"/>
	<path style="fill:#E27F52;" d="M491.285,107.472l0.524,3.272C491.809,109.644,491.621,108.554,491.285,107.472z"/>
</g>
<path style="fill:#C36F47;" d="M256.001,160.329c-130.234,0-235.81-22.199-235.81-49.585v62.584v227.926
	c0,27.384,105.576,49.584,235.81,49.584s235.81-22.199,235.81-49.584V173.328v-62.584
	C491.809,138.129,386.235,160.329,256.001,160.329z"/>
<path style="fill:#E27F52;" d="M256.001,160.329c-130.234,0-235.81-22.199-235.81-49.585v62.584v227.926
	c0,27.384,105.576,49.584,235.81,49.584V160.329z"/>
<path style="fill:#B7A982;" d="M256.001,418.593c-64.34,0-125.033-5.31-170.897-14.955C27.042,391.429,0,374.008,0,348.818
	c0-11.151,9.04-20.191,20.191-20.191c9.954,0,18.224,7.201,19.885,16.679c3.297,2.838,17.586,12.544,66,21.283
	c41.529,7.496,94.771,11.625,149.923,11.625s108.394-4.127,149.923-11.625c48.414-8.737,62.704-18.444,66-21.283
	c1.661-9.478,9.933-16.679,19.885-16.679c11.151,0,20.191,9.04,20.191,20.191c0,25.192-27.042,42.611-85.103,54.821
	C381.032,413.282,320.34,418.593,256.001,418.593z"/>
<path style="fill:#CAB98E;" d="M256.001,418.593c-64.34,0-125.033-5.31-170.897-14.955C27.042,391.429,0,374.008,0,348.818
	c0-11.151,9.04-20.191,20.191-20.191c9.954,0,18.224,7.201,19.885,16.679c3.297,2.838,17.586,12.544,66,21.283
	c41.529,7.496,94.771,11.625,149.923,11.625v40.38H256.001z"/>
<path style="fill:#897D70;" d="M91.781,251.962c-11.151,0-20.191-9.04-20.191-20.191v-22.883c0-11.151,9.04-20.191,20.191-20.191
	s20.191,9.04,20.191,20.191v22.883C111.972,242.922,102.932,251.962,91.781,251.962z"/>
<path style="fill:#6D6459;" d="M256.001,273.499c-11.151,0-20.191-9.04-20.191-20.191v-22.883c0-11.151,9.04-20.191,20.191-20.191
	c11.151,0,20.191,9.04,20.191,20.191v22.883C276.192,264.459,267.151,273.499,256.001,273.499z"/>
<path style="fill:#897D70;" d="M256.001,273.499c-11.151,0-20.191-9.04-20.191-20.191v-22.883c0-11.151,9.04-20.191,20.191-20.191
	V273.499z"/>
<path style="fill:#6D6459;" d="M420.22,251.962c-11.151,0-20.191-9.04-20.191-20.191v-22.883c0-11.151,9.04-20.191,20.191-20.191
	c11.151,0,20.191,9.04,20.191,20.191v22.883C440.411,242.922,431.371,251.962,420.22,251.962z"/>
<path style="fill:#B7A982;" d="M256.001,233.716c-64.342,0-125.034-5.31-170.897-14.955C27.042,206.552,0,189.133,0,163.94
	c0-11.151,9.04-20.191,20.191-20.191c9.954,0,18.224,7.201,19.885,16.679c3.297,2.837,17.586,12.544,66,21.284
	c41.527,7.495,94.771,11.623,149.923,11.623s108.396-4.127,149.923-11.623c48.414-8.739,62.704-18.445,66-21.284
	c1.661-9.478,9.933-16.679,19.885-16.679c11.151,0,20.191,9.04,20.191,20.191c0,25.193-27.042,42.612-85.103,54.821
	C381.034,228.406,320.341,233.716,256.001,233.716z"/>
<path style="fill:#CAB98E;" d="M256.001,233.716c-64.342,0-125.034-5.31-170.897-14.955C27.042,206.552,0,189.133,0,163.94
	c0-11.151,9.04-20.191,20.191-20.191c9.954,0,18.224,7.201,19.885,16.679c3.297,2.837,17.586,12.544,66,21.284
	c41.527,7.495,94.771,11.623,149.923,11.623v40.381H256.001z"/>
</svg>