<?xml version="1.0" encoding="iso-8859-1"?>
<!-- Uploaded to: SVG Repo, www.svgrepo.com, Generator: SVG Repo Mixer Tools -->
<svg height="800px" width="800px" version="1.1" id="Layer_1" xmlns="http://www.w3.org/2000/svg" xmlns:xlink="http://www.w3.org/1999/xlink" 
	 viewBox="0 0 512 512" xml:space="preserve">
<path style="fill:#FF9811;" d="M330.74,297.026c-6.262-18.786-4.41-32.931-2.064-50.839c1.387-10.598,2.96-22.611,2.96-36.732
	c0-78.794-63.934-118.061-66.655-119.694L256,84.372l-8.981,5.389c-2.722,1.633-66.655,40.899-66.655,119.694
	c0,14.122,1.573,26.134,2.96,36.731c2.346,17.91,4.197,32.055-2.064,50.839c-14.664,43.994-12.79,87.461,5.42,125.705
	c18.339,38.512,47.816,61,59.639,68.881l9.681,6.455l9.681-6.455c11.823-7.881,41.3-30.371,59.639-68.881
	C343.531,384.488,345.405,341.02,330.74,297.026z"/>
<path style="fill:#BF720D;" d="M330.74,297.026c-6.262-18.786-4.41-32.931-2.064-50.839c1.387-10.598,2.96-22.611,2.96-36.732
	c0-78.794-63.934-118.061-66.655-119.694L256,84.372v413.697l9.681-6.455c11.823-7.881,41.3-30.371,59.639-68.881
	C343.531,384.488,345.405,341.02,330.74,297.026z"/>
<polygon style="fill:#50412E;" points="285.09,0 226.909,0 226.909,46.545 238.545,46.545 238.545,512 273.454,512 273.454,46.545 
	285.09,46.545 "/>
</svg>