<?xml version="1.0" encoding="iso-8859-1"?>
<!-- Uploaded to: SVG Repo, www.svgrepo.com, Generator: SVG Repo Mixer Tools -->
<svg version="1.1" id="Layer_1" xmlns="http://www.w3.org/2000/svg" xmlns:xlink="http://www.w3.org/1999/xlink" 
	 viewBox="0 0 512 512" xml:space="preserve">
<rect x="325.441" y="-3.226" transform="matrix(-0.7071 -0.7071 0.7071 -0.7071 475.775 545.5335)" style="fill:#3E3D41;" width="50.86" height="354.913"/>
<rect x="347.073" y="5.735" transform="matrix(-0.7071 -0.7071 0.7071 -0.7071 484.735 567.1674)" style="fill:#333236;" width="25.518" height="354.913"/>
<path style="fill:#A52000;" d="M444.897,131.033c-4.845,4.845-12.7,4.845-17.545,0l-33.274-33.274c-4.845-4.845-4.845-12.7,0-17.545
	l76.58-76.58c3.342-3.342,8.292-4.495,12.767-2.973c4.475,1.521,7.695,5.454,8.307,10.14l6.955,53.318
	c0.954,7.319-1.545,14.667-6.763,19.886L444.897,131.033z"/>
<path style="fill:#3E3D41;" d="M458.479,117.451l-50.818-50.818c-7.066-7.066-7.066-18.524,0-25.59
	c7.066-7.066,18.524-7.066,25.59,0L484.07,91.86c7.066,7.066,7.066,18.524,0,25.59C477.003,124.517,465.545,124.517,458.479,117.451
	z"/>
<path style="fill:#C52600;" d="M267.873,407.875c0.949-16.5,10.58-31.337,25.278-38.895c0.003-0.002,0.008-0.003,0.011-0.006
	c32.951-16.951,49.634-50.189,37.262-74.241c-2.809-5.462-6.877-9.98-11.871-13.501c-22.042-15.542-37.598-38.53-43.862-64.764
	c-4.502-18.857-15.711-34.223-32.379-41.383c-32.25-13.852-72.718,8.27-90.388,49.41c-0.002,0.004-0.003,0.008-0.006,0.012
	c-7.813,18.197-24.609,30.964-44.227,33.657c-23.511,3.229-45.491,13.382-62.775,30.665C-1.61,335.357,3.51,415.914,56.354,468.757
	s133.399,57.965,179.925,11.439C255.885,460.592,266.317,434.945,267.873,407.875z"/>
<path style="fill:#A52000;" d="M267.873,407.875c0.949-16.5,10.58-31.337,25.278-38.895c0.003-0.002,0.008-0.003,0.011-0.006
	c32.951-16.951,49.634-50.189,37.262-74.241c-2.809-5.462-6.877-9.98-11.871-13.501c-14.759-10.406-26.59-24.162-34.69-39.984
	L56.353,468.759l0,0c52.844,52.844,133.4,57.965,179.926,11.438C255.885,460.592,266.317,434.945,267.873,407.875z"/>
<g>
	<path style="fill:#F9B856;" d="M145.951,440.925l-61.763-61.763c-7.066-7.066-7.066-18.524,0-25.59s18.524-7.066,25.59,0
		l61.763,61.763c7.066,7.066,7.066,18.524,0,25.59C164.475,447.991,153.017,447.991,145.951,440.925z"/>
	<path style="fill:#F9B856;" d="M175.436,383.827l-34.152-34.152c-7.066-7.066-7.066-18.524,0-25.59
		c7.066-7.066,18.524-7.066,25.59,0l34.152,34.152c7.066,7.066,7.066,18.524,0,25.59
		C193.96,390.894,182.502,390.894,175.436,383.827z"/>
</g>
<rect x="379.382" y="111.785" transform="matrix(-0.7071 -0.7071 0.7071 -0.7071 606.0002 491.5906)" style="fill:#333236;" width="50.86" height="17.007"/>
<rect x="40.177" y="437.158" transform="matrix(-0.7071 0.7071 -0.7071 -0.7071 435.3741 741.7534)" style="fill:#780F13;" width="47.775" height="47.775"/>
</svg>