<?xml version="1.0" encoding="iso-8859-1"?>
<!-- Uploaded to: SVG Repo, www.svgrepo.com, Generator: SVG Repo Mixer Tools -->
<svg height="800px" width="800px" version="1.1" id="Layer_1" xmlns="http://www.w3.org/2000/svg" xmlns:xlink="http://www.w3.org/1999/xlink" 
	 viewBox="0 0 503.467 503.467" xml:space="preserve">
<g transform="translate(1 1)">
	<path style="fill:#F2EDDA;" d="M173.933,156.867V88.6h51.2v68.267v145.067v34.133h-51.2V156.867z M173.933,54.467h51.2v-51.2h-51.2
		V54.467z"/>
	<path style="fill:#F2EDDA;" d="M122.733,156.867V88.6h51.2v68.267v179.2v42.667h-51.2V156.867z M122.733,54.467h51.2v-51.2h-51.2
		V54.467z"/>
	<path style="fill:#F2EDDA;" d="M378.733,54.467h51.2v-51.2h-51.2V54.467z M378.733,156.867V88.6h51.2v68.267V242.2v8.533h-51.2
		V156.867z"/>
	<path style="fill:#F2EDDA;" d="M327.533,156.867V88.6h51.2v68.267v93.867v8.533h-51.2V156.867z M327.533,54.467h51.2v-51.2h-51.2
		V54.467z"/>
	<path style="fill:#F2EDDA;" d="M429.933,54.467h51.2v-51.2h-51.2V54.467z M429.933,156.867V88.6h51.2v153.6h-51.2V156.867z"/>
	<path style="fill:#F2EDDA;" d="M225.133,156.867V88.6h51.2v68.267v119.467v25.6h-51.2V156.867z M225.133,54.467h51.2v-51.2h-51.2
		V54.467z"/>
	<path style="fill:#F2EDDA;" d="M71.533,156.867V88.6h51.2v68.267v221.867v51.2h-51.2V156.867z M71.533,54.467h51.2v-51.2h-51.2
		V54.467z"/>
	<path style="fill:#F2EDDA;" d="M276.333,54.467h51.2v-51.2h-51.2V54.467z M276.333,156.867V88.6h51.2v68.267v102.4v17.067h-51.2
		V156.867z"/>
	<path style="fill:#F2EDDA;" d="M20.333,88.6v68.267V498.2h51.2v-68.267V156.867V88.6H20.333z M20.333,54.467h51.2v-51.2h-51.2
		V54.467z"/>
	<polygon style="fill:#F2EDDA;" points="481.133,54.467 429.933,54.467 378.733,54.467 327.533,54.467 276.333,54.467 
		225.133,54.467 173.933,54.467 122.733,54.467 71.533,54.467 20.333,54.467 3.267,54.467 3.267,88.6 20.333,88.6 71.533,88.6 
		122.733,88.6 173.933,88.6 225.133,88.6 276.333,88.6 327.533,88.6 378.733,88.6 429.933,88.6 481.133,88.6 498.2,88.6 
		498.2,54.467 	"/>
</g>
<path style="fill:#51565F;" d="M72.533,503.467h-51.2c-2.56,0-4.267-1.707-4.267-4.267V123.733c0-2.56,1.707-4.267,4.267-4.267
	s4.267,1.707,4.267,4.267V153.6h12.8c2.56,0,4.267,1.707,4.267,4.267c0,2.56-1.707,4.267-4.267,4.267H25.6v332.8h42.667v-371.2
	c0-2.56,1.707-4.267,4.267-4.267c2.56,0,4.267,1.707,4.267,4.267V153.6h12.8c2.56,0,4.267,1.707,4.267,4.267
	c0,2.56-1.707,4.267-4.267,4.267H76.8v264.533h42.667V123.733c0-2.56,1.707-4.267,4.267-4.267c2.56,0,4.267,1.707,4.267,4.267V153.6
	h12.8c2.56,0,4.267,1.707,4.267,4.267c0,2.56-1.707,4.267-4.267,4.267H128v213.333h42.667V123.733c0-2.56,1.707-4.267,4.267-4.267
	c2.56,0,4.267,1.707,4.267,4.267V153.6H192c2.56,0,4.267,1.707,4.267,4.267c0,2.56-1.707,4.267-4.267,4.267h-12.8V332.8h42.667
	V123.733c0-2.56,1.707-4.267,4.267-4.267s4.267,1.707,4.267,4.267V153.6h12.8c2.56,0,4.267,1.707,4.267,4.267
	c0,2.56-1.707,4.267-4.267,4.267h-12.8v136.533h42.667V123.733c0-2.56,1.707-4.267,4.267-4.267s4.267,1.707,4.267,4.267V153.6h12.8
	c2.56,0,4.267,1.707,4.267,4.267c0,2.56-1.707,4.267-4.267,4.267h-12.8v110.933h42.667V123.733c0-2.56,1.707-4.267,4.267-4.267
	s4.267,1.707,4.267,4.267V153.6h12.8c2.56,0,4.267,1.707,4.267,4.267c0,2.56-1.707,4.267-4.267,4.267h-12.8V256h42.667V123.733
	c0-2.56,1.707-4.267,4.267-4.267c2.56,0,4.267,1.707,4.267,4.267V153.6h12.8c2.56,0,4.267,1.707,4.267,4.267
	c0,2.56-1.707,4.267-4.267,4.267H384v85.333h42.667V123.733c0-2.56,1.707-4.267,4.267-4.267s4.267,1.707,4.267,4.267V153.6H448
	c2.56,0,4.267,1.707,4.267,4.267c0,2.56-1.707,4.267-4.267,4.267h-12.8v76.8h42.667v-115.2c0-2.56,1.707-4.267,4.267-4.267
	s4.267,1.707,4.267,4.267V243.2c0,2.56-1.707,4.267-4.267,4.267H435.2v4.267c0,2.56-1.707,4.267-4.267,4.267H384v4.267
	c0,2.56-1.707,4.267-4.267,4.267H332.8v12.8c0,2.56-1.707,4.267-4.267,4.267H281.6v21.333c0,2.56-1.707,4.267-4.267,4.267H230.4
	v29.867c0,2.56-1.707,4.267-4.267,4.267H179.2v38.4c0,2.56-1.707,4.267-4.267,4.267H128v46.933c0,2.56-1.707,4.267-4.267,4.267H76.8
	v64C76.8,501.76,75.093,503.467,72.533,503.467z M499.2,93.867H4.267C1.707,93.867,0,92.16,0,89.6V55.467
	c0-2.56,1.707-4.267,4.267-4.267H499.2c2.56,0,4.267,1.707,4.267,4.267V89.6C503.467,92.16,501.76,93.867,499.2,93.867z
	 M8.533,85.333h486.4v-25.6H8.533V85.333z M482.133,25.6c-2.56,0-4.267-1.707-4.267-4.267v-12.8H435.2v12.8
	c0,2.56-1.707,4.267-4.267,4.267s-4.267-1.707-4.267-4.267v-12.8H384v12.8c0,2.56-1.707,4.267-4.267,4.267
	c-2.56,0-4.267-1.707-4.267-4.267v-12.8H332.8v12.8c0,2.56-1.707,4.267-4.267,4.267s-4.267-1.707-4.267-4.267v-12.8H281.6v12.8
	c0,2.56-1.707,4.267-4.267,4.267s-4.267-1.707-4.267-4.267v-12.8H230.4v12.8c0,2.56-1.707,4.267-4.267,4.267
	s-4.267-1.707-4.267-4.267v-12.8H179.2v12.8c0,2.56-1.707,4.267-4.267,4.267c-2.56,0-4.267-1.707-4.267-4.267v-12.8H128v12.8
	c0,2.56-1.707,4.267-4.267,4.267c-2.56,0-4.267-1.707-4.267-4.267v-12.8H76.8v12.8c0,2.56-1.707,4.267-4.267,4.267
	c-2.56,0-4.267-1.707-4.267-4.267v-12.8H25.6v12.8c0,2.56-1.707,4.267-4.267,4.267s-4.267-1.707-4.267-4.267V4.267
	c0-2.56,1.707-4.267,4.267-4.267h460.8c2.56,0,4.267,1.707,4.267,4.267v17.067C486.4,23.893,484.693,25.6,482.133,25.6z"/>
</svg>