<?xml version="1.0" encoding="iso-8859-1"?>
<!-- Uploaded to: SVG Repo, www.svgrepo.com, Generator: SVG Repo Mixer Tools -->
<svg height="800px" width="800px" version="1.1" id="Layer_1" xmlns="http://www.w3.org/2000/svg" xmlns:xlink="http://www.w3.org/1999/xlink" 
	 viewBox="0 0 512 512" xml:space="preserve">
<path style="fill:#E6C017;" d="M507.921,157.252c4.964-4.964,5.452-12.814,1.157-18.368
	c-39.328-50.858-84.381-95.991-135.16-135.397c-6.13-4.758-14.851-4.224-20.338,1.264l-4.879,4.879c0,0-0.112,16.481-0.985,37.084
	c-1.708,40.358-18.488,78.519-47.05,107.082L15.64,438.821c-7.497,7.497-7.497,19.653,0,27.149l30.141,30.142
	c7.497,7.497,19.653,7.497,27.149,0L361.044,208c34.927-34.927,84.159-51.94,133.189-45.953c0.004,0.001,0.009,0.001,0.013,0.001
	c4.997,0.611,9.996-1.116,13.555-4.677C507.842,157.332,507.881,157.293,507.921,157.252z"/>
<path style="fill:#A52000;" d="M27.481,507.037c-6.287,6.287-16.48,6.287-22.766,0c-6.287-6.287-6.287-16.48,0-22.766l14.613-14.613
	l22.766,22.766L27.481,507.037z"/>
<path style="fill:#D6AF00;" d="M45.783,496.112c7.497,7.497,19.653,7.497,27.149,0L361.045,208
	c34.927-34.927,84.159-51.94,133.188-45.952c0.004,0,0.009,0.001,0.013,0.001c4.997,0.611,9.996-1.116,13.555-4.677
	c0.039-0.039,0.08-0.08,0.12-0.12c4.964-4.964,5.452-12.814,1.157-18.368c-19.8-25.604-41.054-49.754-63.756-72.456L30.711,481.041
	L45.783,496.112z"/>
<g>
	<circle style="fill:#3E3D41;" cx="186.001" cy="325.753" r="17.221"/>
	<circle style="fill:#3E3D41;" cx="236.43" cy="275.325" r="17.221"/>
	<circle style="fill:#3E3D41;" cx="85.133" cy="426.611" r="17.221"/>
	<circle style="fill:#3E3D41;" cx="135.561" cy="376.182" r="17.221"/>
	<circle style="fill:#3E3D41;" cx="286.859" cy="224.896" r="17.221"/>
</g>
<path style="fill:#FBDB4A;" d="M373.918,3.488c-6.13-4.758-14.851-4.224-20.338,1.264l-4.879,4.879c0,0-0.066,9.603-0.484,23.306
	c47.984,37.505,90.819,80.158,128.513,127.952c5.821,0.07,11.664,0.446,17.503,1.159c0.004,0,0.009,0.001,0.013,0.001
	c4.997,0.611,9.996-1.116,13.555-4.677c0.039-0.039,0.08-0.08,0.12-0.12c4.964-4.964,5.452-12.814,1.157-18.368
	C469.751,88.026,424.697,42.894,373.918,3.488z"/>
</svg>