<?xml version="1.0" encoding="iso-8859-1"?>
<!-- Uploaded to: SVG Repo, www.svgrepo.com, Generator: SVG Repo Mixer Tools -->
<svg height="800px" width="800px" version="1.1" id="Layer_1" xmlns="http://www.w3.org/2000/svg" xmlns:xlink="http://www.w3.org/1999/xlink" 
	 viewBox="0 0 488 488" xml:space="preserve">
<path style="fill:#BC8B4B;" d="M58.4,483.2c-6.4,6.4-16.8,6.4-24,0L4.8,453.6c-6.4-6.4-6.4-16.8,0-24L429.6,4.8
	c6.4-6.4,16.8-6.4,24,0l29.6,29.6c6.4,6.4,6.4,16.8,0,24L58.4,483.2z"/>
<path style="fill:#CE9959;" d="M429.6,4.8L4.8,429.6c-6.4,6.4-6.4,16.8,0,24L15.2,464c6.4,6.4,16.8,6.4,24,0L464,39.2
	c6.4-6.4,6.4-16.8,0-24L453.6,4.8C447.2-1.6,436-1.6,429.6,4.8z"/>
<g>
	<circle style="fill:#7A5427;" cx="112.8" cy="356.8" r="8.8"/>
	<circle style="fill:#7A5427;" cx="153.6" cy="316" r="8.8"/>
	<circle style="fill:#7A5427;" cx="194.4" cy="275.2" r="8.8"/>
	<path style="fill:#7A5427;" d="M244,234.4c0,4.8-4,8.8-8.8,8.8s-8.8-4-8.8-8.8s4-8.8,8.8-8.8C240,224.8,244,228.8,244,234.4z"/>
	<circle style="fill:#7A5427;" cx="276" cy="192.8" r="8.8"/>
	<circle style="fill:#7A5427;" cx="316.8" cy="152" r="8.8"/>
	<circle style="fill:#7A5427;" cx="358.4" cy="111.2" r="8.8"/>
	<circle style="fill:#7A5427;" cx="399.2" cy="70.4" r="8.8"/>
</g>
<path style="fill:#A8773D;" d="M111.2,430.4l-53.6-53.6L4.8,429.6c-6.4,6.4-6.4,16.8,0,24l29.6,29.6c6.4,6.4,16.8,6.4,24,0
	L111.2,430.4z"/>
<path style="fill:#BC8B4B;" d="M57.6,376.8L4.8,429.6c-6.4,6.4-6.4,16.8,0,24L15.2,464c6.4,6.4,16.8,6.4,24,0L92,411.2L57.6,376.8z"
	/>
<path style="fill:#593A1C;" d="M32.8,481.6L70.4,444c6.4-6.4,6.4-16.8,0-24l-2.4-3.2c-6.4-6.4-16.8-6.4-24,0L6.4,454.4L32.8,481.6z"
	/>
<path style="fill:#382210;" d="M71.2,420l-3.2-3.2c-6.4-6.4-16.8-6.4-24,0L6.4,454.4l8.8,8.8c6.4,6.4,16.8,6.4,24,0l36-36
	C74.4,424.8,72.8,422.4,71.2,420z"/>
</svg>