<?xml version="1.0" encoding="iso-8859-1"?>
<!-- Uploaded to: SVG Repo, www.svgrepo.com, Generator: SVG Repo Mixer Tools -->
<svg height="800px" width="800px" version="1.1" id="Layer_1" xmlns="http://www.w3.org/2000/svg" xmlns:xlink="http://www.w3.org/1999/xlink" 
	 viewBox="0 0 511.999 511.999" xml:space="preserve">
<g>
	<path style="fill:#AB899B;" d="M85.518,174.379l17.473,166.586L77.428,507.551H10.567c0,0,43.526-303.954,45.075-314.865
		c1.514-10.598,8.761-18.307,19.475-18.307L85.518,174.379L85.518,174.379z"/>
	<path style="fill:#AB899B;" d="M19.42,336.58c-3.176,0-6.235-1.752-7.755-4.785c-13.102-26.126-15.245-55.79-6.034-83.528
		s28.671-50.228,54.797-63.33c4.28-2.144,9.489-0.417,11.634,3.863c2.146,4.28,0.416,9.488-3.863,11.634
		c-45.388,22.76-63.797,78.202-41.038,123.59c2.146,4.28,0.416,9.488-3.863,11.634C22.052,336.283,20.725,336.58,19.42,336.58z"/>
	<path style="fill:#AB899B;" d="M181.851,346.068c-10.691-74.651-21.208-148.123-21.96-153.381
		c-1.503-10.598-8.761-18.307-19.463-18.307h-10.437l-18.953,166.586l27.044,166.586h20.642l34.858-80.742L181.851,346.068z"/>
</g>
<path style="fill:#A9603A;" d="M157.909,95.044c0,27.698-22.451,50.131-50.15,50.131c-27.679,0-50.131-22.432-50.131-50.131
	s22.451-50.15,50.131-50.15C135.459,44.894,157.909,67.346,157.909,95.044z"/>
<polygon style="fill:#FFD089;" points="129.992,174.379 138.082,507.551 77.428,507.551 85.518,174.379 "/>
<path style="fill:#F7D0BC;" d="M255.912,44.899c27.704,0,50.149,22.445,50.149,50.149c0,27.692-22.445,50.125-50.149,50.125
	c-27.681,0-50.125-22.433-50.125-50.125C205.787,67.344,228.232,44.899,255.912,44.899z"/>
<circle style="fill:#460929;" cx="255.932" cy="24.674" r="20.226"/>
<path style="fill:#A9603A;" d="M305.359,86.657L223.346,56.93c-10.749,9.188-17.568,22.861-17.568,38.117
	c0,27.692,22.456,50.125,50.149,50.125c27.681,0,50.137-22.433,50.137-50.125C306.064,92.181,305.822,89.384,305.359,86.657z"/>
<path style="fill:#460929;" d="M305.359,86.657c-30.131,9.292-63.925-1.976-82.013-29.715c8.761-7.512,20.145-12.043,32.581-12.043
	C280.753,44.899,301.372,62.952,305.359,86.657z"/>
<g>
	<path style="fill:#AB899B;" d="M426.481,174.379l-17.473,166.586l25.563,166.586h66.861c0,0-43.526-303.954-45.075-314.865
		c-1.514-10.598-8.761-18.307-19.475-18.307L426.481,174.379L426.481,174.379z"/>
	<path style="fill:#AB899B;" d="M492.579,336.58c3.176,0,6.235-1.752,7.755-4.785c13.102-26.126,15.245-55.79,6.034-83.528
		c-9.21-27.738-28.671-50.228-54.797-63.33c-4.28-2.144-9.489-0.417-11.634,3.863c-2.146,4.28-0.416,9.488,3.863,11.634
		c45.388,22.76,63.797,78.202,41.038,123.59c-2.146,4.28-0.416,9.488,3.863,11.634C489.948,336.283,491.273,336.58,492.579,336.58z"
		/>
	<path style="fill:#AB899B;" d="M330.148,346.068c10.691-74.651,21.208-148.123,21.96-153.381
		c1.502-10.598,8.761-18.307,19.463-18.307h10.437l18.953,166.586l-27.044,166.586h-20.642l-34.858-80.742L330.148,346.068z"/>
</g>
<path style="fill:#A9603A;" d="M354.09,95.044c0,27.698,22.451,50.131,50.15,50.131c27.679,0,50.131-22.432,50.131-50.131
	s-22.451-50.15-50.131-50.15C376.541,44.894,354.09,67.346,354.09,95.044z"/>
<polygon style="fill:#FFD089;" points="382.007,174.379 373.917,507.551 434.572,507.551 426.481,174.379 "/>
<g>
	<path style="fill:#733B59;" d="M233.675,174.379l18.528,166.586l-26.618,166.586h-66.861c0,0,43.526-303.954,45.086-314.865
		c1.502-10.598,8.761-18.307,19.463-18.307L233.675,174.379L233.675,174.379z"/>
	<path style="fill:#733B59;" d="M278.184,174.379l-18.528,166.586l26.618,166.586h66.861c0,0-43.526-303.954-45.086-314.865
		c-1.503-10.598-8.761-18.307-19.463-18.307L278.184,174.379L278.184,174.379z"/>
</g>
<polygon style="fill:#FFB13A;" points="278.149,174.379 286.24,507.551 225.585,507.551 233.675,174.379 "/>
</svg>