<?xml version="1.0" encoding="iso-8859-1"?>
<!-- Uploaded to: SVG Repo, www.svgrepo.com, Generator: SVG Repo Mixer Tools -->
<svg version="1.1" id="Layer_1" xmlns="http://www.w3.org/2000/svg" xmlns:xlink="http://www.w3.org/1999/xlink" 
	 viewBox="0 0 511.988 511.988" xml:space="preserve">
<g>
	<rect x="159.994" y="13.68" style="fill:#CCD1D9;" width="21.328" height="402.31"/>
	<rect x="191.994" y="24.523" style="fill:#CCD1D9;" width="21.328" height="351.84"/>
	<rect x="223.994" y="55.124" style="fill:#CCD1D9;" width="21.328" height="280.12"/>
	<rect x="255.994" y="109.674" style="fill:#CCD1D9;" width="21.327" height="184.41"/>
	<rect x="287.994" y="137.554" style="fill:#CCD1D9;" width="21.328" height="115.4"/>
	<rect x="319.994" y="138.664" style="fill:#CCD1D9;" width="21.328" height="102.5"/>
	<rect x="351.994" y="110.844" style="fill:#CCD1D9;" width="21.327" height="59.812"/>
	<rect x="383.994" y="79.454" style="fill:#CCD1D9;" width="21.328" height="50.07"/>
</g>
<path style="fill:#F4BE8E;" d="M138.653,0H95.998c-5.891,0-10.671,4.773-10.671,10.664v447.981c0,5.905,4.781,10.687,10.671,10.687
	h42.655c5.891,0,10.671-4.781,10.671-10.687V10.664C149.325,4.773,144.544,0,138.653,0z"/>
<g>
	<rect x="85.324" y="53.334" style="fill:#ED5564;" width="63.998" height="106.66"/>
	<rect x="85.324" y="373.334" style="fill:#ED5564;" width="63.998" height="106.65"/>
</g>
<g>
	<path style="fill:#FFD2A6;" d="M308.555,149.333c-15.328,0-28.093-5.805-39.03-17.75c-8.952-9.758-15.702-22.437-22.858-35.866
		c-9.546-17.922-19.421-36.46-35.546-50.647c-18.171-15.968-41.874-23.733-72.467-23.733c-5.891,0-10.656-4.781-10.656-10.672
		s4.765-10.664,10.656-10.664c36.015,0,64.327,9.5,86.545,29.055c19.045,16.748,30.342,37.935,40.295,56.629
		c14.39,27.022,23.482,42.312,43.061,42.312c25.531,0,39.202-15.984,53.671-32.905c8.89-10.391,18.093-21.141,30.14-27.819
		c14.266-7.922,30.078-8.812,48.327-2.727c5.577,1.867,8.608,7.905,6.749,13.491c-1.875,5.586-7.905,8.609-13.499,6.75
		c-12.608-4.203-22.233-3.852-31.233,1.141c-8.688,4.812-16.25,13.664-24.266,23.031
		C363.054,126.95,343.914,149.333,308.555,149.333z"/>
	<path style="fill:#FFD2A6;" d="M138.653,21.336H74.655c-5.89,0-10.656-4.781-10.656-10.672S68.765,0,74.655,0h63.999
		c5.891,0,10.671,4.773,10.671,10.664S144.544,21.336,138.653,21.336z"/>
</g>
<path style="fill:#434A54;" d="M245.323,447.989h-29.625c-5.891,0-10.671-4.781-10.671-10.655c0-5.906,4.781-10.688,10.671-10.688
	h29.625c5.89,0,10.671,4.781,10.671,10.688C255.994,443.208,251.213,447.989,245.323,447.989z"/>
<path style="fill:#FFD2A6;" d="M443.379,65.89c-4.655-3.219-11.015-2.242-14.483,2.227L130.231,452.114
	c-2.5,3.219-2.953,7.562-1.156,11.218c1.797,3.672,5.516,6,9.578,6h63.999c3.719,0,7.171-1.938,9.109-5.125L446.41,80.224
	C449.363,75.396,448.035,69.108,443.379,65.89z"/>
<path style="fill:#656D78;" d="M223.995,447.989H74.655c-5.89,0-10.656,4.781-10.656,10.656v42.687
	c0,5.875,4.766,10.656,10.656,10.656h149.34c5.89,0,10.656-4.781,10.656-10.656v-42.687
	C234.651,452.77,229.885,447.989,223.995,447.989z"/>
</svg>