<?xml version="1.0" encoding="iso-8859-1"?>
<!-- Uploaded to: SVG Repo, www.svgrepo.com, Generator: SVG Repo Mixer Tools -->
<svg version="1.1" id="Layer_1" xmlns="http://www.w3.org/2000/svg" xmlns:xlink="http://www.w3.org/1999/xlink" 
	 viewBox="0 0 512 512" xml:space="preserve">
<g>
	<rect x="98.249" y="132.843" style="fill:#FFE1AA;" width="16.605" height="226.797"/>
	<rect x="131.459" y="132.843" style="fill:#FFE1AA;" width="16.605" height="262.653"/>
	<rect x="164.67" y="132.799" style="fill:#FFE1AA;" width="16.605" height="284.473"/>
	<rect x="197.881" y="127.618" style="fill:#FFE1AA;" width="16.605" height="302.728"/>
	<rect x="231.092" y="102.245" style="fill:#FFE1AA;" width="16.605" height="334.256"/>
	<rect x="264.303" y="75.51" style="fill:#FFE1AA;" width="16.605" height="361.743"/>
	<rect x="297.514" y="55.351" style="fill:#FFE1AA;" width="16.605" height="326.429"/>
	<rect x="330.724" y="55.351" style="fill:#FFE1AA;" width="16.605" height="240.767"/>
	<rect x="363.935" y="55.351" style="fill:#FFE1AA;" width="16.605" height="163.818"/>
	<path style="fill:#FFE1AA;" d="M423.084,77.492H272.605l-5.757,13.417c-15.908,37.13-56.779,64.075-97.164,64.075H51.2v-44.281
		h107.415l88.562-77.492h175.907V77.492z"/>
</g>
<g>
	<path style="fill:#FF883E;" d="M296.251,415.124l-40.229,44.281c-10.96,0-21.742-0.775-32.281-2.28l-13.557-32.083l30.959-10.516
		c4.904,0.398,9.875,0.598,14.878,0.598L296.251,415.124L296.251,415.124z"/>
	<path style="fill:#FF883E;" d="M482.941,66.422c0,8.878-2.856,17.358-6.022,25.096L327.691,459.416l-55.351,22.141L436.711,55.351
		L383.308,0h33.211C453.195,0,482.941,29.735,482.941,66.422z"/>
</g>
<path style="fill:#FFB88B;" d="M449.73,66.422c0,8.878-2.856,17.358-6.022,25.096L283.623,486.185l-27.6-26.769
	c0-0.011,18.089-44.292,18.089-44.292L412.013,77.492l0.41-0.996c1.406-3.089,2.435-6.443,2.435-10.074
	c0-12.211-9.941-22.141-22.141-22.141h-123.4c-9.399,0-22.251,8.469-25.949,17.104l-7.041,16.439
	c-10.738,25.052-39.388,43.949-66.643,43.949H73.341v33.211v77.448c0,95.736,73.994,174.501,167.803,182.095l-17.402,42.598
	C113.614,441.482,29.059,346.931,29.059,232.431V110.703c0-18.266,14.945-33.211,33.211-33.211h107.415
	c9.388,0,22.24-8.469,25.938-17.104l7.052-16.439C213.402,18.897,242.051,0,269.318,0h113.991
	C419.984,0,449.73,29.735,449.73,66.422z"/>
<path style="fill:#FF6638;" d="M327.824,459.416h-0.133h-33.078l33.211,44.281h33.211v-11.07
	C361.035,474.361,346.09,459.416,327.824,459.416z"/>
<path style="fill:#FF883E;" d="M294.613,459.416h-0.133H184.165c-18.266,0-33.211,14.945-33.211,33.211v11.07h176.87v-11.07
	C327.824,474.361,312.879,459.416,294.613,459.416z"/>
<path style="fill:#FF6638;" d="M361.033,512H150.958c-4.586,0-8.303-3.717-8.303-8.303c0-4.585,3.716-8.303,8.303-8.303h210.076
	c4.586,0,8.303,3.717,8.303,8.303C369.336,508.283,365.619,512,361.033,512z"/>
</svg>