<?xml version="1.0" encoding="iso-8859-1"?>
<!-- Uploaded to: SVG Repo, www.svgrepo.com, Generator: SVG Repo Mixer Tools -->
<svg height="800px" width="800px" version="1.1" id="Layer_1" xmlns="http://www.w3.org/2000/svg" xmlns:xlink="http://www.w3.org/1999/xlink" 
	 viewBox="0 0 496.2 496.2" xml:space="preserve">
<path style="fill:#25B7D3;" d="M496.2,248.1C496.2,111.1,385.1,0,248.1,0S0,111.1,0,248.1s111.1,248.1,248.1,248.1
	S496.2,385.1,496.2,248.1z"/>
<polygon style="fill:#FFDB9D;" points="208.4,428.9 259.3,428.9 348.7,146.2 331.3,140.4 203.4,415.9 "/>
<path style="fill:#FC9E5E;" d="M302.8,116.8c-9.3,5.5-23.6,31.8-60.8,10.6l-91.9-60.1c0,0-27.2,178.1,57.7,339.1l12.4-26.7
	c-10-23.8-56-141.6-41.6-250c0,0,93.7,56.4,133.4,10.6c7.3-8.4,22.2-8.4,19.3,0l17.4,5.9c0,0,6.3-19.3-5.9-28.4
	C336.1,112.9,317.7,108,302.8,116.8z"/>
<path style="fill:#DD854A;" d="M268.8,156.3c-43.9,0-95.6-31.6-111.6-43l-0.3-21.5c0.7,0.5,66.1,50,104.1,53.6
	c25.7,2.4,28.3-1.1,53.1-16.8c1.9-1.2,5.1-2.5,8.8-0.7v4.5c-3.7,0-8,2.5-10.7,5C302.8,145.8,296.2,156.3,268.8,156.3z"/>
<g>
	<path style="fill:#E8DFD9;" d="M220.8,386.5c-0.6,0-1.1-0.4-1.2-0.9l-60.2-280.8c-0.1-0.6,0.3-1.3,1-1.4s1.3,0.3,1.5,0.9
		l60.2,280.8c0.1,0.6-0.3,1.3-1,1.4C221,386.5,220.9,386.5,220.8,386.5z"/>
	<path style="fill:#E8DFD9;" d="M230.2,368.8c-0.6,0-1.1-0.4-1.2-0.9l-54.7-255c-0.1-0.6,0.3-1.3,1-1.4s1.3,0.3,1.5,0.9l54.7,255
		c0.1,0.6-0.3,1.3-1,1.4C230.3,368.8,230.2,368.8,230.2,368.8z"/>
	<path style="fill:#E8DFD9;" d="M238.4,349.2c-0.6,0-1.1-0.4-1.2-0.9l-48-224.2c-0.1-0.6,0.3-1.3,1-1.4c0.7-0.1,1.3,0.3,1.5,0.9
		l48.1,224.1c0.1,0.6-0.3,1.3-1,1.4C238.6,349.2,238.5,349.2,238.4,349.2z"/>
	<path style="fill:#E8DFD9;" d="M247.5,330.2c-0.6,0-1.1-0.4-1.2-0.9l-42.2-197c-0.1-0.6,0.3-1.3,1-1.4c0.7-0.1,1.3,0.3,1.5,0.9
		l42.2,196.9c0.1,0.6-0.3,1.3-1,1.4C247.7,330.2,247.6,330.2,247.5,330.2z"/>
	<path style="fill:#E8DFD9;" d="M256.2,310c-0.6,0-1.1-0.4-1.2-0.9l-36.6-170.8c-0.1-0.6,0.3-1.3,1-1.4c0.7-0.1,1.3,0.3,1.5,0.9
		l36.6,170.8c0.1,0.6-0.3,1.3-1,1.4C256.4,310,256.3,310,256.2,310z"/>
	<path style="fill:#E8DFD9;" d="M265.2,290.8c-0.6,0-1.1-0.4-1.2-0.9l-30.7-143.4c-0.1-0.6,0.3-1.3,1-1.4c0.7-0.1,1.3,0.3,1.5,0.9
		l30.7,143.4c0.1,0.6-0.3,1.3-1,1.4C265.4,290.8,265.3,290.8,265.2,290.8z"/>
	<path style="fill:#E8DFD9;" d="M273.8,271.1c-0.6,0-1.1-0.4-1.2-0.9l-26.1-120.9c-0.1-0.6,0.3-1.3,1-1.4c0.7-0.1,1.3,0.3,1.5,0.9
		l26.1,120.9c0.1,0.6-0.3,1.3-1,1.4C273.9,271.1,273.9,271.1,273.8,271.1z"/>
	<path style="fill:#E8DFD9;" d="M282.4,250.5c-0.6,0-1.1-0.4-1.2-0.9l-20.6-96c-0.1-0.6,0.3-1.3,1-1.4c0.7-0.1,1.3,0.3,1.5,0.9
		l20.6,96c0.1,0.6-0.3,1.3-1,1.4C282.5,250.5,282.4,250.5,282.4,250.5z"/>
	<path style="fill:#E8DFD9;" d="M291.7,231c-0.6,0-1.1-0.4-1.2-0.9l-16.9-78.9c-0.1-0.6,0.3-1.3,1-1.4c0.7-0.1,1.3,0.3,1.5,0.9
		l16.9,78.9c0.1,0.6-0.3,1.3-1,1.4C291.9,231,291.8,231,291.7,231z"/>
	<path style="fill:#E8DFD9;" d="M300.5,210.7c-0.6,0-1.1-0.4-1.2-0.9l-12.7-59.5c-0.1-0.6,0.3-1.3,1-1.4c0.7-0.1,1.3,0.3,1.5,0.9
		l12.7,59.5c0.1,0.6-0.3,1.3-1,1.4C300.7,210.7,300.6,210.7,300.5,210.7z"/>
	<path style="fill:#E8DFD9;" d="M309.8,195.7c-0.6,0-1.1-0.4-1.2-0.9l-11.4-52.4c-0.1-0.6,0.3-1.3,1-1.4c0.7-0.1,1.3,0.3,1.5,0.9
		l11.4,52.4c0.1,0.6-0.3,1.3-1,1.4C310,195.7,309.9,195.7,309.8,195.7z"/>
	<path style="fill:#E8DFD9;" d="M318.5,175.3c-0.6,0-1.1-0.4-1.2-0.9l-8.6-39.1c-0.1-0.6,0.3-1.3,1-1.4c0.7-0.1,1.3,0.3,1.5,0.9
		l8.6,39.1c0.1,0.6-0.3,1.3-1,1.4C318.6,175.3,318.6,175.3,318.5,175.3z"/>
	<path style="fill:#E8DFD9;" d="M327.6,156.4c-0.6,0-1.1-0.4-1.2-0.9l-6.2-26.4c-0.1-0.6,0.3-1.3,0.9-1.4c0.7-0.1,1.3,0.3,1.5,0.9
		l6.2,26.4c0.1,0.6-0.3,1.3-0.9,1.4C327.8,156.4,327.7,156.4,327.6,156.4z"/>
</g>
<polygon style="fill:#FC9E5E;" points="208.4,428.9 259.3,428.9 348.7,146.2 331.3,140.4 "/>
<g>
	<ellipse style="fill:#B7632A;" cx="160.6" cy="104.4" rx="2.7" ry="2.6"/>
	<ellipse style="fill:#B7632A;" cx="175.7" cy="114.1" rx="2.7" ry="2.6"/>
	<ellipse style="fill:#B7632A;" cx="190.4" cy="123.9" rx="2.7" ry="2.6"/>
	<ellipse style="fill:#B7632A;" cx="205.3" cy="132.1" rx="2.7" ry="2.6"/>
	<path style="fill:#B7632A;" d="M217.3,139.2c0-1.4,1.2-2.5,2.7-2.5s2.7,1.1,2.7,2.5s-1.2,2.6-2.7,2.6
		C218.5,141.7,217.3,140.6,217.3,139.2z"/>
	<ellipse style="fill:#B7632A;" cx="234.7" cy="146.1" rx="2.7" ry="2.6"/>
	<ellipse style="fill:#B7632A;" cx="247.7" cy="149.1" rx="2.7" ry="2.5"/>
	<ellipse style="fill:#B7632A;" cx="261.1" cy="151.4" rx="2.7" ry="2.6"/>
	<ellipse style="fill:#B7632A;" cx="275.1" cy="151.8" rx="2.7" ry="2.6"/>
	<ellipse style="fill:#B7632A;" cx="287.9" cy="149.2" rx="2.7" ry="2.5"/>
	<ellipse style="fill:#B7632A;" cx="298.7" cy="143.6" rx="2.7" ry="2.6"/>
	<ellipse style="fill:#B7632A;" cx="309.9" cy="135.1" rx="2.7" ry="2.6"/>
	<ellipse style="fill:#B7632A;" cx="321.3" cy="128.8" rx="2.7" ry="2.6"/>
</g>
<g>
	<ellipse style="fill:#FC9E5E;" cx="221.1" cy="386.4" rx="2.7" ry="2.6"/>
	<ellipse style="fill:#FC9E5E;" cx="230.1" cy="367.6" rx="2.7" ry="2.6"/>
	<ellipse style="fill:#FC9E5E;" cx="238.6" cy="348.4" rx="2.7" ry="2.6"/>
	<ellipse style="fill:#FC9E5E;" cx="247.8" cy="329.1" rx="2.7" ry="2.6"/>
	<ellipse style="fill:#FC9E5E;" cx="256.8" cy="308.8" rx="2.7" ry="2.6"/>
	<ellipse style="fill:#FC9E5E;" cx="265.4" cy="289.9" rx="2.7" ry="2.6"/>
	<ellipse style="fill:#FC9E5E;" cx="274.1" cy="270.7" rx="2.7" ry="2.6"/>
	<ellipse style="fill:#FC9E5E;" cx="283.6" cy="250.6" rx="2.7" ry="2.6"/>
	<ellipse style="fill:#FC9E5E;" cx="292.5" cy="231" rx="2.7" ry="2.6"/>
	<ellipse style="fill:#FC9E5E;" cx="301.6" cy="211.1" rx="2.7" ry="2.6"/>
	<ellipse style="fill:#FC9E5E;" cx="310.5" cy="193.6" rx="2.7" ry="2.6"/>
</g>
</svg>