<?xml version="1.0" encoding="iso-8859-1"?>
<!-- Uploaded to: SVG Repo, www.svgrepo.com, Generator: SVG Repo Mixer Tools -->
<svg version="1.1" id="Layer_1" xmlns="http://www.w3.org/2000/svg" xmlns:xlink="http://www.w3.org/1999/xlink" 
	 viewBox="0 0 496.2 496.2" xml:space="preserve">
<path style="fill:#25B7D3;" d="M496.2,248.1C496.2,111.1,385.1,0,248.1,0C111.1,0,0,111.1,0,248.1s111.1,248.1,248.1,248.1
	S496.2,385.1,496.2,248.1z"/>
<rect x="46.5" y="193.8" style="fill:#444443;" width="406.7" height="108.6"/>
<rect x="222.5" y="205.6" style="fill:#383838;" width="54.7" height="29.9"/>
<rect x="224.4" y="207.5" style="fill:#6CDDBD;" width="50.9" height="26.1"/>
<polygon style="fill:#7DEAC8;" points="224.4,233.6 224.4,207.5 275.2,207.5 "/>
<rect x="65.6" y="245.3" style="fill:#383838;" width="368.3" height="4.2"/>
<g>
	<rect x="128.9" y="249.5" style="fill:#F2F1DF;" width="10.1" height="46.2"/>
	<rect x="118.4" y="249.5" style="fill:#F2F1DF;" width="10.1" height="46.2"/>
	<rect x="107.8" y="249.5" style="fill:#F2F1DF;" width="10.1" height="46.2"/>
	<rect x="97.3" y="249.5" style="fill:#F2F1DF;" width="10.1" height="46.2"/>
</g>
<rect x="115.5" y="249.5" style="fill:#3A3A38;" width="5.3" height="26.6"/>
<rect x="115.5" y="249.5" style="fill:#565656;" width="1.1" height="26.6"/>
<polygon style="fill:#282828;" points="116.5,275 119.8,275 120.8,276.1 115.5,276.1 "/>
<rect x="116.5" y="249.5" style="fill:#444443;" width="3.3" height="25.5"/>
<rect x="104.9" y="249.5" style="fill:#3A3A38;" width="5.3" height="26.6"/>
<rect x="104.9" y="249.5" style="fill:#565656;" width="1.1" height="26.6"/>
<polygon style="fill:#282828;" points="105.9,275 109.2,275 110.2,276.1 104.9,276.1 "/>
<rect x="105.9" y="249.5" style="fill:#444443;" width="3.3" height="25.5"/>
<rect x="126.1" y="249.5" style="fill:#3A3A38;" width="5.3" height="26.6"/>
<rect x="126.1" y="249.5" style="fill:#565656;" width="1.1" height="26.6"/>
<polygon style="fill:#282828;" points="127.1,275 130.4,275 131.4,276.1 126.1,276.1 "/>
<rect x="127.1" y="249.5" style="fill:#444443;" width="3.3" height="25.5"/>
<g>
	<rect x="86.7" y="249.5" style="fill:#F2F1DF;" width="10.1" height="46.2"/>
	<rect x="76.2" y="249.5" style="fill:#F2F1DF;" width="10.1" height="46.2"/>
	<rect x="65.6" y="249.5" style="fill:#F2F1DF;" width="10.1" height="46.2"/>
</g>
<rect x="73.3" y="249.5" style="fill:#3A3A38;" width="5.3" height="26.6"/>
<rect x="73.3" y="249.5" style="fill:#565656;" width="1.1" height="26.6"/>
<polygon style="fill:#282828;" points="74.3,275 77.6,275 78.6,276.1 73.3,276.1 "/>
<rect x="74.3" y="249.5" style="fill:#444443;" width="3.3" height="25.5"/>
<rect x="83.9" y="249.5" style="fill:#3A3A38;" width="5.3" height="26.6"/>
<rect x="83.9" y="249.5" style="fill:#565656;" width="1.1" height="26.6"/>
<polygon style="fill:#282828;" points="84.9,275 88.2,275 89.2,276.1 83.9,276.1 "/>
<rect x="84.9" y="249.5" style="fill:#444443;" width="3.3" height="25.5"/>
<g>
	<rect x="160.5" y="249.5" style="fill:#F2F1DF;" width="10.1" height="46.2"/>
	<rect x="150" y="249.5" style="fill:#F2F1DF;" width="10.1" height="46.2"/>
	<rect x="139.4" y="249.5" style="fill:#F2F1DF;" width="10.1" height="46.2"/>
</g>
<rect x="147.1" y="249.5" style="fill:#3A3A38;" width="5.3" height="26.6"/>
<rect x="147.1" y="249.5" style="fill:#565656;" width="1.1" height="26.6"/>
<polygon style="fill:#282828;" points="148.1,275 151.4,275 152.4,276.1 147.1,276.1 "/>
<rect x="148.1" y="249.5" style="fill:#444443;" width="3.3" height="25.5"/>
<rect x="157.7" y="249.5" style="fill:#3A3A38;" width="5.3" height="26.6"/>
<rect x="157.7" y="249.5" style="fill:#565656;" width="1.1" height="26.6"/>
<polygon style="fill:#282828;" points="158.7,275 162,275 163,276.1 157.7,276.1 "/>
<rect x="158.7" y="249.5" style="fill:#444443;" width="3.3" height="25.5"/>
<g>
	<rect x="202.6" y="249.5" style="fill:#F2F1DF;" width="10.1" height="46.2"/>
	<rect x="192.1" y="249.5" style="fill:#F2F1DF;" width="10.1" height="46.2"/>
	<rect x="181.5" y="249.5" style="fill:#F2F1DF;" width="10.1" height="46.2"/>
	<rect x="171" y="249.5" style="fill:#F2F1DF;" width="10.1" height="46.2"/>
</g>
<rect x="189.2" y="249.5" style="fill:#3A3A38;" width="5.3" height="26.6"/>
<rect x="189.2" y="249.5" style="fill:#565656;" width="1.1" height="26.6"/>
<polygon style="fill:#282828;" points="190.2,275 193.6,275 194.6,276.1 189.2,276.1 "/>
<rect x="190.2" y="249.5" style="fill:#444443;" width="3.3" height="25.5"/>
<rect x="178.6" y="249.5" style="fill:#3A3A38;" width="5.3" height="26.6"/>
<rect x="178.6" y="249.5" style="fill:#565656;" width="1.1" height="26.6"/>
<polygon style="fill:#282828;" points="179.6,275 183,275 184,276.1 178.6,276.1 "/>
<rect x="179.7" y="249.5" style="fill:#444443;" width="3.3" height="25.5"/>
<rect x="199.8" y="249.5" style="fill:#3A3A38;" width="5.3" height="26.6"/>
<rect x="199.8" y="249.5" style="fill:#565656;" width="1.1" height="26.6"/>
<polygon style="fill:#282828;" points="200.8,275 204.1,275 205.1,276.1 199.8,276.1 "/>
<rect x="200.8" y="249.5" style="fill:#444443;" width="3.3" height="25.5"/>
<g>
	<rect x="234.2" y="249.5" style="fill:#F2F1DF;" width="10.1" height="46.2"/>
	<rect x="223.7" y="249.5" style="fill:#F2F1DF;" width="10.1" height="46.2"/>
	<rect x="213.1" y="249.5" style="fill:#F2F1DF;" width="10.1" height="46.2"/>
</g>
<rect x="220.8" y="249.5" style="fill:#3A3A38;" width="5.3" height="26.6"/>
<rect x="220.8" y="249.5" style="fill:#565656;" width="1.1" height="26.6"/>
<polygon style="fill:#282828;" points="221.8,275 225.2,275 226.2,276.1 220.8,276.1 "/>
<rect x="221.8" y="249.5" style="fill:#444443;" width="3.3" height="25.5"/>
<rect x="231.4" y="249.5" style="fill:#3A3A38;" width="5.3" height="26.6"/>
<rect x="231.4" y="249.5" style="fill:#565656;" width="1.1" height="26.6"/>
<polygon style="fill:#282828;" points="232.4,275 235.7,275 236.8,276.1 231.4,276.1 "/>
<rect x="232.4" y="249.5" style="fill:#444443;" width="3.3" height="25.5"/>
<g>
	<rect x="276.4" y="249.5" style="fill:#F2F1DF;" width="10.1" height="46.2"/>
	<rect x="265.8" y="249.5" style="fill:#F2F1DF;" width="10.1" height="46.2"/>
	<rect x="255.3" y="249.5" style="fill:#F2F1DF;" width="10.1" height="46.2"/>
	<rect x="244.7" y="249.5" style="fill:#F2F1DF;" width="10.1" height="46.2"/>
</g>
<rect x="263" y="249.5" style="fill:#3A3A38;" width="5.3" height="26.6"/>
<rect x="263" y="249.5" style="fill:#565656;" width="1.1" height="26.6"/>
<polygon style="fill:#282828;" points="264,275 267.3,275 268.3,276.1 263,276.1 "/>
<rect x="264" y="249.5" style="fill:#444443;" width="3.3" height="25.5"/>
<rect x="252.4" y="249.5" style="fill:#3A3A38;" width="5.3" height="26.6"/>
<rect x="252.4" y="249.5" style="fill:#565656;" width="1.1" height="26.6"/>
<polygon style="fill:#282828;" points="253.4,275 256.7,275 257.7,276.1 252.4,276.1 "/>
<rect x="253.4" y="249.5" style="fill:#444443;" width="3.3" height="25.5"/>
<rect x="273.5" y="249.5" style="fill:#3A3A38;" width="5.3" height="26.6"/>
<rect x="273.5" y="249.5" style="fill:#565656;" width="1.1" height="26.6"/>
<polygon style="fill:#282828;" points="274.5,275 277.9,275 278.9,276.1 273.5,276.1 "/>
<rect x="274.6" y="249.5" style="fill:#444443;" width="3.3" height="25.5"/>
<g>
	<rect x="308" y="249.5" style="fill:#F2F1DF;" width="10.1" height="46.2"/>
	<rect x="297.4" y="249.5" style="fill:#F2F1DF;" width="10.1" height="46.2"/>
	<rect x="286.9" y="249.5" style="fill:#F2F1DF;" width="10.1" height="46.2"/>
</g>
<rect x="294.6" y="249.5" style="fill:#3A3A38;" width="5.3" height="26.6"/>
<rect x="294.6" y="249.5" style="fill:#565656;" width="1.1" height="26.6"/>
<polygon style="fill:#282828;" points="295.6,275 298.9,275 299.9,276.1 294.6,276.1 "/>
<rect x="295.6" y="249.5" style="fill:#444443;" width="3.3" height="25.5"/>
<rect x="305.1" y="249.5" style="fill:#3A3A38;" width="5.3" height="26.6"/>
<rect x="305.1" y="249.5" style="fill:#565656;" width="1.1" height="26.6"/>
<polygon style="fill:#282828;" points="306.1,275 309.5,275 310.5,276.1 305.1,276.1 "/>
<rect x="306.2" y="249.5" style="fill:#444443;" width="3.3" height="25.5"/>
<g>
	<rect x="350.1" y="249.5" style="fill:#F2F1DF;" width="10.1" height="46.2"/>
	<rect x="339.6" y="249.5" style="fill:#F2F1DF;" width="10.1" height="46.2"/>
	<rect x="329" y="249.5" style="fill:#F2F1DF;" width="10.1" height="46.2"/>
	<rect x="318.4" y="249.5" style="fill:#F2F1DF;" width="10.1" height="46.2"/>
</g>
<rect x="336.7" y="249.5" style="fill:#3A3A38;" width="5.3" height="26.6"/>
<rect x="336.7" y="249.5" style="fill:#565656;" width="1.1" height="26.6"/>
<polygon style="fill:#282828;" points="337.7,275 341,275 342,276.1 336.7,276.1 "/>
<rect x="337.7" y="249.5" style="fill:#444443;" width="3.3" height="25.5"/>
<rect x="326.1" y="249.5" style="fill:#3A3A38;" width="5.3" height="26.6"/>
<rect x="326.1" y="249.5" style="fill:#565656;" width="1.1" height="26.6"/>
<polygon style="fill:#282828;" points="327.1,275 330.4,275 331.4,276.1 326.1,276.1 "/>
<rect x="327.1" y="249.5" style="fill:#444443;" width="3.3" height="25.5"/>
<rect x="347.3" y="249.5" style="fill:#3A3A38;" width="5.3" height="26.6"/>
<rect x="347.3" y="249.5" style="fill:#565656;" width="1.1" height="26.6"/>
<polygon style="fill:#282828;" points="348.3,275 351.6,275 352.6,276.1 347.3,276.1 "/>
<rect x="348.3" y="249.5" style="fill:#444443;" width="3.3" height="25.5"/>
<g>
	<rect x="381.7" y="249.5" style="fill:#F2F1DF;" width="10.1" height="46.2"/>
	<rect x="371.2" y="249.5" style="fill:#F2F1DF;" width="10.1" height="46.2"/>
	<rect x="360.6" y="249.5" style="fill:#F2F1DF;" width="10.1" height="46.2"/>
</g>
<rect x="368.3" y="249.5" style="fill:#3A3A38;" width="5.3" height="26.6"/>
<rect x="368.3" y="249.5" style="fill:#565656;" width="1.1" height="26.6"/>
<polygon style="fill:#282828;" points="369.3,275 372.6,275 373.6,276.1 368.3,276.1 "/>
<rect x="369.3" y="249.5" style="fill:#444443;" width="3.3" height="25.5"/>
<rect x="378.9" y="249.5" style="fill:#3A3A38;" width="5.3" height="26.6"/>
<rect x="378.9" y="249.5" style="fill:#565656;" width="1.1" height="26.6"/>
<polygon style="fill:#282828;" points="379.9,275 383.2,275 384.2,276.1 378.9,276.1 "/>
<rect x="379.9" y="249.5" style="fill:#444443;" width="3.3" height="25.5"/>
<g>
	<rect x="423.9" y="249.5" style="fill:#F2F1DF;" width="10.1" height="46.2"/>
	<rect x="413.3" y="249.5" style="fill:#F2F1DF;" width="10.1" height="46.2"/>
	<rect x="402.8" y="249.5" style="fill:#F2F1DF;" width="10.1" height="46.2"/>
	<rect x="392.2" y="249.5" style="fill:#F2F1DF;" width="10.1" height="46.2"/>
</g>
<rect x="410.4" y="249.5" style="fill:#3A3A38;" width="5.3" height="26.6"/>
<rect x="410.4" y="249.5" style="fill:#565656;" width="1.1" height="26.6"/>
<polygon style="fill:#282828;" points="411.4,275 414.8,275 415.8,276.1 410.4,276.1 "/>
<rect x="411.5" y="249.5" style="fill:#444443;" width="3.3" height="25.5"/>
<rect x="399.9" y="249.5" style="fill:#3A3A38;" width="5.3" height="26.6"/>
<rect x="399.9" y="249.5" style="fill:#565656;" width="1.1" height="26.6"/>
<polygon style="fill:#282828;" points="400.9,275 404.2,275 405.2,276.1 399.9,276.1 "/>
<rect x="400.9" y="249.5" style="fill:#444443;" width="3.3" height="25.5"/>
<rect x="421" y="249.5" style="fill:#3A3A38;" width="5.3" height="26.6"/>
<rect x="421" y="249.5" style="fill:#565656;" width="1.1" height="26.6"/>
<polygon style="fill:#282828;" points="422,275 425.4,275 426.4,276.1 421,276.1 "/>
<rect x="422" y="249.5" style="fill:#444443;" width="3.3" height="25.5"/>
<circle style="fill:#383838;" cx="291" cy="209.3" r="4.3"/>
<circle style="fill:#444443;" cx="291" cy="209.3" r="3.3"/>
<path style="fill:#636363;" d="M288,209.3c0-1.7,1.3-3,3-3S288,211,288,209.3z"/>
<circle style="fill:#383838;" cx="301.7" cy="209.3" r="4.3"/>
<circle style="fill:#444443;" cx="301.7" cy="209.3" r="3.3"/>
<path style="fill:#636363;" d="M298.7,209.3c0-1.7,1.3-3,3-3S298.7,211,298.7,209.3z"/>
<circle style="fill:#383838;" cx="291" cy="220" r="4.3"/>
<circle style="fill:#444443;" cx="291" cy="220" r="3.3"/>
<path style="fill:#636363;" d="M288,220c0-1.7,1.3-3,3-3S288,221.7,288,220z"/>
<circle style="fill:#383838;" cx="301.7" cy="220" r="4.3"/>
<circle style="fill:#444443;" cx="301.7" cy="220" r="3.3"/>
<path style="fill:#636363;" d="M298.7,220c0-1.7,1.3-3,3-3S298.7,221.7,298.7,220z"/>
<circle style="fill:#383838;" cx="291" cy="230.7" r="4.3"/>
<circle style="fill:#444443;" cx="291" cy="230.7" r="3.3"/>
<path style="fill:#636363;" d="M288,230.7c0-1.7,1.3-3,3-3S288,232.4,288,230.7z"/>
<circle style="fill:#383838;" cx="301.7" cy="230.7" r="4.3"/>
<circle style="fill:#444443;" cx="301.7" cy="230.7" r="3.3"/>
<path style="fill:#636363;" d="M298.7,230.7c0-1.7,1.3-3,3-3S298.7,232.4,298.7,230.7z"/>
<path style="fill:#515150;" d="M304.6,201.9h-16.7c-0.6,0-1-0.5-1-1s0.5-1,1-1h16.7c0.6,0,1,0.5,1,1S305.2,201.9,304.6,201.9z"/>
<path style="fill:#636363;" d="M327.4,232.8c0,0.8-0.6,1.4-1.4,1.4h-7.7c-0.8,0-1.4-0.6-1.4-1.4l0,0c0-0.8,0.6-1.4,1.4-1.4h7.7
	C326.7,231.4,327.4,232,327.4,232.8L327.4,232.8z"/>
<path style="fill:#7C7C7C;" d="M317.1,232.8L317.1,232.8c0-0.6,0.5-1.1,1.1-1.1h1.3C320.2,231.7,317.1,233.5,317.1,232.8z"/>
<path style="fill:#636363;" d="M341.1,232.8c0,0.8-0.6,1.4-1.4,1.4H332c-0.8,0-1.4-0.6-1.4-1.4l0,0c0-0.8,0.6-1.4,1.4-1.4h7.7
	C340.4,231.4,341.1,232,341.1,232.8L341.1,232.8z"/>
<path style="fill:#7C7C7C;" d="M330.8,232.8L330.8,232.8c0-0.6,0.5-1.1,1.1-1.1h1.3C333.9,231.7,330.8,233.5,330.8,232.8z"/>
<path style="fill:#636363;" d="M327.4,227.8c0,0.8-0.6,1.4-1.4,1.4h-7.7c-0.8,0-1.4-0.6-1.4-1.4l0,0c0-0.8,0.6-1.4,1.4-1.4h7.7
	C326.7,226.4,327.4,227,327.4,227.8L327.4,227.8z"/>
<path style="fill:#7C7C7C;" d="M317.1,227.8L317.1,227.8c0-0.6,0.5-1.1,1.1-1.1h1.3C320.2,226.7,317.1,228.5,317.1,227.8z"/>
<path style="fill:#636363;" d="M341.1,227.8c0,0.8-0.6,1.4-1.4,1.4H332c-0.8,0-1.4-0.6-1.4-1.4l0,0c0-0.8,0.6-1.4,1.4-1.4h7.7
	C340.4,226.4,341.1,227,341.1,227.8L341.1,227.8z"/>
<path style="fill:#7C7C7C;" d="M330.8,227.8L330.8,227.8c0-0.6,0.5-1.1,1.1-1.1h1.3C333.9,226.7,330.8,228.5,330.8,227.8z"/>
<path style="fill:#636363;" d="M327.4,222.9c0,0.8-0.6,1.4-1.4,1.4h-7.7c-0.8,0-1.4-0.6-1.4-1.4l0,0c0-0.8,0.6-1.4,1.4-1.4h7.7
	C326.7,221.5,327.4,222.1,327.4,222.9L327.4,222.9z"/>
<path style="fill:#7C7C7C;" d="M317.1,222.9L317.1,222.9c0-0.6,0.5-1.1,1.1-1.1h1.3C320.2,221.8,317.1,223.5,317.1,222.9z"/>
<path style="fill:#636363;" d="M341.1,222.9c0,0.8-0.6,1.4-1.4,1.4H332c-0.8,0-1.4-0.6-1.4-1.4l0,0c0-0.8,0.6-1.4,1.4-1.4h7.7
	C340.4,221.5,341.1,222.1,341.1,222.9L341.1,222.9z"/>
<path style="fill:#7C7C7C;" d="M330.8,222.9L330.8,222.9c0-0.6,0.5-1.1,1.1-1.1h1.3C333.9,221.8,330.8,223.5,330.8,222.9z"/>
<path style="fill:#636363;" d="M327.4,217.9c0,0.8-0.6,1.4-1.4,1.4h-7.7c-0.8,0-1.4-0.6-1.4-1.4l0,0c0-0.8,0.6-1.4,1.4-1.4h7.7
	C326.7,216.5,327.4,217.1,327.4,217.9L327.4,217.9z"/>
<path style="fill:#7C7C7C;" d="M317.1,217.9L317.1,217.9c0-0.6,0.5-1.1,1.1-1.1h1.3C320.2,216.7,317.1,218.5,317.1,217.9z"/>
<path style="fill:#636363;" d="M341.1,217.9c0,0.8-0.6,1.4-1.4,1.4H332c-0.8,0-1.4-0.6-1.4-1.4l0,0c0-0.8,0.6-1.4,1.4-1.4h7.7
	C340.4,216.5,341.1,217.1,341.1,217.9L341.1,217.9z"/>
<path style="fill:#7C7C7C;" d="M330.8,217.9L330.8,217.9c0-0.6,0.5-1.1,1.1-1.1h1.3C333.9,216.7,330.8,218.5,330.8,217.9z"/>
<path style="fill:#636363;" d="M327.4,213c0,0.8-0.6,1.4-1.4,1.4h-7.7c-0.8,0-1.4-0.6-1.4-1.4l0,0c0-0.8,0.6-1.4,1.4-1.4h7.7
	C326.7,211.5,327.4,212.2,327.4,213L327.4,213z"/>
<path style="fill:#7C7C7C;" d="M317.1,213L317.1,213c0-0.6,0.5-1.1,1.1-1.1h1.3C320.2,211.8,317.1,213.6,317.1,213z"/>
<path style="fill:#636363;" d="M341.1,213c0,0.8-0.6,1.4-1.4,1.4H332c-0.8,0-1.4-0.6-1.4-1.4l0,0c0-0.8,0.6-1.4,1.4-1.4h7.7
	C340.4,211.5,341.1,212.2,341.1,213L341.1,213z"/>
<path style="fill:#7C7C7C;" d="M330.8,213L330.8,213c0-0.6,0.5-1.1,1.1-1.1h1.3C333.9,211.8,330.8,213.6,330.8,213z"/>
<path style="fill:#636363;" d="M327.4,208.1c0,0.8-0.6,1.4-1.4,1.4h-7.7c-0.8,0-1.4-0.6-1.4-1.4l0,0c0-0.8,0.6-1.4,1.4-1.4h7.7
	C326.7,206.6,327.4,207.3,327.4,208.1L327.4,208.1z"/>
<path style="fill:#7C7C7C;" d="M317.1,208.1L317.1,208.1c0-0.6,0.5-1.1,1.1-1.1h1.3C320.2,206.9,317.1,208.7,317.1,208.1z"/>
<path style="fill:#636363;" d="M341.1,208.1c0,0.8-0.6,1.4-1.4,1.4H332c-0.8,0-1.4-0.6-1.4-1.4l0,0c0-0.8,0.6-1.4,1.4-1.4h7.7
	C340.4,206.6,341.1,207.3,341.1,208.1L341.1,208.1z"/>
<path style="fill:#7C7C7C;" d="M330.8,208.1L330.8,208.1c0-0.6,0.5-1.1,1.1-1.1h1.3C333.9,206.9,330.8,208.7,330.8,208.1z"/>
<path style="fill:#515150;" d="M340.9,201.9h-24c-0.6,0-1-0.5-1-1s0.5-1,1-1h24c0.6,0,1,0.5,1,1S341.5,201.9,340.9,201.9z"/>
<path style="fill:#383838;" d="M365.5,235.3c-1,0-1.8-0.8-1.8-1.8v-26.8c0-1,0.8-1.8,1.8-1.8s1.8,0.8,1.8,1.8v26.8
	C367.3,234.5,366.5,235.3,365.5,235.3z"/>
<path style="fill:#232323;" d="M365.5,233.9c-0.2,0-0.4-0.2-0.4-0.4v-26.8c0-0.2,0.2-0.4,0.4-0.4s0.4,0.2,0.4,0.4v26.8
	C365.9,233.7,365.7,233.9,365.5,233.9z"/>
<path style="fill:#636363;" d="M368.7,217.7c0,0.7-0.6,1.3-1.3,1.3h-3.8c-0.7,0-1.3-0.6-1.3-1.3v-2.2c0-0.7,0.6-1.3,1.3-1.3h3.8
	c0.7,0,1.3,0.6,1.3,1.3V217.7z"/>
<path style="fill:#828282;" d="M363,216.5v-0.8c0-0.6,0.4-1,1-1h0.9L363,216.5z"/>
<path style="fill:#383838;" d="M357.5,235.3c-1,0-1.8-0.8-1.8-1.8v-26.8c0-1,0.8-1.8,1.8-1.8s1.8,0.8,1.8,1.8v26.8
	C359.3,234.5,358.5,235.3,357.5,235.3z"/>
<path style="fill:#232323;" d="M357.5,233.9c-0.2,0-0.4-0.2-0.4-0.4v-26.8c0-0.2,0.2-0.4,0.4-0.4s0.4,0.2,0.4,0.4v26.8
	C357.9,233.7,357.7,233.9,357.5,233.9z"/>
<path style="fill:#636363;" d="M360.7,210.4c0,0.7-0.6,1.3-1.3,1.3h-3.8c-0.7,0-1.3-0.6-1.3-1.3v-2.2c0-0.7,0.6-1.3,1.3-1.3h3.8
	c0.7,0,1.3,0.6,1.3,1.3V210.4z"/>
<path style="fill:#828282;" d="M355,209.3v-0.8c0-0.6,0.4-1,1-1h0.9L355,209.3z"/>
<path style="fill:#515150;" d="M368.4,201.9h-14.6c-0.6,0-1-0.5-1-1s0.5-1,1-1h14.6c0.6,0,1,0.5,1,1S368.9,201.9,368.4,201.9z"/>
<circle style="fill:#383838;" cx="385.5" cy="209.3" r="4.3"/>
<circle style="fill:#636363;" cx="385.5" cy="209.3" r="3.3"/>
<path style="fill:#7C7C7C;" d="M382.5,209.3c0-1.7,1.3-3,3-3S382.5,211,382.5,209.3z"/>
<circle style="fill:#383838;" cx="385.5" cy="220" r="4.3"/>
<circle style="fill:#636363;" cx="385.5" cy="220" r="3.3"/>
<path style="fill:#7C7C7C;" d="M382.5,220c0-1.7,1.3-3,3-3S382.5,221.7,382.5,220z"/>
<circle style="fill:#383838;" cx="385.5" cy="230.7" r="4.3"/>
<circle style="fill:#636363;" cx="385.5" cy="230.7" r="3.3"/>
<path style="fill:#7C7C7C;" d="M382.5,230.7c0-1.7,1.3-3,3-3S382.5,232.4,382.5,230.7z"/>
<path style="fill:#515150;" d="M389.5,201.9h-8.9c-0.6,0-1-0.5-1-1s0.5-1,1-1h8.9c0.6,0,1,0.5,1,1S390.1,201.9,389.5,201.9z"/>
<circle style="fill:#383838;" cx="198.4" cy="209.3" r="4.3"/>
<circle style="fill:#444443;" cx="198.4" cy="209.3" r="3.3"/>
<path style="fill:#636363;" d="M195.4,209.3c0-1.7,1.3-3,3-3S195.4,211,195.4,209.3z"/>
<circle style="fill:#383838;" cx="209.1" cy="209.3" r="4.3"/>
<circle style="fill:#444443;" cx="209.1" cy="209.3" r="3.3"/>
<path style="fill:#636363;" d="M206.1,209.3c0-1.7,1.3-3,3-3S206.1,211,206.1,209.3z"/>
<circle style="fill:#383838;" cx="198.4" cy="220" r="4.3"/>
<circle style="fill:#444443;" cx="198.4" cy="220" r="3.3"/>
<path style="fill:#636363;" d="M195.4,220c0-1.7,1.3-3,3-3S195.4,221.7,195.4,220z"/>
<circle style="fill:#383838;" cx="209.1" cy="220" r="4.3"/>
<circle style="fill:#444443;" cx="209.1" cy="220" r="3.3"/>
<path style="fill:#636363;" d="M206.1,220c0-1.7,1.3-3,3-3S206.1,221.7,206.1,220z"/>
<circle style="fill:#383838;" cx="198.4" cy="230.7" r="4.3"/>
<circle style="fill:#444443;" cx="198.4" cy="230.7" r="3.3"/>
<path style="fill:#636363;" d="M195.4,230.7c0-1.7,1.3-3,3-3S195.4,232.4,195.4,230.7z"/>
<circle style="fill:#383838;" cx="209.1" cy="230.7" r="4.3"/>
<circle style="fill:#444443;" cx="209.1" cy="230.7" r="3.3"/>
<path style="fill:#636363;" d="M206.1,230.7c0-1.7,1.3-3,3-3S206.1,232.4,206.1,230.7z"/>
<path style="fill:#515150;" d="M212.5,201.9h-16.7c-0.6,0-1-0.5-1-1s0.5-1,1-1h16.7c0.6,0,1,0.5,1,1S213,201.9,212.5,201.9z"/>
<path style="fill:#383838;" d="M180.9,235.3c-1,0-1.8-0.8-1.8-1.8v-26.8c0-1,0.8-1.8,1.8-1.8s1.8,0.8,1.8,1.8v26.8
	C182.7,234.5,181.9,235.3,180.9,235.3z"/>
<path style="fill:#232323;" d="M180.9,233.9c-0.2,0-0.4-0.2-0.4-0.4v-26.8c0-0.2,0.2-0.4,0.4-0.4s0.4,0.2,0.4,0.4v26.8
	C181.3,233.7,181.1,233.9,180.9,233.9z"/>
<path style="fill:#636363;" d="M184.1,217.7c0,0.7-0.6,1.3-1.3,1.3H179c-0.7,0-1.3-0.6-1.3-1.3v-2.2c0-0.7,0.6-1.3,1.3-1.3h3.8
	c0.7,0,1.3,0.6,1.3,1.3V217.7z"/>
<path style="fill:#828282;" d="M178.4,216.5v-0.8c0-0.6,0.4-1,1-1h0.9L178.4,216.5z"/>
<path style="fill:#383838;" d="M172.9,235.3c-1,0-1.8-0.8-1.8-1.8v-26.8c0-1,0.8-1.8,1.8-1.8s1.8,0.8,1.8,1.8v26.8
	C174.7,234.5,173.9,235.3,172.9,235.3z"/>
<path style="fill:#232323;" d="M172.9,233.9c-0.2,0-0.4-0.2-0.4-0.4v-26.8c0-0.2,0.2-0.4,0.4-0.4s0.4,0.2,0.4,0.4v26.8
	C173.3,233.7,173.1,233.9,172.9,233.9z"/>
<path style="fill:#636363;" d="M176.1,210.4c0,0.7-0.6,1.3-1.3,1.3H171c-0.7,0-1.3-0.6-1.3-1.3v-2.2c0-0.7,0.6-1.3,1.3-1.3h3.8
	c0.7,0,1.3,0.6,1.3,1.3V210.4z"/>
<path style="fill:#828282;" d="M170.4,209.3v-0.8c0-0.6,0.4-1,1-1h0.9L170.4,209.3z"/>
<path style="fill:#383838;" d="M164.9,235.3c-1,0-1.8-0.8-1.8-1.8v-26.8c0-1,0.8-1.8,1.8-1.8s1.8,0.8,1.8,1.8v26.8
	C166.7,234.5,165.9,235.3,164.9,235.3z"/>
<path style="fill:#232323;" d="M164.9,233.9c-0.2,0-0.4-0.2-0.4-0.4v-26.8c0-0.2,0.2-0.4,0.4-0.4s0.4,0.2,0.4,0.4v26.8
	C165.3,233.7,165.1,233.9,164.9,233.9z"/>
<path style="fill:#636363;" d="M168.1,232c0,0.7-0.6,1.3-1.3,1.3H163c-0.7,0-1.3-0.6-1.3-1.3v-2.2c0-0.7,0.6-1.3,1.3-1.3h3.8
	c0.7,0,1.3,0.6,1.3,1.3V232z"/>
<path style="fill:#828282;" d="M162.4,230.8v-0.7c0-0.6,0.4-1,1-1h0.9L162.4,230.8z"/>
<path style="fill:#383838;" d="M156.9,235.3c-1,0-1.8-0.8-1.8-1.8v-26.8c0-1,0.8-1.8,1.8-1.8s1.8,0.8,1.8,1.8v26.8
	C158.7,234.5,157.9,235.3,156.9,235.3z"/>
<path style="fill:#232323;" d="M156.9,233.9c-0.2,0-0.4-0.2-0.4-0.4v-26.8c0-0.2,0.2-0.4,0.4-0.4s0.4,0.2,0.4,0.4v26.8
	C157.3,233.7,157.1,233.9,156.9,233.9z"/>
<path style="fill:#636363;" d="M160,221c0,0.7-0.6,1.3-1.3,1.3h-3.8c-0.7,0-1.3-0.6-1.3-1.3v-2.2c0-0.7,0.6-1.3,1.3-1.3h3.8
	c0.7,0,1.3,0.6,1.3,1.3V221z"/>
<path style="fill:#828282;" d="M154.4,219.9v-0.8c0-0.6,0.4-1,1-1h0.9L154.4,219.9z"/>
<path style="fill:#383838;" d="M148.8,235.3c-1,0-1.8-0.8-1.8-1.8v-26.8c0-1,0.8-1.8,1.8-1.8s1.8,0.8,1.8,1.8v26.8
	C150.6,234.5,149.8,235.3,148.8,235.3z"/>
<path style="fill:#232323;" d="M148.8,233.9c-0.2,0-0.4-0.2-0.4-0.4v-26.8c0-0.2,0.2-0.4,0.4-0.4s0.4,0.2,0.4,0.4v26.8
	C149.2,233.7,149,233.9,148.8,233.9z"/>
<path style="fill:#636363;" d="M152,228c0,0.7-0.6,1.3-1.3,1.3h-3.8c-0.7,0-1.3-0.6-1.3-1.3v-2.2c0-0.7,0.6-1.3,1.3-1.3h3.8
	c0.7,0,1.3,0.6,1.3,1.3V228z"/>
<path style="fill:#828282;" d="M146.3,226.8V226c0-0.6,0.4-1,1-1h0.9L146.3,226.8z"/>
<path style="fill:#383838;" d="M140.8,235.3c-1,0-1.8-0.8-1.8-1.8v-26.8c0-1,0.8-1.8,1.8-1.8s1.8,0.8,1.8,1.8v26.8
	C142.6,234.5,141.8,235.3,140.8,235.3z"/>
<path style="fill:#232323;" d="M140.8,233.9c-0.2,0-0.4-0.2-0.4-0.4v-26.8c0-0.2,0.2-0.4,0.4-0.4s0.4,0.2,0.4,0.4v26.8
	C141.2,233.7,141,233.9,140.8,233.9z"/>
<path style="fill:#636363;" d="M143.9,213.7c0,0.7-0.6,1.3-1.3,1.3h-3.8c-0.7,0-1.3-0.6-1.3-1.3v-2.2c0-0.7,0.6-1.3,1.3-1.3h3.8
	c0.7,0,1.3,0.6,1.3,1.3V213.7z"/>
<path style="fill:#828282;" d="M138.3,212.6v-0.8c0-0.6,0.4-1,1-1h0.9L138.3,212.6z"/>
<g>
	<path style="fill:#515150;" d="M183.2,201.9H138c-0.6,0-1-0.5-1-1s0.5-1,1-1h45.2c0.6,0,1,0.5,1,1S183.8,201.9,183.2,201.9z"/>
	<path style="fill:#515150;" d="M125.7,201.9h-14.6c-0.6,0-1-0.5-1-1s0.5-1,1-1h14.6c0.6,0,1,0.5,1,1S126.3,201.9,125.7,201.9z"/>
</g>
<circle style="fill:#232323;" cx="117.6" cy="211.5" r="5.5"/>
<circle style="fill:#444443;" cx="117.6" cy="211.5" r="4.4"/>
<path style="fill:#636363;" d="M111.1,211.5c0-0.6,0.5-1.1,1.1-1.1h11c0.6,0,1.1,0.5,1.1,1.1s-0.5,1.1-1.1,1.1h-11
	C111.6,212.6,111.1,212.1,111.1,211.5z"/>
<circle style="fill:#232323;" cx="117.6" cy="228.5" r="5.5"/>
<circle style="fill:#444443;" cx="117.6" cy="228.5" r="4.4"/>
<path style="fill:#636363;" d="M113,233.1c-0.4-0.4-0.4-1.1,0-1.5l7.8-7.8c0.4-0.4,1.1-0.4,1.5,0s0.4,1.1,0,1.5l-7.8,7.8
	C114.1,233.6,113.4,233.6,113,233.1z"/>
<rect x="46.5" y="193.8" style="fill:#383838;" width="52.7" height="44.1"/>
<g>
	<rect x="53.1" y="199.1" style="fill:#2D2D2D;" width="39.7" height="1"/>
	<rect x="53.1" y="215.3" style="fill:#2D2D2D;" width="39.7" height="1"/>
	<rect x="53.1" y="231.5" style="fill:#2D2D2D;" width="39.7" height="1"/>
	<rect x="53.1" y="207.1" style="fill:#2D2D2D;" width="39.7" height="1"/>
	<rect x="53.1" y="223.3" style="fill:#2D2D2D;" width="39.7" height="1"/>
</g>
<rect x="400.4" y="193.8" style="fill:#383838;" width="52.7" height="44.1"/>
<g>
	<rect x="407.1" y="199.1" style="fill:#2D2D2D;" width="39.7" height="1"/>
	<rect x="407.1" y="215.3" style="fill:#2D2D2D;" width="39.7" height="1"/>
	<rect x="407.1" y="231.5" style="fill:#2D2D2D;" width="39.7" height="1"/>
	<rect x="407.1" y="207.1" style="fill:#2D2D2D;" width="39.7" height="1"/>
	<rect x="407.1" y="223.3" style="fill:#2D2D2D;" width="39.7" height="1"/>
</g>
</svg>