<?xml version="1.0" encoding="iso-8859-1"?>
<!-- Uploaded to: SVG Repo, www.svgrepo.com, Generator: SVG Repo Mixer Tools -->
<svg version="1.1" id="Capa_1" xmlns="http://www.w3.org/2000/svg" xmlns:xlink="http://www.w3.org/1999/xlink" 
	 viewBox="0 0 470 470" xml:space="preserve">
<g>
	<rect x="148.008" y="370" style="fill:#D19884;" width="173.984" height="35"/>
	<path style="fill:#C4755B;" d="M351.992,320H329.49v15c4.145,0,7.502,3.358,7.502,7.5V455h15V320z"/>
	<path style="fill:#C4755B;" d="M118.008,320v135h15V342.5c0-4.142,3.358-7.5,7.5-7.5c0.002,0,0.002-15,0.002-15H118.008z"/>
	<path style="fill:#D19884;" d="M399.987,236.373h-52.489C320.89,269.071,280.346,290,235,290s-85.89-20.929-112.498-53.627H70.013
		l10.811,45.206C83.861,294.274,97.454,305,110.508,305h248.984c13.055,0,26.647-10.726,29.684-23.421L399.987,236.373z"/>
	<path style="fill:#DE5800;" d="M235,275c71.683,0,130-58.318,130-130S306.683,15,235,15c-71.682,0-130,58.318-130,130
		S163.318,275,235,275z M235,30c57.008,0,105.964,42.543,113.876,98.958c0.575,4.102-2.284,7.894-6.386,8.469
		c-0.086,0.012-0.172,0.014-0.258,0.023c0.173,2.495,0.268,5.011,0.268,7.549c0,2.539-0.095,5.055-0.268,7.55
		c0.086,0.009,0.172,0.011,0.258,0.023c4.102,0.575,6.961,4.367,6.386,8.469c-7.085,50.519-47.315,90.75-97.834,97.834
		c-0.354,0.05-0.705,0.074-1.052,0.074c-3.68,0-6.892-2.71-7.418-6.459c-0.012-0.086-0.014-0.172-0.023-0.258
		c-2.495,0.173-5.011,0.268-7.549,0.268c-2.539,0-5.055-0.095-7.55-0.268c-0.009,0.086-0.011,0.171-0.023,0.258
		c-0.525,3.749-3.738,6.459-7.418,6.459c-0.347,0-0.698-0.024-1.051-0.074C162.543,250.964,120,202.008,120,145
		C120,81.589,171.589,30,235,30z"/>
	<path style="fill:#FFFFFF;" d="M334.021,131.042C327.143,81.99,284.572,45,235,45c-55.14,0-100,44.86-100,100
		c0,49.572,36.99,92.142,86.042,99.021c4.016,0.563,6.831,4.209,6.409,8.211c2.495,0.173,5.011,0.268,7.55,0.268
		c2.539,0,5.055-0.095,7.549-0.268c-0.423-4.002,2.393-7.648,6.409-8.211c43.924-6.16,78.903-41.139,85.062-85.063
		c0.564-4.016,4.203-6.833,8.212-6.409c0.173-2.495,0.268-5.011,0.268-7.55c0-2.539-0.095-5.055-0.268-7.549
		C338.228,137.879,334.585,135.058,334.021,131.042z"/>
	<path style="fill:#1C1918;" d="M415.38,224.227c-1.422-1.802-3.592-2.854-5.888-2.854h-51.29C372.01,199.179,380,173.007,380,145
		C380,65.047,314.953,0,235,0S90,65.047,90,145c0,28.007,7.99,54.179,21.798,76.373h-51.29c-2.296,0-4.465,1.052-5.888,2.854
		c-1.422,1.803-1.941,4.157-1.407,6.391l13.022,54.45c4.023,16.821,19.679,30.901,36.772,34.2V455h-12.5c-4.142,0-7.5,3.358-7.5,7.5
		s3.358,7.5,7.5,7.5h70c4.142,0,7.5-3.358,7.5-7.5s-3.358-7.5-7.5-7.5h-12.5v-35h173.984v35h-12.5c-4.143,0-7.5,3.358-7.5,7.5
		s3.357,7.5,7.5,7.5h70c4.143,0,7.5-3.358,7.5-7.5s-3.357-7.5-7.5-7.5h-12.5V319.268c17.094-3.299,32.75-17.379,36.771-34.2
		l13.022-54.45C417.32,228.384,416.803,226.029,415.38,224.227z M148.008,370h173.984v35H148.008V370z M336.992,342.5
		c0-4.142-3.357-7.5-7.5-7.5c-4.144,0.001-7.5,3.359-7.5,7.5V355H148.008v-12.5c0-4.141-3.357-7.499-7.498-7.5
		c-4.144,0-7.502,3.358-7.502,7.5V455h-15V320h233.984v135h-15V342.5z M359.492,305H110.508c-13.054,0-26.647-10.726-29.684-23.422
		l-10.811-45.206h52.488C149.111,269.071,189.655,290,235,290s85.89-20.929,112.499-53.627h52.489l-10.812,45.206
		C386.14,294.274,372.547,305,359.492,305z M235,15c71.683,0,130,58.318,130,130s-58.317,130-130,130c-71.682,0-130-58.318-130-130
		S163.318,15,235,15z"/>
	<path style="fill:#1C1918;" d="M334.021,158.958c-6.159,43.923-41.139,78.902-85.062,85.063c-4.015,0.563-6.831,4.209-6.409,8.211
		c0.009,0.086,0.011,0.171,0.023,0.258c0.526,3.749,3.738,6.459,7.418,6.459c0.347,0,0.698-0.024,1.052-0.074
		c50.519-7.084,90.749-47.315,97.834-97.834c0.575-4.102-2.284-7.894-6.386-8.469c-0.086-0.012-0.172-0.014-0.258-0.023
		C338.224,152.125,334.585,154.942,334.021,158.958z"/>
	<path style="fill:#1C1918;" d="M218.959,258.875c0.353,0.05,0.704,0.074,1.051,0.074c3.68,0,6.893-2.71,7.418-6.459
		c0.012-0.086,0.014-0.172,0.023-0.258c0.423-4.002-2.393-7.648-6.409-8.211C171.99,237.142,135,194.572,135,145
		c0-55.14,44.86-100,100-100c49.572,0,92.143,36.99,99.02,86.042c0.564,4.016,4.207,6.837,8.212,6.409
		c0.086-0.009,0.172-0.011,0.258-0.023c4.102-0.575,6.961-4.367,6.386-8.469C340.964,72.543,292.008,30,235,30
		c-63.411,0-115,51.589-115,115C120,202.008,162.543,250.964,218.959,258.875z"/>
</g>
</svg>