<?xml version="1.0" encoding="iso-8859-1"?>
<!-- Uploaded to: SVG Repo, www.svgrepo.com, Generator: SVG Repo Mixer Tools -->
<svg height="800px" width="800px" version="1.1" id="Layer_1" xmlns="http://www.w3.org/2000/svg" xmlns:xlink="http://www.w3.org/1999/xlink" 
	 viewBox="0 0 512 512" xml:space="preserve">
<circle style="fill:#D8D7DA;" cx="256" cy="76.394" r="50.926"/>
<path style="fill:#C6C5CA;" d="M212.324,49.956c-4.602,7.655-7.253,16.617-7.253,26.199c0,13.374,5.163,25.538,13.595,34.624
	c12.007-2.752,24.502-4.209,37.331-4.209c12.829,0,25.324,1.458,37.331,4.209c8.432-9.087,13.595-21.251,13.595-34.624
	c0-9.583-2.651-18.545-7.253-26.199c-14.14-2.756-28.739-4.217-43.673-4.217C241.063,45.74,226.464,47.201,212.324,49.956z"/>
<circle style="fill:#D8D7DA;" cx="116.371" cy="134.225" r="50.926"/>
<path style="fill:#C6C5CA;" d="M67.031,146.729c2.169,8.63,6.621,16.804,13.37,23.553c9.478,9.478,21.762,14.427,34.177,14.872
	c13.393-21.272,31.445-39.324,52.716-52.716c-0.444-12.416-5.395-24.7-14.872-34.177c-6.749-6.749-14.923-11.201-23.553-13.37
	C104.506,101.337,83.478,122.364,67.031,146.729z"/>
<circle style="fill:#D8D7DA;" cx="58.53" cy="273.864" r="50.926"/>
<path style="fill:#C6C5CA;" d="M88.713,273.859c0-12.829,1.458-25.324,4.21-37.331c-9.087-8.432-21.251-13.595-34.625-13.595
	c-9.583,0-18.545,2.651-26.199,7.253c-2.756,14.14-4.217,28.739-4.217,43.673c0,14.934,1.46,29.533,4.217,43.673
	c7.656,4.602,16.617,7.253,26.199,7.253c13.374,0,25.538-5.163,34.625-13.595C90.171,299.184,88.713,286.688,88.713,273.859z"/>
<circle style="fill:#D8D7DA;" cx="116.371" cy="413.493" r="50.926"/>
<path style="fill:#C6C5CA;" d="M114.579,362.564c-12.416,0.444-24.7,5.395-34.177,14.872c-6.749,6.749-11.201,14.923-13.37,23.553
	c16.446,24.364,37.474,45.392,61.838,61.837c8.63-2.169,16.804-6.621,23.553-13.37c9.478-9.478,14.428-21.763,14.872-34.177
	C146.023,401.887,127.972,383.835,114.579,362.564z"/>
<circle style="fill:#D8D7DA;" cx="395.629" cy="413.493" r="50.926"/>
<path style="fill:#C6C5CA;" d="M444.969,400.989c-2.169-8.63-6.621-16.804-13.37-23.553c-9.478-9.478-21.762-14.428-34.177-14.872
	c-13.393,21.272-31.445,39.324-52.716,52.716c0.444,12.416,5.395,24.7,14.872,34.177c6.749,6.749,14.923,11.201,23.553,13.37
	C407.494,446.381,428.522,425.353,444.969,400.989z"/>
<circle style="fill:#D8D7DA;" cx="453.47" cy="273.864" r="50.926"/>
<path style="fill:#C6C5CA;" d="M419.078,236.527c2.752,12.007,4.21,24.502,4.21,37.331c0,12.829-1.458,25.324-4.21,37.331
	c9.087,8.432,21.251,13.595,34.625,13.595c9.583,0,18.545-2.651,26.199-7.253c2.756-14.14,4.217-28.739,4.217-43.673
	c0-14.935-1.46-29.533-4.217-43.673c-7.656-4.602-16.617-7.253-26.199-7.253C440.328,222.932,428.165,228.095,419.078,236.527z"/>
<circle style="fill:#D8D7DA;" cx="395.629" cy="134.225" r="50.926"/>
<path style="fill:#C6C5CA;" d="M397.422,185.154c12.416-0.444,24.7-5.395,34.177-14.872c6.749-6.749,11.201-14.923,13.37-23.553
	c-16.446-24.364-37.474-45.392-61.838-61.838c-8.63,2.169-16.804,6.621-23.553,13.37c-9.478,9.478-14.428,21.763-14.872,34.177
	C365.977,145.83,384.028,163.882,397.422,185.154z"/>
<g>
	<path style="fill:#B39A7C;" d="M116.368,164.877c-8.187,0-15.883-3.189-21.672-8.977c-11.95-11.95-11.95-31.394,0-43.345
		c5.789-5.789,13.485-8.977,21.672-8.977s15.883,3.188,21.672,8.977c11.95,11.95,11.95,31.394,0,43.345
		C132.251,161.689,124.555,164.877,116.368,164.877z"/>
	<path style="fill:#B39A7C;" d="M256,107.039c-16.9,0-30.65-13.75-30.65-30.649c0-16.9,13.75-30.649,30.65-30.649
		c16.9,0,30.649,13.75,30.649,30.649C286.649,93.29,272.9,107.039,256,107.039z"/>
	<path style="fill:#B39A7C;" d="M58.53,304.509c-16.9,0-30.649-13.75-30.649-30.649c0-16.9,13.749-30.65,30.649-30.65
		s30.649,13.75,30.649,30.65C89.18,290.759,75.43,304.509,58.53,304.509z"/>
	<path style="fill:#B39A7C;" d="M116.368,444.141c-8.187,0-15.883-3.189-21.672-8.977c-11.95-11.95-11.95-31.394,0-43.345
		c5.789-5.789,13.485-8.977,21.672-8.977s15.883,3.188,21.672,8.977c11.95,11.95,11.95,31.394,0,43.345
		C132.251,440.952,124.555,444.14,116.368,444.141z"/>
	<path style="fill:#B39A7C;" d="M395.632,444.141c-8.187,0-15.883-3.189-21.672-8.977c-11.95-11.95-11.95-31.394,0-43.345
		c5.789-5.789,13.485-8.977,21.672-8.977c8.187,0,15.884,3.188,21.672,8.977c11.95,11.95,11.95,31.394,0,43.345
		C411.515,440.952,403.819,444.14,395.632,444.141z"/>
	<path style="fill:#B39A7C;" d="M453.469,304.509c-16.9,0-30.649-13.75-30.649-30.649c0-16.9,13.749-30.65,30.649-30.65
		c16.9,0,30.65,13.75,30.65,30.65C484.119,290.759,470.369,304.509,453.469,304.509z"/>
	<path style="fill:#B39A7C;" d="M395.632,164.877c-8.187,0-15.883-3.189-21.672-8.977c-11.95-11.95-11.95-31.394,0-43.345
		c5.789-5.789,13.485-8.977,21.672-8.977c8.187,0,15.884,3.188,21.672,8.977c11.95,11.95,11.95,31.394,0,43.345
		C411.515,161.689,403.819,164.877,395.632,164.877z"/>
</g>
<path style="fill:#FFC477;" d="M256,486.536c-117.271,0-212.678-95.406-212.678-212.677S138.729,61.182,256,61.182
	s212.677,95.406,212.677,212.678S373.27,486.536,256,486.536z M256,91.598c-100.5,0-182.262,81.762-182.262,182.262
	S155.5,456.121,256,456.121s182.261-81.762,182.261-182.261S356.499,91.598,256,91.598z"/>
<path style="fill:#FFB655;" d="M256,456.121c-100.5,0-182.262-81.762-182.262-182.261c0-50.555,20.695-96.362,54.052-129.412
	c-41.091,33.446-67.388,84.403-67.388,141.392c0,100.5,81.762,182.262,182.262,182.262c49.945,0,95.256-20.199,128.21-52.85
	C339.502,440.787,299.51,456.121,256,456.121z"/>
<path d="M445.866,273.859c0-104.692-85.173-189.866-189.866-189.866S66.134,169.166,66.134,273.859S151.308,463.725,256,463.725
	S445.866,378.551,445.866,273.859z M173.183,427.599c4.955-19.9-0.777-40.845-15.428-55.496
	c-14.684-14.685-35.589-20.39-55.494-15.425c-5.575-10.308-10.136-21.239-13.565-32.655c17.585-10.567,28.365-29.46,28.365-50.165
	c0-20.798-10.756-39.608-28.365-50.166c3.429-11.415,7.989-22.345,13.563-32.652c4.719,1.177,9.492,1.758,14.227,1.758
	c15.239,0,30.064-5.981,41.268-17.185c14.628-14.628,20.369-35.597,15.423-55.493c10.309-5.576,21.242-10.138,32.661-13.566
	c10.568,17.579,29.478,28.366,50.162,28.366c20.574,0,39.596-10.815,50.165-28.365c11.417,3.43,22.349,7.99,32.657,13.565
	c-4.873,19.73,0.859,40.929,15.423,55.493c11.128,11.128,26.215,17.113,41.536,17.113c4.665,0,9.35-0.566,13.952-1.7
	c5.579,10.314,10.143,21.252,13.574,32.676c-17.392,10.505-28.368,29.627-28.368,50.156c0,20.707,10.778,39.598,28.365,50.165
	c-3.43,11.419-7.992,22.353-13.569,32.662c-19.723-4.861-40.962,0.89-55.491,15.419c-14.72,14.72-20.403,35.587-15.424,55.494
	c-24.66,13.338-52.871,20.919-82.82,20.919C226.052,448.517,197.843,440.936,173.183,427.599z M81.342,273.859
	c0-11.798,1.183-23.325,3.424-34.474c10.691,8.099,17.087,20.691,17.087,34.474c0,13.719-6.411,26.347-17.09,34.461
	C82.524,297.175,81.342,285.653,81.342,273.859z M430.658,273.859c0,11.794-1.182,23.317-3.422,34.461
	c-10.68-8.113-17.09-20.741-17.09-34.461c0-13.592,6.505-26.347,17.091-34.456C429.476,250.546,430.658,262.066,430.658,273.859z
	 M352.685,419.239c-1.812-13.259,2.57-26.64,12.312-36.382c9.606-9.606,23.179-14.028,36.373-12.299
	C388.519,389.817,371.945,406.389,352.685,419.239z M401.368,177.156c-13.193,1.726-26.773-2.697-36.37-12.294
	c-9.63-9.631-14.037-23.18-12.299-36.373C371.952,141.337,388.519,157.903,401.368,177.156z M290.465,102.624
	c-8.129,10.665-20.834,17.089-34.465,17.089c-13.704,0-26.343-6.413-34.46-17.09c11.144-2.239,22.666-3.421,34.46-3.421
	C267.795,99.202,279.319,100.384,290.465,102.624z M159.296,128.49c1.784,13.262-2.616,26.692-12.294,36.37
	c-9.718,9.718-23.115,14.105-36.376,12.303C123.475,157.909,140.043,141.341,159.296,128.49z M110.625,370.554
	c13.261-1.802,26.66,2.586,36.376,12.303c9.694,9.694,14.088,23.111,12.297,36.372C140.044,406.378,123.475,389.809,110.625,370.554
	z"/>
<path d="M468.938,217.411c-5.092-19.189-12.711-37.359-22.484-54.127c12.934-22.63,9.15-51.86-9.434-70.444
	c-18.808-18.809-47.527-22.564-70.436-9.429c-16.774-9.778-34.949-17.4-54.145-22.492c-0.034-0.157-0.064-0.315-0.108-0.472
	c-7.084-25.075-30.249-42.587-56.331-42.587c-26.287,0-49.57,17.944-56.456,43.064c-19.187,5.092-37.354,12.711-54.121,22.483
	c-22.63-12.934-51.859-9.15-70.443,9.434c-2.97,2.97-2.929,7.744,0,10.753c4.1,4.214,9.269,1.484,10.753,0
	c11.721-11.72,29.159-15.483,44.42-10.421c-21.353,14.917-39.948,33.515-54.862,54.871c-1.659-4.935-2.419-10.161-2.214-15.493
	c0.161-4.196-3.11-7.73-7.307-7.891c-4.214-0.145-7.729,3.11-7.891,7.307c-0.426,11.071,2.224,21.817,7.67,31.311
	c-9.774,16.767-17.393,34.934-22.484,54.12C17.592,224.326,0,247.213,0,273.859c0,26.481,17.891,49.584,43.091,56.457
	c5.085,19.118,12.692,37.292,22.474,54.108c-13.118,22.886-9.317,51.721,9.416,70.454c11.287,11.287,26.331,17.114,41.471,17.114
	c9.944,0,19.928-2.52,28.916-7.654c20.834,12.135,43.921,20.994,68.636,25.785c4.121,0.801,8.113-1.896,8.912-6.018
	c0.8-4.122-1.895-8.113-6.018-8.912C120.728,456.554,50.926,371.881,50.926,273.859c0-113.078,91.996-205.074,205.074-205.074
	s205.074,91.996,205.074,205.074S369.078,478.932,256,478.932c-4.199,0-7.604,3.405-7.604,7.604c0,4.199,3.405,7.604,7.604,7.604
	c40.278,0,78.06-10.876,110.58-29.831c9.092,5.211,19.104,7.764,29.053,7.763c15.109,0,30.063-5.872,41.386-17.194
	c18.783-18.783,22.553-47.532,9.428-70.434c9.775-16.768,17.395-34.937,22.487-54.126c9.202-2.515,17.67-7.259,24.672-13.858
	c3.056-2.88,3.199-7.692,0.318-10.749c-2.88-3.056-7.692-3.199-10.749-0.318c-3.088,2.911-6.567,5.319-10.307,7.196
	c2.24-12.577,3.412-25.519,3.412-38.73c0-13.217-1.172-26.164-3.414-38.746c14.335,7.209,23.925,22.105,23.925,38.745
	c0,4.199,3.405,7.604,7.604,7.604s7.604-3.405,7.604-7.604C512,247.448,494.101,224.297,468.938,217.411z M15.208,273.859
	c0-16.814,9.463-31.599,23.929-38.774c-2.245,12.591-3.419,25.547-3.419,38.774c0,13.181,1.176,26.137,3.434,38.758
	C24.799,305.421,15.208,290.545,15.208,273.859z M130.103,454.588c-15.245,5.071-32.575,1.33-44.369-10.463
	c-11.835-11.836-15.627-29.116-10.449-44.454C90.131,420.978,108.679,439.618,130.103,454.588z M217.276,56.988
	c7.231-14.311,22.17-23.921,38.724-23.921c16.546,0,31.498,9.522,38.738,23.923c-12.579-2.241-25.524-3.413-38.738-3.413
	C242.791,53.578,229.85,54.749,217.276,56.988z M381.805,93.143c15.338-5.204,32.571-1.439,44.461,10.45
	c11.721,11.722,15.483,29.159,10.422,44.42C421.768,126.656,403.166,108.058,381.805,93.143z M426.266,444.125
	c-11.868,11.868-29.121,15.642-44.459,10.449c21.372-14.924,39.984-33.535,54.908-54.908
	C441.911,415.003,438.138,432.252,426.266,444.125z"/>
</svg>