<?xml version="1.0" encoding="iso-8859-1"?>
<!-- Uploaded to: SVG Repo, www.svgrepo.com, Generator: SVG Repo Mixer Tools -->
<svg version="1.1" id="Layer_1" xmlns="http://www.w3.org/2000/svg" xmlns:xlink="http://www.w3.org/1999/xlink" 
	 viewBox="0 0 512.001 512.001" xml:space="preserve">
<path style="fill:#FBB049;" d="M276.011,280.014H99.568c0,0-0.285-168.753,0.345-240.134C100.08,20.927,67.895,7.862,67.895,7.862
	h240.134c0,0-31.622,13.066-32.018,32.017C274.801,97.805,276.011,280.014,276.011,280.014z"/>
<g>
	<path style="fill:#7B7B53;" d="M356.056,368.063h-16.009c-8.842,0-16.009-7.168-16.009-16.009l0,0
		c0-8.842,7.168-16.009,16.009-16.009h16.009c8.842,0,16.009,7.168,16.009,16.009l0,0
		C372.065,360.895,364.897,368.063,356.056,368.063z"/>
	<rect x="35.88" y="264" style="fill:#7B7B53;" width="24.013" height="64.035"/>
</g>
<path style="fill:#FA9C1C;" d="M348.052,111.92c-48.628,0-88.049,39.421-88.049,88.049v80.044v32.018v32.018
	c0,48.628,39.421,88.049,88.049,88.049s88.049-39.421,88.049-88.049V199.969C436.101,151.341,396.68,111.92,348.052,111.92z
	 M404.082,344.05c0,30.945-25.087,56.031-56.032,56.031s-56.032-25.087-56.032-56.031v-32.017v-32.017v-80.046
	c0-30.945,25.087-56.031,56.032-56.031s56.032,25.086,56.032,56.031V344.05z"/>
<g>
	<path style="fill:#FBB049;" d="M348.052,199.969c-30.945,0-56.032,25.086-56.032,56.032v24.013H59.891v32.017h288.16
		c30.945,0,56.032-25.087,56.032-56.032C404.082,225.054,378.997,199.969,348.052,199.969z M348.052,280.014
		c-13.262,0-24.013-10.751-24.013-24.013s10.751-24.013,24.013-24.013s24.013,10.751,24.013,24.013
		C372.065,269.262,361.313,280.014,348.052,280.014z"/>
	<path style="fill:#FBB049;" d="M348.052,432.099c-48.628,0-88.049-39.421-88.049-88.049v-32.018l0,0H99.913v24.013
		c0,92.835,75.258,168.094,168.094,168.094c82.775,0,151.415-59.883,165.356-138.656
		C423.777,403.731,389.272,432.099,348.052,432.099z"/>
</g>
<path style="fill:#FFFFFF;" d="M260.003,463.973c-65.006,0-119.924-54.919-119.924-119.924h15.723
	c0,56.483,47.717,104.201,104.201,104.201V463.973z"/>
<rect x="28.016" y="247.994" style="fill:#1D1D1B;" width="15.723" height="96.057"/>
<g>
	<polygon style="fill:#7B7B53;" points="468.262,183.96 468.262,192.106 460.114,192.106 460.114,207.829 468.262,207.829 
		468.262,215.978 483.985,215.978 483.985,183.96 	"/>
	<polygon style="fill:#7B7B53;" points="468.262,231.986 468.262,240.134 460.114,240.134 460.114,255.857 468.262,255.857 
		468.262,264.005 483.985,264.005 483.985,231.986 	"/>
	<polygon style="fill:#7B7B53;" points="468.262,280.014 468.262,288.16 460.114,288.16 460.114,303.883 468.262,303.883 
		468.262,312.031 483.985,312.031 483.985,280.014 	"/>
	<polygon style="fill:#7B7B53;" points="468.262,328.04 468.262,336.188 460.114,336.188 460.114,351.911 468.262,351.911 
		468.262,360.058 483.985,360.058 483.985,328.04 	"/>
</g>
<g>
	<rect x="139.935" y="40.02" style="fill:#1D1D1B;" width="96.057" height="15.723"/>
	<path style="fill:#1D1D1B;" d="M452.109,207.829v-15.723h-8.472c-4.013-49.222-45.348-88.049-95.587-88.049
		c-24.658,0-47.169,9.356-64.179,24.701V47.884c0.001-17.733,14.429-32.161,32.162-32.161h16.009V0H43.882v15.723H59.89
		c17.734,0,32.161,14.427,32.161,32.161v224.268H67.753v-8.147H52.03v64.036h15.723v-8.148h24.299v16.152
		c0,97.023,78.933,175.956,175.955,175.956c86.705,0,158.955-63.041,173.342-145.693c1.116-4.677,1.889-9.484,2.289-14.396h8.472
		v-15.723h-8.147v-0.144v-32.161h8.147v-15.723h-8.147v-16.153v-16.152h8.147v-15.723h-8.147V207.83h8.146V207.829z M280.6,15.723
		c-6.052,6.666-10.257,15.036-11.794,24.299h-16.808v15.723h16.152v91.233c-10.108,15.192-16.008,33.414-16.008,52.99v72.183
		H107.774V55.746h16.152V40.022h-16.808c-1.537-9.263-5.742-17.634-11.794-24.299H280.6z M67.753,304.17v-16.294h280.299
		c17.575,0,31.875-14.3,31.875-31.875s-14.3-31.875-31.875-31.875c-17.576,0-31.875,14.3-31.875,31.875v8.005
		c0,4.493-3.654,8.147-8.147,8.147h-8.148v-16.152c0-26.561,21.609-48.17,48.17-48.17c26.56,0,48.169,21.609,48.169,48.17
		c0,26.56-21.609,48.169-48.169,48.169H67.753z M330.468,272.152c0.927-2.544,1.432-5.287,1.432-8.147v-8.005
		c0-8.907,7.245-16.152,16.152-16.152s16.152,7.245,16.152,16.152c0,8.907-7.245,16.152-16.152,16.152H330.468z M299.881,214.095
		v-14.127c0-26.56,21.609-48.169,48.17-48.169c26.56,0,48.169,21.609,48.169,48.169v14.127
		c-11.722-13.458-28.963-21.988-48.169-21.988C328.845,192.106,311.603,200.638,299.881,214.095z M340.046,375.924h16.009
		c10.408,0,19.276-6.698,22.534-16.008h14.933c-6.575,18.787-24.469,32.302-45.472,32.302c-21.003,0-38.898-13.517-45.473-32.302
		h14.934C320.771,369.225,329.639,375.924,340.046,375.924z M332.042,353.547v-2.986c0.703-3.781,4.022-6.655,8.004-6.655h16.009
		c4.493,0,8.147,3.655,8.147,8.148c0,4.493-3.654,8.147-8.147,8.147h-16.009C336.064,360.201,332.747,357.328,332.042,353.547z
		 M378.59,344.192c-3.258-9.311-12.126-16.009-22.534-16.009h-16.009c-10.408,0-19.276,6.699-22.534,16.009h-17.628
		c0-0.048-0.003-0.095-0.003-0.144v-24.157h48.17c19.206,0,36.447-8.53,48.169-21.987v46.144c0,0.048-0.004,0.095-0.004,0.144
		H378.59z M268.007,496.277c-88.352,0-160.231-71.879-160.231-160.233v-16.152h144.367v24.157c0,52.885,43.026,95.911,95.911,95.911
		c20.252,0,39.054-6.315,54.552-17.072C374.033,467.015,324.375,496.277,268.007,496.277z M428.239,272.009v64.036
		c0,9.169-0.785,18.157-2.271,26.909c-8.523,35.12-40.212,61.283-77.916,61.283c-44.216,0-80.188-35.971-80.188-80.188v-24.157
		h16.294v24.157c0,35.23,28.663,63.892,63.893,63.892c35.23,0,63.892-28.662,63.892-63.892V199.968
		c0-35.23-28.662-63.892-63.892-63.892s-63.893,28.662-63.893,63.892v72.183h-16.294v-72.183c0-44.216,35.971-80.188,80.188-80.188
		c44.216,0,80.188,35.971,80.188,80.188L428.239,272.009L428.239,272.009z"/>
</g>
</svg>