<?xml version="1.0" encoding="iso-8859-1"?>
<!-- Uploaded to: SVG Repo, www.svgrepo.com, Generator: SVG Repo Mixer Tools -->
<svg height="800px" width="800px" version="1.1" id="Layer_1" xmlns="http://www.w3.org/2000/svg" xmlns:xlink="http://www.w3.org/1999/xlink" 
	 viewBox="0 0 512.001 512.001" xml:space="preserve">
<path style="fill:#3E3D41;" d="M72.141,467.573L22.257,503.44c-4.399,3.163-10.531,2.161-13.695-2.238
	c-2.523-3.508-2.385-8.128,0-11.456l35.867-49.884c6.401-8.903,18.808-10.932,27.712-4.529c8.903,6.402,10.932,18.808,4.529,27.712
	C75.397,464.814,73.813,466.359,72.141,467.573z"/>
<path style="fill:#57565C;" d="M257.448,427.521c-4.994-1.976-9.568-4.891-13.471-8.793c-18.584-18.584-8.79-45.998,14.159-68.948
	c18.013-18.013,42.627-24.061,61.37-16.846c8.061-10.159,16.687-19.863,25.871-29.047c33.319-33.319,29.601-91.055-8.302-128.959
	c-37.904-37.904-95.64-41.62-128.959-8.302l-0.002,0.002c-9.224,9.224-18.914,17.859-29.028,25.911
	c7.19,18.739,1.135,43.329-16.863,61.329c-22.95,22.95-50.364,32.744-68.948,14.16c-3.894-3.894-6.805-8.458-8.781-13.441
	c-10.69,3.812-21.635,7.171-32.828,10.052c-11.683,3.006-21.982,8.573-30.257,16.846c-37.884,37.884-25.239,111.95,35.96,173.15
	c61.199,61.199,135.266,73.844,173.15,35.96c8.275-8.275,13.84-18.574,16.846-30.257
	C250.236,449.183,253.607,438.237,257.448,427.521z"/>
<path style="fill:#3E3E42;" d="M247.365,460.336c2.871-11.152,6.242-22.099,10.082-32.816c-4.994-1.976-9.568-4.891-13.47-8.793
	c-18.584-18.584-8.79-45.998,14.159-68.948c18.013-18.013,42.627-24.061,61.37-16.846c8.062-10.159,16.687-19.863,25.871-29.047
	c33.319-33.319,29.601-91.055-8.302-128.958l0,0L57.369,454.634l0,0c61.199,61.199,135.265,73.844,173.15,35.96
	C238.793,482.319,244.358,472.018,247.365,460.336z"/>
<g>
	<path style="fill:#333236;" d="M108.46,431.084c-3.434,2.497-8.174,2.125-11.176-0.877l-15.488-15.488
		c-3.002-3.002-3.374-7.742-0.877-11.176l32.619-44.851c1.485-2.041,3.787-3.33,6.303-3.527c2.516-0.197,4.992,0.717,6.775,2.5
		l27.721,27.721c1.785,1.785,2.699,4.261,2.5,6.775c-0.197,2.516-1.486,4.819-3.527,6.303L108.46,431.084z"/>
	<path style="fill:#333236;" d="M309.82,228.098l-25.915-25.915l-50.813,36.955c-2.041,1.485-3.33,3.787-3.527,6.303
		s0.717,4.992,2.5,6.775l27.721,27.721c1.785,1.785,4.261,2.699,6.775,2.5c2.515-0.198,4.819-1.486,6.303-3.527L309.82,228.098z"/>
</g>
<path style="fill:#8A8A91;" d="M277.438,206.851L463.881,20.409c7.652-7.652,20.06-7.652,27.712,0c7.652,7.652,7.652,20.06,0,27.712
	L305.15,234.563L277.438,206.851z"/>
<path style="fill:#333236;" d="M194.289,300.635c-1.1-0.308-6.232-2.073-9.854-1.68c-12.929,0.945-22.166,6.452-39.408,12.45
	c-13.638,4.694-31.386,9.164-44.551,3.22c-4.457-1.773-8.869-5.555-11.027-10.584c3.097,0.868,8.017,2.4,12.816,1.462
	c11.862-1.845,20.771-6.791,36.446-12.233c13.669-4.695,31.315-9.136,44.546-3.197C187.817,291.883,191.657,295.284,194.289,300.635
	z"/>
<path style="fill:#2D2E30;" d="M211.366,317.712c0.308,1.1,2.073,6.232,1.68,9.854c-0.945,12.93-6.451,22.166-12.45,39.408
	c-4.694,13.638-9.164,31.386-3.22,44.551c1.773,4.457,5.555,8.869,10.584,11.027c-0.868-3.097-2.4-8.017-1.462-12.816
	c1.845-11.862,6.791-20.771,12.233-36.446c4.695-13.669,9.136-31.315,3.197-44.546C220.118,324.185,216.718,320.346,211.366,317.712
	z"/>
<path style="fill:#C6C5CA;" d="M463.597,75.946c-3.434,2.497-8.174,2.125-11.176-0.877l-15.489-15.488
	c-3.002-3.002-3.374-7.742-0.877-11.176l32.619-44.852c1.485-2.041,3.787-3.33,6.303-3.527c2.516-0.197,4.992,0.717,6.775,2.5
	l27.721,27.721c1.785,1.785,2.699,4.261,2.5,6.775c-0.198,2.515-1.486,4.819-3.527,6.303L463.597,75.946z"/>
<g>
	<path style="fill:#333236;" d="M460.421,90.746l-39.165-39.165c-6.559-6.559-6.559-17.193,0-23.753
		c6.559-6.559,17.193-6.559,23.753,0l39.165,39.165c6.559,6.559,6.559,17.193,0,23.753C477.614,97.305,466.98,97.305,460.421,90.746
		z"/>
	<path style="fill:#333236;" d="M423.782,127.384L384.617,88.22c-6.559-6.559-6.559-17.193,0-23.753
		c6.559-6.559,17.193-6.559,23.753,0l39.165,39.165c6.559,6.559,6.559,17.193,0,23.753
		C440.976,133.944,430.342,133.944,423.782,127.384z"/>
</g>
</svg>