<?xml version="1.0" encoding="iso-8859-1"?>
<!-- Uploaded to: SVG Repo, www.svgrepo.com, Generator: SVG Repo Mixer Tools -->
<svg version="1.1" id="Layer_1" xmlns="http://www.w3.org/2000/svg" xmlns:xlink="http://www.w3.org/1999/xlink" 
	 viewBox="0 0 512 512" xml:space="preserve">
<path style="fill:#CCF8F3;" d="M284.444,360.92l-21.711-144.742h28.538v-34.133h-29.582V168.77
	c0-25.095-20.416-45.511-45.511-45.511c-23.816,0-43.406,18.393-45.34,41.719h-0.171c0,3.083-2.605,5.689-5.689,5.689h-22.756
	L119.467,204.8h45.511c20.678,0,37.721-15.845,39.637-36.03h0.185c0-6.168,5.21-11.378,11.378-11.378
	c6.168,0,11.378,5.21,11.378,11.378v42.992l36.502,243.349h27.213L284.444,360.92z"/>
<polygon style="fill:#BF720D;" points="284.444,29.582 284.444,147.911 290.133,164.978 284.444,182.044 284.444,477.867 
	386.844,483.934 386.844,29.582 "/>
<rect x="335.644" y="29.582" style="fill:#50412E;" width="51.2" height="454.349"/>
<g>
	<circle style="fill:#CCF8F3;" cx="335.644" cy="250.311" r="17.067"/>
	<circle style="fill:#CCF8F3;" cx="335.644" cy="307.2" r="17.067"/>
	<circle style="fill:#CCF8F3;" cx="335.644" cy="364.089" r="17.067"/>
	<circle style="fill:#CCF8F3;" cx="335.644" cy="420.978" r="17.067"/>
	<rect x="284.444" y="477.867" style="fill:#CCF8F3;" width="102.4" height="34.133"/>
</g>
<rect x="335.644" y="477.867" style="fill:#00D7DF;" width="51.2" height="34.133"/>
<rect x="284.444" y="147.911" style="fill:#CCF8F3;" width="102.4" height="34.133"/>
<rect x="335.644" y="147.911" style="fill:#00D7DF;" width="51.2" height="34.133"/>
<rect x="278.756" style="fill:#CCF8F3;" width="113.778" height="34.133"/>
<rect x="335.644" style="fill:#00D7DF;" width="56.889" height="34.133"/>
</svg>
