<?xml version="1.0" encoding="iso-8859-1"?>
<!-- Uploaded to: SVG Repo, www.svgrepo.com, Generator: SVG Repo Mixer Tools -->
<svg height="800px" width="800px" version="1.1" id="Layer_1" xmlns="http://www.w3.org/2000/svg" xmlns:xlink="http://www.w3.org/1999/xlink" 
	 viewBox="0 0 496.2 496.2" xml:space="preserve">
<path style="fill:#25B7D3;" d="M496.2,248.1C496.2,111.1,385.1,0,248.1,0S0,111.1,0,248.1s111.1,248.1,248.1,248.1
	S496.2,385.1,496.2,248.1z"/>
<path style="fill:#AF8654;" d="M337.1,104.7h-0.3h-9.2h-0.4h-10.5h-0.3h-12.1h-0.4h-13.8h-0.4H274h-0.5h-18.1h-0.3h-20.6h-0.3h-23.6
	h-0.3h-27h-0.4H152v74.9v209.9c0,0,4.6,2,14.9,2s16-2,16-2l0.4-36c0,0,4,1.8,13,1.8s14-1.8,14-1.8l0.3-31.2c0,0,3.5,1.5,11.4,1.5
	s12.2-1.5,12.2-1.5l0.3-27.5c0,0,3.1,1.3,9.9,1.3c6.9,0,10.7-1.3,10.7-1.3l0.4-23.7c0,0,2.7,1.2,8.7,1.2s9.4-1.2,9.4-1.2l0.5-21.4
	c0,0,2.3,1,7.6,1s8.2-1,8.2-1l0.4-18.3c0,0,2,0.9,6.6,0.9s7.1-0.9,7.1-0.9l0.4-15.3c0,0,1.8,0.8,5.8,0.8s6.3-0.8,6.3-0.8l0.3-14.5
	c0,0,1.6,0.7,5.1,0.7s5.5-0.7,5.5-0.7l0.4-12.1c0,0,1.4,0.6,4.4,0.6s4.8-0.6,4.8-0.6v-10h0.3c0,0,1.2,0.5,3.9,0.5
	c2.7,0,4.2-0.5,4.2-0.5v-74.9h-8.3V104.7z"/>
<g>
	<ellipse style="fill:#EA4949;" cx="354.8" cy="128.8" rx="9" ry="10.7"/>
	<ellipse style="fill:#EA4949;" cx="354.8" cy="128.8" rx="10.7" ry="9"/>
	
		<ellipse transform="matrix(0.7071 0.7071 -0.7071 0.7071 194.9508 -213.1037)" style="fill:#EA4949;" cx="354.714" cy="128.775" rx="10.7" ry="9"/>
	
		<ellipse transform="matrix(-0.7071 0.7071 -0.7071 -0.7071 696.6272 -31.1039)" style="fill:#EA4949;" cx="354.755" cy="128.724" rx="10.7" ry="9"/>
	<ellipse style="fill:#EA4949;" cx="141.4" cy="128.8" rx="9" ry="10.7"/>
	<ellipse style="fill:#EA4949;" cx="141.4" cy="128.8" rx="10.7" ry="9"/>
	
		<ellipse transform="matrix(0.7071 0.7071 -0.7071 0.7071 132.448 -62.3188)" style="fill:#EA4949;" cx="141.449" cy="128.719" rx="10.7" ry="9"/>
	
		<ellipse transform="matrix(-0.7071 0.7071 -0.7071 -0.7071 332.6003 119.7913)" style="fill:#EA4949;" cx="141.491" cy="128.779" rx="10.7" ry="9"/>
</g>
<path style="fill:#DDB372;" d="M182.8,389.5c0,0-5.7,2-16,2s-14.9-2-14.9-2V104.7h30.9V389.5z"/>
<path style="fill:#D3A76C;" d="M210.2,353.5c0,0-5,1.8-14,1.8s-13-1.8-13-1.8V104.7h27V353.5z"/>
<path style="fill:#E2B77D;" d="M234.2,322.3c0,0-4.4,1.5-12.2,1.5c-7.9,0-11.4-1.5-11.4-1.5V104.7h23.6L234.2,322.3L234.2,322.3z"/>
<path style="fill:#DDB372;" d="M255.1,294.9c0,0-3.8,1.3-10.7,1.3c-6.9,0-9.9-1.3-9.9-1.3V104.7h20.6V294.9z"/>
<path style="fill:#D3A76C;" d="M273.5,271.2c0,0-3.3,1.2-9.4,1.2c-6,0-8.7-1.2-8.7-1.2V104.7h18.1V271.2z"/>
<path style="fill:#E2B77D;" d="M289.7,249.8c0,0-2.9,1-8.2,1s-7.6-1-7.6-1V104.7h15.7v145.1H289.7z"/>
<path style="fill:#DDB372;" d="M303.9,231.5c0,0-2.5,0.9-7.1,0.9s-6.6-0.9-6.6-0.9V104.7H304v126.8H303.9z"/>
<path style="fill:#D3A76C;" d="M316.4,216.3c0,0-2.2,0.8-6.3,0.8c-4,0-5.8-0.8-5.8-0.8V104.7h12.1L316.4,216.3L316.4,216.3z"/>
<path style="fill:#E2B77D;" d="M327.2,201.8c0,0-1.9,0.7-5.5,0.7s-5.1-0.7-5.1-0.7v-97h10.5v97H327.2z"/>
<path style="fill:#DDB372;" d="M336.8,189.6c0,0-1.7,0.6-4.8,0.6s-4.4-0.6-4.4-0.6v-84.9h9.2L336.8,189.6L336.8,189.6z"/>
<path style="fill:#D3A76C;" d="M345.3,179.6c0,0-1.5,0.5-4.2,0.5s-3.9-0.5-3.9-0.5v-74.9h8.1V179.6z"/>
<polygon style="fill:#EA4949;" points="347,139.1 149.2,139.1 149.2,118.6 152,116.6 152,118.6 345.3,118.6 345.3,116.6 347,118.6 
	"/>
<g>
	<path style="fill:#D8A209;" d="M157,136.1l-7.3-7.3l7.3-7.3l7.3,7.3L157,136.1z M151.4,128.8l5.6,5.6l5.6-5.6l-5.6-5.6L151.4,128.8
		z"/>
	<path style="fill:#D8A209;" d="M170.1,136.1l-7.3-7.3l7.3-7.3l7.3,7.3L170.1,136.1z M164.5,128.8l5.6,5.6l5.6-5.6l-5.6-5.6
		L164.5,128.8z"/>
	<path style="fill:#D8A209;" d="M183,136.1l-7.3-7.3l7.3-7.3l7.3,7.3L183,136.1z M177.4,128.8l5.6,5.6l5.6-5.6l-5.6-5.6L177.4,128.8
		z"/>
	<path style="fill:#D8A209;" d="M196.1,136.1l-7.3-7.3l7.3-7.3l7.3,7.3L196.1,136.1z M190.5,128.8l5.6,5.6l5.6-5.6l-5.6-5.6
		L190.5,128.8z"/>
	<path style="fill:#D8A209;" d="M209,136.1l-7.3-7.3l7.3-7.3l7.3,7.3L209,136.1z M203.4,128.8l5.6,5.6l5.6-5.6l-5.6-5.6L203.4,128.8
		z"/>
	<path style="fill:#D8A209;" d="M222.1,136.1l-7.3-7.3l7.3-7.3l7.3,7.3L222.1,136.1z M216.5,128.8l5.6,5.6l5.6-5.6l-5.6-5.6
		L216.5,128.8z"/>
	<path style="fill:#D8A209;" d="M235,136.1l-7.3-7.3l7.3-7.3l7.3,7.3L235,136.1z M229.4,128.8l5.6,5.6l5.6-5.6l-5.6-5.6L229.4,128.8
		z"/>
	<path style="fill:#D8A209;" d="M248.3,136.1l-7.3-7.3l7.3-7.3l7.3,7.3L248.3,136.1z M242.6,128.8l5.6,5.6l5.6-5.6l-5.6-5.6
		L242.6,128.8z"/>
	<path style="fill:#D8A209;" d="M261.2,136.1l-7.3-7.3l7.3-7.3l7.3,7.3L261.2,136.1z M255.6,128.8l5.6,5.6l5.6-5.6l-5.6-5.6
		L255.6,128.8z"/>
	<path style="fill:#D8A209;" d="M274.3,136.1l-7.3-7.3l7.3-7.3l7.3,7.3L274.3,136.1z M268.6,128.8l5.6,5.6l5.6-5.6l-5.6-5.6
		L268.6,128.8z"/>
	<path style="fill:#D8A209;" d="M287.2,136.1l-7.3-7.3l7.3-7.3l7.3,7.3L287.2,136.1z M281.6,128.8l5.6,5.6l5.6-5.6l-5.6-5.6
		L281.6,128.8z"/>
	<path style="fill:#D8A209;" d="M300.3,136.1l-7.3-7.3l7.3-7.3l7.3,7.3L300.3,136.1z M294.6,128.8l5.6,5.6l5.6-5.6l-5.6-5.6
		L294.6,128.8z"/>
	<path style="fill:#D8A209;" d="M313.2,136.1l-7.3-7.3l7.3-7.3l7.3,7.3L313.2,136.1z M307.6,128.8l5.6,5.6l5.6-5.6l-5.6-5.6
		L307.6,128.8z"/>
	<path style="fill:#D8A209;" d="M326.3,136.1l-7.3-7.3l7.3-7.3l7.3,7.3L326.3,136.1z M320.6,128.8l5.6,5.6l5.6-5.6l-5.6-5.6
		L320.6,128.8z"/>
	<path style="fill:#D8A209;" d="M339.2,136.1l-7.3-7.3l7.3-7.3l7.3,7.3L339.2,136.1z M333.6,128.8l5.6,5.6l5.6-5.6l-5.6-5.6
		L333.6,128.8z"/>
</g>
</svg>
