<svg xmlns="http://www.w3.org/2000/svg" viewBox="0 0 128 128" width="128" height="128">
  <!-- Cornemuse - refaite depuis zéro -->
  <path d="M28 72 C28 52,44 38,64 38 C84 38,100 52,100 72 C100 92,84 106,64 106 C44 106,28 92,28 72 Z" fill="#8b6b31" stroke="#5a431d" stroke-width="2"/>

  <rect x="74" y="62" width="7" height="50" rx="2" fill="#191919" stroke="#333"/>
  <circle cx="77.5" cy="74" r="1.4" fill="#555"/><circle cx="77.5" cy="82" r="1.4" fill="#555"/>
  <circle cx="77.5" cy="90" r="1.4" fill="#555"/><circle cx="77.5" cy="98" r="1.4" fill="#555"/>
  <path d="M74 112 L72 121 C72 125,83 125,83 121 L81 112" fill="#1a1a1a" stroke="#333"/>

  <rect x="44" y="8" width="6" height="52" rx="2" fill="#1a1a1a" stroke="#333"/>
  <rect x="54" y="4" width="6" height="56" rx="2" fill="#1a1a1a" stroke="#333"/>
  <rect x="64" y="8" width="6" height="52" rx="2" fill="#1a1a1a" stroke="#333"/>

  <g fill="#efe0c2">
    <rect x="43" y="16" width="8" height="3" rx="1"/><rect x="43" y="31" width="8" height="3" rx="1"/>
    <rect x="53" y="12" width="8" height="3" rx="1"/><rect x="53" y="27" width="8" height="3" rx="1"/>
    <rect x="63" y="16" width="8" height="3" rx="1"/><rect x="63" y="31" width="8" height="3" rx="1"/>
  </g>

  <rect x="20" y="52" width="5" height="22" rx="1" fill="#1a1a1a" stroke="#333" transform="rotate(-30,22.5,63)"/>
</svg>
