<?xml version="1.0" encoding="iso-8859-1"?>
<!-- Uploaded to: SVG Repo, www.svgrepo.com, Generator: SVG Repo Mixer Tools -->
<svg version="1.1" id="Layer_1" xmlns="http://www.w3.org/2000/svg" xmlns:xlink="http://www.w3.org/1999/xlink" 
	 viewBox="0 0 496.2 496.2" xml:space="preserve">
<path style="fill:#FABC3D;" d="M496.2,248.1C496.2,111.1,385.1,0,248.1,0S0,111.1,0,248.1s111.1,248.1,248.1,248.1
	S496.2,385.1,496.2,248.1z"/>
<circle style="fill:#23150A;" cx="248.3" cy="372.5" r="70.8"/>
<g>
	<ellipse style="fill:#DBD0CA;" cx="248.3" cy="372.5" rx="9.2" ry="66.5"/>
	<ellipse style="fill:#DBD0CA;" cx="248.3" cy="372.5" rx="66.5" ry="9.2"/>
	
		<ellipse transform="matrix(-0.7071 0.7071 -0.7071 -0.7071 687.201 460.4324)" style="fill:#DBD0CA;" cx="248.242" cy="372.54" rx="66.499" ry="9.2"/>
	
		<ellipse transform="matrix(-0.7071 -0.7071 0.7071 -0.7071 160.4458 811.4024)" style="fill:#DBD0CA;" cx="248.27" cy="372.472" rx="66.499" ry="9.2"/>
	
		<ellipse transform="matrix(-0.386 0.9225 -0.9225 -0.386 687.7215 287.3593)" style="fill:#DBD0CA;" cx="248.23" cy="372.548" rx="66.5" ry="9.2"/>
	
		<ellipse transform="matrix(-0.9225 -0.386 0.386 -0.9225 333.4837 811.9366)" style="fill:#DBD0CA;" cx="248.252" cy="372.49" rx="66.5" ry="9.2"/>
	
		<ellipse transform="matrix(-0.9252 0.3794 -0.3794 -0.9252 619.1854 622.9949)" style="fill:#DBD0CA;" cx="248.205" cy="372.51" rx="66.498" ry="9.2"/>
	
		<ellipse transform="matrix(-0.3793 -0.9253 0.9253 -0.3793 -2.235 743.5356)" style="fill:#DBD0CA;" cx="248.278" cy="372.517" rx="66.502" ry="9.2"/>
	<path style="fill:#DBD0CA;" d="M239.2,370.8c6.9-36.1,16.6-64.6,21.6-63.6s3.4,31-3.5,67.1s-16.6,64.6-21.6,63.6
		C230.7,436.9,232.3,406.9,239.2,370.8z"/>
	<path style="fill:#DBD0CA;" d="M250,363.5c36.1,6.9,64.6,16.6,63.6,21.6s-31,3.4-67.1-3.5S181.9,365,182.9,360
		S213.9,356.6,250,363.5z"/>
	
		<ellipse transform="matrix(-0.8278 0.561 -0.561 -0.8278 662.6378 541.644)" style="fill:#DBD0CA;" cx="248.196" cy="372.513" rx="66.499" ry="9.2"/>
	
		<ellipse transform="matrix(-0.5609 -0.8279 0.8279 -0.5609 79.1727 786.9539)" style="fill:#DBD0CA;" cx="248.284" cy="372.481" rx="66.501" ry="9.2"/>
	
		<ellipse transform="matrix(-0.5541 0.8324 -0.8324 -0.5541 695.8743 372.3781)" style="fill:#DBD0CA;" cx="248.209" cy="372.555" rx="66.497" ry="9.2"/>
	<path style="fill:#DBD0CA;" d="M253.4,364.9c30.6,20.4,53.1,40.3,50.3,44.5c-2.8,4.2-29.9-8.9-60.5-29.2
		c-30.6-20.4-53.1-40.3-50.3-44.5C195.7,331.4,222.8,344.5,253.4,364.9z"/>
	
		<ellipse transform="matrix(-0.9805 0.1967 -0.1967 -0.9805 564.9142 688.8971)" style="fill:#DBD0CA;" cx="248.248" cy="372.501" rx="66.502" ry="9.2"/>
	
		<ellipse transform="matrix(-0.1966 -0.9805 0.9805 -0.1966 -68.1414 689.1859)" style="fill:#DBD0CA;" cx="248.287" cy="372.51" rx="66.501" ry="9.2"/>
	<circle style="fill:#DBD0CA;" cx="248.3" cy="372.5" r="62.3"/>
</g>
<path style="fill:#5F431D;" d="M237,175.6h9.7c1.5,0,2.7,0.8,2.7,1.7c0,1-1.2,1.7-2.7,1.7H237c-1.5,0-2.7-0.8-2.7-1.7
	S235.5,175.6,237,175.6z"/>
<path style="fill:#7F592B;" d="M235.4,180.8c1.1,0,2-0.4,2-0.9V175c0-0.5-0.9-0.9-2-0.9l0,0c-1.1,0-2,0.4-2,0.9v4.9
	C233.4,180.4,234.3,180.8,235.4,180.8L235.4,180.8z"/>
<polygon style="fill:#593014;" points="253.1,110.4 243.4,110.4 241.9,181.6 240,183.5 239.1,316.1 257.5,316.1 "/>
<g>
	<rect x="242" y="286.7" style="fill:#FFFFFF;" width="11.4" height="2.6"/>
	<rect x="242" y="273.2" style="fill:#FFFFFF;" width="11.1" height="2.6"/>
	<rect x="242.1" y="246.8" style="fill:#FFFFFF;" width="10.4" height="3.1"/>
	<rect x="242.3" y="230.1" style="fill:#FFFFFF;" width="10.2" height="3.1"/>
	<rect x="242.3" y="201.1" style="fill:#FFFFFF;" width="10.2" height="3.1"/>
	<rect x="243.6" y="175" style="fill:#FFFFFF;" width="9.5" height="5.8"/>
	<rect x="243.7" y="144.6" style="fill:#FFFFFF;" width="9" height="5.8"/>
</g>
<circle style="fill:#F1E8E3;" cx="248.3" cy="372.5" r="59.4"/>
<path style="fill:#593014;" d="M197,363.1c2.1,9.2-0.4,23.6,4.9,33.8c5.2,10.3,18.2,16.5,24.6,24c11.4,13.3-8.4,16.1-12.1,14.1
	c-26.7-14.3-41.4-44.4-36.2-74.5C178.8,357.4,193.3,346.9,197,363.1z"/>
<path style="fill:#5F431D;" d="M232.1,84.3h9.7c1.5,0,2.7,0.8,2.7,1.7c0,1-1.2,1.7-2.7,1.7h-9.7c-1.5,0-2.7-0.8-2.7-1.7
	S230.6,84.3,232.1,84.3z"/>
<path style="fill:#7F592B;" d="M230.5,89.5c1.1,0,2-0.4,2-0.9v-4.9c0-0.5-0.9-0.9-2-0.9l0,0c-1.1,0-2,0.4-2,0.9v4.9
	C228.5,89.1,229.4,89.5,230.5,89.5L230.5,89.5z"/>
<path style="fill:#5F431D;" d="M232.1,67.6h9.7c1.5,0,2.7,0.8,2.7,1.7c0,1-1.2,1.7-2.7,1.7h-9.7c-1.5,0-2.7-0.8-2.7-1.7
	S230.6,67.6,232.1,67.6z"/>
<path style="fill:#7F592B;" d="M230.5,72.7c1.1,0,2-0.4,2-0.9v-4.9c0-0.5-0.9-0.9-2-0.9l0,0c-1.1,0-2,0.4-2,0.9v4.9
	C228.5,72.3,229.4,72.7,230.5,72.7L230.5,72.7z"/>
<path style="fill:#5F431D;" d="M264.5,84.3h-9.7c-1.5,0-2.7,0.8-2.7,1.7c0,1,1.2,1.7,2.7,1.7h9.7c1.5,0,2.7-0.8,2.7-1.7
	S266,84.3,264.5,84.3z"/>
<path style="fill:#7F592B;" d="M266,89.5c-1.1,0-2-0.4-2-0.9v-4.9c0-0.5,0.9-0.9,2-0.9l0,0c1.1,0,2,0.4,2,0.9v4.9
	C268,89.1,267.1,89.5,266,89.5L266,89.5z"/>
<path style="fill:#5F431D;" d="M264.5,67.6h-9.7c-1.5,0-2.7,0.8-2.7,1.7c0,1,1.2,1.7,2.7,1.7h9.7c1.5,0,2.7-0.8,2.7-1.7
	S266,67.6,264.5,67.6z"/>
<path style="fill:#7F592B;" d="M266,72.7c-1.1,0-2-0.4-2-0.9v-4.9c0-0.5,0.9-0.9,2-0.9l0,0c1.1,0,2,0.4,2,0.9v4.9
	C268,72.3,267.1,72.7,266,72.7L266,72.7z"/>
<g>
	<path style="fill:#512A10;" d="M258.2,98.4h-19.8l-2.2-40.3c0,0,3.8-0.9,6.2-2s3.7-3.1,5.9-3.1s4,2,5.9,3.1s6.2,2,6.2,2L258.2,98.4
		z"/>
	<polygon style="fill:#512A10;" points="253.1,110.4 243.4,110.4 238.4,98.4 258.2,98.4 	"/>
</g>
<g>
	<polygon style="fill:#F5F5F5;" points="247.9,443.5 246.6,110.4 240.5,69 241.2,68.9 247.3,110.4 248.6,443.5 	"/>
	<polygon style="fill:#F5F5F5;" points="251.5,443.5 249.2,110.4 255.3,69 256,69.1 249.9,110.4 252.2,443.5 	"/>
	<polygon style="fill:#F5F5F5;" points="255,443.5 251.5,110.4 257.1,86 257.8,86.1 252.2,110.5 255.7,443.5 	"/>
	<rect x="241.1" y="174.5" style="fill:#F5F5F5;" width="0.7" height="269"/>
	<polygon style="fill:#F5F5F5;" points="244.8,443.5 244.1,443.5 244.3,110.4 238.7,85.7 239.4,85.5 245,110.3 	"/>
</g>
<polygon style="fill:#DBD0CA;" points="258,445.7 238.5,445.7 234.6,411.7 262,411.7 "/>
<polygon style="fill:#F1E8E3;" points="256.7,444.9 239.8,444.9 236.4,415 260.1,415 "/>
<rect x="232" y="380.6" style="fill:#DBD0CA;" width="32.6" height="7"/>
<rect x="236" y="382.9" style="fill:#23150A;" width="24.5" height="2.3"/>
<g>
	<circle style="fill:#F5F5F5;" cx="240.5" cy="86" r="1.8"/>
	<circle style="fill:#F5F5F5;" cx="239.6" cy="69.3" r="1.8"/>
	<circle style="fill:#F5F5F5;" cx="256.1" cy="86" r="1.8"/>
	<circle style="fill:#F5F5F5;" cx="256.9" cy="69.3" r="1.8"/>
</g>
</svg>
