<svg xmlns="http://www.w3.org/2000/svg" viewBox="0 0 128 128" width="128" height="128">
  <!-- Basson - refait depuis zéro -->
  <path d="M46 24 C42 16,41 10,45 8 C49 6,54 11,52 17 L50 24" fill="none" stroke="#c5c5c5" stroke-width="2.5" stroke-linecap="round"/>

  <rect x="44" y="24" width="10" height="78" rx="3" fill="#9e6130" stroke="#6b3e1d" stroke-width="1.6"/>
  <rect x="60" y="14" width="12" height="88" rx="4" fill="#9e6130" stroke="#6b3e1d" stroke-width="1.6"/>
  <path d="M49 102 C49 113,54 118,60 118 C66 118,72 113,72 102" fill="#9e6130" stroke="#6b3e1d" stroke-width="1.6"/>
  <path d="M60 14 C58 9,61 4,66 4 C71 4,74 9,72 14" fill="#9e6130" stroke="#6b3e1d" stroke-width="1.6"/>

  <g fill="#cfcfcf" stroke="#9b9b9b" stroke-width="0.8">
    <rect x="43" y="22" width="12" height="3" rx="1"/>
    <rect x="59" y="12" width="14" height="3" rx="1"/>
    <circle cx="40" cy="36" r="2.4"/><circle cx="40" cy="49" r="2.4"/><circle cx="40" cy="62" r="2.4"/>
    <circle cx="40" cy="75" r="2.7"/><circle cx="40" cy="88" r="2.7"/>
    <circle cx="76" cy="30" r="2.4"/><circle cx="76" cy="46" r="2.4"/><circle cx="76" cy="62" r="2.4"/>
  </g>

  <g stroke="#9b9b9b" stroke-width="0.9">
    <line x1="40" y1="36" x2="44" y2="36"/>
    <line x1="40" y1="49" x2="44" y2="49"/>
    <line x1="40" y1="62" x2="44" y2="62"/>
    <line x1="40" y1="75" x2="44" y2="75"/>
    <line x1="40" y1="88" x2="44" y2="88"/>
  </g>
</svg>
