<?xml version="1.0" encoding="iso-8859-1"?>
<!-- Uploaded to: SVG Repo, www.svgrepo.com, Generator: SVG Repo Mixer Tools -->
<svg height="800px" width="800px" version="1.1" id="Layer_1" xmlns="http://www.w3.org/2000/svg" xmlns:xlink="http://www.w3.org/1999/xlink" 
	 viewBox="0 0 496.2 496.2" xml:space="preserve">
<path style="fill:#25B7D3;" d="M496.2,248.1C496.2,111.1,385.1,0,248.1,0S0,111.1,0,248.1s111.1,248.1,248.1,248.1
	S496.2,385.1,496.2,248.1z"/>
<g>
	<path style="fill:#EDC92F;" d="M109.3,287.6c52.2,81.9,123.6,51.6,161.8,33.7c16.4-7.7,34.1-14.6,49.5-18.5
		c19.8-5,41.1-3.7,47.3,2.3c6.2,6,22.3,28.9,38.1,18.8c3.9-2.5,17-30.9-22.6-93.1l0,0l-0.1-0.1l-0.1-0.1l0,0
		c-39.7-62.1-70.9-62.3-74.9-59.8c-15.7,10-1.8,34.4,1,42.5c2.8,8.1-4.3,28.6-17.9,43.8c-6.9,7.7-19.1,19.5-27.7,27.7
		c17.9-28.7,18.9-66.3-0.5-96.7c-26.9-42.2-83-54.6-125.2-27.7c-37.7,24-52.4,71.9-35.9,111.9l0,0
		C104,277.1,106.5,283.2,109.3,287.6z M231.2,306.4c-0.1,0.1-0.2,0.1-0.3,0.2c-18.2,8.3-39.6,13.7-60.4,8
		c-18.1-6-34.6-19.1-46.4-37.6c-0.1-0.1-0.1-0.2-0.2-0.3c-0.7-1.1-1.4-2.3-2.1-3.4c-0.2-0.3-0.3-0.6-0.5-0.9
		c-0.5-0.8-0.9-1.6-1.3-2.4c-0.3-0.6-0.6-1.1-0.9-1.7c-0.3-0.5-0.5-1-0.8-1.6c-0.4-0.7-0.7-1.5-1-2.2c-16.3-35.5-8.5-74.3,25.9-96.3
		c38.4-24.5,88.8-14.4,113.3,24C281,230.7,269.7,281.9,231.2,306.4z"/>
	<path style="fill:#EDC92F;" d="M212.6,319.4c0.9-0.6,1.5-1.7,1.4-2.9c-0.2-1.6-1.7-2.8-3.3-2.6l0,0c-1,0.1-24.2,2.7-33.6-17.4
		l-11.4-30.6c-0.6-1.6-2.3-2.3-3.9-1.8c-1.6,0.6-2.3,2.3-1.8,3.9l11.4,30.7c0,0.1,0.1,0.1,0.1,0.2c11.2,24.3,39.6,21,39.9,21
		C211.8,319.8,212.2,319.6,212.6,319.4z"/>
</g>
<g>
	<path style="fill:#F4D553;" d="M213.3,308.4c-18.3,3.3-31.2-5.9-34.6-24.5c-0.9-5.1,0.9-13.2,6.1-19l-18.4,7.1
		c-1.5,0.6-3.3-0.2-3.9-1.7c-0.6-1.5,0.2-3.3,1.7-3.9l55.1-21.1c0.1,0,12.8-5,19.8-7.5c2.9-1,7.4-1.3,11.7,0.9
		c4.3,2.3,7.3,6.5,9,12.6c2.7,10.1-4.4,17.4-8.7,19.9c-10.5,8.5-32.8-4.5-36.8-7c-10.2-2.7-18.4-1.5-23.8,3.3
		c-5.1,4.7-6.5,11.9-5.9,15.3c3.8,20.8,18.9,21.2,27.6,19.7c43.3-7.8,56.8-47,57-47.6c0.5-1.6,2.3-2.4,3.8-1.8
		c1.6,0.5,2.4,2.3,1.9,3.8c-0.4,1.3-8.2,25-31.8,40C235.1,302,225.2,306.3,213.3,308.4z M247.9,266.1c0.3-0.2,8.4-4.9,6.1-13.3
		c-1.2-4.4-3.2-7.4-6-8.8c-2.7-1.4-5.6-1-6.9-0.6c-7,2.5-19.6,7.4-19.7,7.4l-15.6,6c3.1,0.1,6.6,0.7,10.5,1.7
		c0.3,0.1,0.6,0.2,0.8,0.4c5.8,3.7,23.9,12.9,30.3,7.5c0.1-0.1,0.2-0.2,0.3-0.2C247.9,266.1,247.9,266.1,247.9,266.1z"/>
	<path style="fill:#F4D553;" d="M248.4,293.1c0.1-0.1,0.2-0.1,0.3-0.2c18.7-15.7,23.3-24.2,20.6-37.9c-2.5-12.4-7.6-21-15.3-25.3
		c-9.5-5.4-19.7-2.6-22.6-1.6c-4.5,1.6-69.7,27.1-72.5,28.2c-1.5,0.6-2.3,2.3-1.7,3.9c0.6,1.5,2.3,2.3,3.9,1.7
		c0.7-0.3,67.9-26.6,72.3-28.1c2.3-0.8,10.3-3.1,17.6,1.1c6.1,3.5,10.2,10.7,12.3,21.3c2.1,10.5-0.4,16.9-18.6,32.1
		c-1.3,1.1-1.4,3-0.4,4.2C245.4,293.6,247.1,293.9,248.4,293.1z"/>
</g>
<path style="fill:#EDC92F;" d="M172.7,227c-0.1,0.1-0.3,0.2-0.6,0.4l0,0c-2.5,1.6-9.4,5.4-18.4,6c-8.2,0.5-20.3-1.6-31.7-14.7
	c-0.3-0.3-26.3-31.4,0.9-55.9c0.1-0.1,0.1-0.1,0.2-0.2c0.1,0,0.7-0.5,1.8-1.2c5.6-3.6,20.5-11.5,36.8-7
	c12.1,3.4,22.1,12.9,29.8,28.2c0,0.1,0.1,0.1,0.1,0.2c0.1,0.3,10.2,25.7-16.4,42.7C174.4,226.1,173.5,226.6,172.7,227z M160,160.2
	c-14.3-4-28.1,3.8-31.9,6.3c-0.7,0.4-1.1,0.8-1.3,0.9c-22.7,20.6-1.2,46.4-0.2,47.5c18.4,21.1,38.5,10,42.3,7.6
	c0.3-0.2,0.4-0.3,0.5-0.3c0.1-0.1,0.2-0.1,0.3-0.2c0.8-0.5,1.6-0.9,2.3-1.4c21.8-13.9,14.7-33.6,14.1-35.3
	C179.1,171.5,170.4,163.1,160,160.2z"/>
<g>
	<path style="fill:#F4D553;" d="M220.8,303.8c-0.1,0-0.1,0-0.2,0.1c-8.5,2.3-26.1,2.6-32.2-13.2c-1-2.4-23.9-59.8-26.1-66.5
		c-1.6-4.8,0.8-13.6,7.6-19.8c4.7-4.3,14.7-10.3,31.3-5.3c-14.1-31.7-32.7-28.4-33.5-28.2c-0.2,0-0.3,0.1-0.5,0.1
		c-14.7,0.7-25,4.7-29.9,11.6c-3.8,5.3-3.2,10.8-2.9,11.9c0.9,3,8.6,22,11.5,29.1c0.6,1.5-0.1,3.3-1.6,3.9c-1.5,0.6-3.3-0.1-3.9-1.6
		c-1.1-2.6-10.6-25.9-11.7-29.7c-0.9-2.9-1.2-10.2,3.8-17.1c6.1-8.5,17.6-13.3,34.3-14.1c3-0.5,26.7-3.3,42.2,37.1l26.4,65.6
		c0.9,1.6,6.1,11.8,2.5,21.7c-1.6,4.4-4.7,8.1-9.2,10.9C226.3,301.6,223.7,302.8,220.8,303.8z M173.9,208.7
		c-5.3,4.9-6.7,11.3-6,13.5c2.2,6.5,25.8,65.6,26,66.2c5.5,14.3,23.3,10,24.9,9.6c6.9-2.4,11.3-6.1,13.1-10.9
		c2.9-8-2.1-16.8-2.1-16.9c-0.1-0.1-0.1-0.3-0.2-0.4L204,206.3C191.7,201.4,181,202.2,173.9,208.7z"/>
	<path style="fill:#F4D553;" d="M240.9,195.9c4.2-2.7,13.2-9.4,15.9-19c1.6-5.8,0.7-11.7-2.7-17.4c0,0,0-0.1-0.1-0.1
		c-0.3-0.5-7.4-11-18.3-12.3c-6.2-0.7-12.3,1.7-18.1,7.1l-0.1,0.1c-0.4,0.4-9.5,10.4-3.2,25.8c0.1,0.2,1.4,3.4-0.4,7.1
		c-1.8,3.8-6.4,7-13.3,9.1c-0.1,0-0.1,0-0.2,0.1l-56.3,22c-1.5,0.6-2.3,2.3-1.7,3.9c0.6,1.5,2.3,2.3,3.9,1.7l56.2-22
		c8.7-2.7,14.4-6.8,16.9-12.4c2.8-6.2,0.5-11.6,0.4-11.9c-4.6-11.3,1.3-18.5,2-19.3c4.4-4.1,8.8-6,13.2-5.5
		c7.9,0.9,13.5,8.9,13.9,9.6c2.6,4.3,3.2,8.5,2.1,12.7c-2.7,9.5-13.8,15.9-15,16.6l-34.1,14.3l-44.8,18.3c-1.5,0.6-2.3,2.4-1.6,3.9
		c0.6,1.5,2.4,2.3,3.9,1.6l44.9-18.3l34.4-14.4c0.1,0,0.2-0.1,0.2-0.1C238.9,197.1,239.7,196.7,240.9,195.9z"/>
</g>
<g>
	<circle style="fill:#EDC92F;" cx="149.5" cy="226" r="8.3"/>
	<circle style="fill:#EDC92F;" cx="167.3" cy="264.5" r="8.3"/>
</g>
<path style="fill:#F4D553;" d="M220.6,221c-3.1-4.8-1.6-11.2,3.2-14.3s11.2-1.6,14.3,3.2s1.6,11.2-3.2,14.3
	C230.1,227.2,223.7,225.8,220.6,221z M224,218.9c1.9,2.9,5.8,3.8,8.7,1.9c2.9-1.9,3.8-5.8,1.9-8.7c-1.9-2.9-5.8-3.8-8.7-1.9
	C223,212,222.1,215.9,224,218.9z"/>
<g>
	<path style="fill:#EDC92F;" d="M116.9,196.1c-4.2-10.9-0.2-58.7,2-76.2l-3.5-0.6c-0.9,6.6-9.6,64.7-4.2,79L116.9,196.1z"/>
	<path style="fill:#EDC92F;" d="M124.5,118c0,0-8.3-4.2-14.4-1.4c0,0,4.1,10.7,2.9,21.3c0,0,3.7,4.8,4.1,0.6
		C118.2,128.1,124.5,118,124.5,118z"/>
</g>
<path style="fill:#F4D553;" d="M219.4,229.3c2.4-1.5,4.9-4.4,2.3-10.8c-2.4-5.9-8.1-6.6-11.4-5.5c-0.1,0-0.2,0.1-0.3,0.1l-55.1,23
	c-1.5,0.6-2.3,2.4-1.6,3.9c0.6,1.5,2.4,2.2,3.9,1.6l54.9-23c1.1-0.3,2.9-0.3,3.9,2.1c1.2,3,1.1,3.1-1.1,4.2l-53.8,21.8
	c-1.5,0.6-2.3,2.4-1.7,3.9s2.4,2.3,3.9,1.7l53.9-21.9c0.1,0,0.1-0.1,0.2-0.1C218,230,218.7,229.7,219.4,229.3z"/>
<g>
	<path style="fill:#EDC92F;" d="M145.3,282.4c1.2-0.7,1.7-2.2,1.2-3.5l-25.4-71.2c-0.6-1.6-2.3-2.4-3.8-1.8
		c-1.6,0.6-2.4,2.3-1.8,3.8l25.5,71.2c0.6,1.6,2.3,2.4,3.8,1.8C145,282.6,145.2,282.5,145.3,282.4z"/>
	<path style="fill:#EDC92F;" d="M127.3,234c0.4-0.2,0.6-0.7,0.4-1.1c-0.2-0.5-0.7-0.8-1.3-0.6l-18.7,6c-0.5,0.2-0.8,0.7-0.6,1.3
		c0.2,0.5,0.7,0.8,1.3,0.6l18.7-6C127.1,234.1,127.2,234.1,127.3,234z"/>
	<path style="fill:#EDC92F;" d="M131.1,245.2c0.4-0.2,0.6-0.7,0.4-1.1c-0.2-0.5-0.7-0.8-1.3-0.6l-18.7,6c-0.5,0.2-0.8,0.7-0.6,1.3
		c0.2,0.5,0.7,0.8,1.3,0.6l18.7-6C131,245.3,131.1,245.3,131.1,245.2z"/>
	<path style="fill:#EDC92F;" d="M134.3,257.1c0.4-0.2,0.6-0.7,0.4-1.1c-0.2-0.5-0.7-0.8-1.3-0.6l-18.7,6c-0.5,0.2-0.8,0.7-0.6,1.3
		c0.2,0.5,0.7,0.8,1.3,0.6l18.7-6C134.1,257.2,134.2,257.2,134.3,257.1z"/>
	<path style="fill:#EDC92F;" d="M139.7,268.5c0.4-0.2,0.6-0.7,0.4-1.1c-0.2-0.5-0.7-0.8-1.3-0.6l-18.7,6c-0.5,0.2-0.8,0.7-0.6,1.3
		c0.2,0.5,0.7,0.8,1.3,0.6l18.7-6C139.6,268.6,139.7,268.5,139.7,268.5z"/>
	<circle style="fill:#EDC92F;" cx="158.1" cy="245" r="8.3"/>
	<path style="fill:#EDC92F;" d="M269.4,279.2c0,0.3,0,0.6,0,0.9c-0.2,0.4-0.7,1.5-0.8,1.8c-1.2,2.1-1.2,2.1-2.8,4
		c-3.2,3.9-6.8,7.5-10.7,10.9c-3.5,3.1-7.3,5.9-11.2,8.4c-1.7,1.1-3.5,2.2-5.4,3.1c1.9-0.9-4.5,0.8-1.1,0.4
		c-2.6,0.3-4.5,1.5-5.8,3.1c-1-1.4-2.1-2.8-3.3-4.2c0.9-0.4,1.8-0.8,2.6-1.2c0.1-0.1,0.2-0.1,0.3-0.2c20.8-13.2,33.6-34.3,37.2-56.9
		c2.7,0.1,5.4,0.1,8.1,0c-1.8,12.4-6.1,24.4-12.8,35.1C265.5,282.9,267.4,281.1,269.4,279.2z"/>
</g>
<path style="fill:#F2D65F;" d="M313.3,290.5c-15.5,8.9-31.5,16.9-47.9,23.9c-8.2,3.5-16.4,6.9-24.7,10c-4.1,1.6-8.4,3.2-12.8,4.5
	c-4.4,1.3-8.8,2.3-13.4,3.1c-9,1.5-18.3,1.8-27.5,0.7c-9.1-1.2-18-3.8-26.3-7.7c-8.2-3.9-15.8-9.1-22.6-15.1s-12.8-12.8-17.8-20.2
	c-5-7.5-9.1-15.5-12.3-23.8c-3.1-8.4-5.2-17.2-5.9-26.1c-0.7-8.9,0.1-17.9,2.4-26.5c1.1-4.3,2.6-8.5,4.4-12.5s4-7.9,6.6-11.5
	c-2.5,3.6-4.5,7.6-6.1,11.7c-1.7,4.1-2.9,8.3-3.9,12.6c-1.9,8.6-2.3,17.4-1.3,26.1c1.9,17.4,9.4,33.7,19.4,47.8
	c10.3,13.9,23.9,25.4,39.6,32.1c7.8,3.4,16.1,5.5,24.5,6.2c8.4,0.8,16.9,0.1,25.2-1.6c4.1-0.9,8.2-2,12.3-3.3c4-1.3,7.9-3,12-4.7
	c8.1-3.4,16.1-7.7,24.3-12.4c15-9.7,27-19.4,40.6-31.2c10.3-8.9,40.5-38.1,63.3-66.6c5.6,6.8,11.5,14.9,17.7,24.5l0,0l0.1,0.1
	l0.1,0.1l0,0c5.6,8.7,10.1,16.8,13.7,24.3c-11.6,3.6-24.1,7.9-35.2,12.3C345.3,274,328.8,281.6,313.3,290.5z"/>
</svg>
