<svg xmlns="http://www.w3.org/2000/svg" viewBox="0 0 128 128" width="128" height="128">
  <defs>
    <linearGradient id="wood" x1="0" y1="0" x2="0" y2="1">
      <stop offset="0" stop-color="#d8a15a"/>
      <stop offset="1" stop-color="#bb7d3f"/>
    </linearGradient>
  </defs>
  <path d="M34 112 C34 70,38 34,46 16" fill="none" stroke="#6d4520" stroke-width="8" stroke-linecap="round"/>
  <path d="M46 16 C60 6,82 7,94 20" fill="none" stroke="#6d4520" stroke-width="7" stroke-linecap="round"/>
  <path d="M94 20 C93 45,87 74,76 94 C64 115,49 121,36 116" fill="url(#wood)" stroke="#6d4520" stroke-width="2.2"/>
  <g stroke="#f6e8c2" stroke-linecap="round" opacity="0.95">
    <line x1="52" y1="13" x2="39" y2="112" stroke-width="0.9"/>
    <line x1="59" y1="11" x2="45" y2="110" stroke-width="0.9"/>
    <line x1="66" y1="10" x2="51" y2="105" stroke-width="1"/>
    <line x1="73" y1="10" x2="58" y2="96" stroke-width="1"/>
    <line x1="80" y1="12" x2="66" y2="84" stroke-width="1.1"/>
    <line x1="87" y1="15" x2="74" y2="66" stroke-width="1.2"/>
  </g>
  <rect x="20" y="112" width="21" height="8" rx="2" fill="#4b3014"/>
</svg>
