<svg xmlns="http://www.w3.org/2000/svg" viewBox="0 0 128 128" width="128" height="128">
  <!-- Harpe - refaite depuis zéro -->
  <path d="M30 116 C30 72,34 36,42 14" fill="none" stroke="#5c3b16" stroke-width="8" stroke-linecap="round"/>
  <path d="M42 14 C58 2,84 2,98 16" fill="none" stroke="#5c3b16" stroke-width="7" stroke-linecap="round"/>
  <path d="M98 16 C98 44,90 74,78 96 C66 116,50 122,34 118" fill="#d0914f" stroke="#70461b" stroke-width="2"/>
  <path d="M96 18 C96 42,89 70,78 90 C66 109,52 115,40 116" fill="none" stroke="#8e5a2c" stroke-width="2"/>

  <g stroke="#ecd7a4" stroke-linecap="round" opacity="0.9">
    <line x1="50" y1="10" x2="37" y2="114" stroke-width="0.8"/>
    <line x1="57" y1="8" x2="42" y2="112" stroke-width="0.8"/>
    <line x1="64" y1="7" x2="48" y2="108" stroke-width="0.9"/>
    <line x1="71" y1="7" x2="54" y2="100" stroke-width="1"/>
    <line x1="78" y1="8" x2="60" y2="90" stroke-width="1"/>
    <line x1="85" y1="10" x2="67" y2="76" stroke-width="1.1"/>
    <line x1="92" y1="14" x2="75" y2="58" stroke-width="1.2"/>
  </g>

  <g fill="#d9b35d" stroke="#7a5a23" stroke-width="0.6">
    <circle cx="50" cy="10" r="1.5"/><circle cx="57" cy="8" r="1.5"/><circle cx="64" cy="7" r="1.5"/>
    <circle cx="71" cy="7" r="1.5"/><circle cx="78" cy="8" r="1.5"/><circle cx="85" cy="10" r="1.5"/><circle cx="92" cy="14" r="1.5"/>
  </g>

  <rect x="20" y="114" width="20" height="8" rx="2" fill="#4a3215"/>
</svg>
