<svg xmlns="http://www.w3.org/2000/svg" viewBox="0 0 128 128" width="128" height="128">
  <!-- Flute de Pan - GM 75 -->
  <g transform="rotate(30, 64, 64)">

    <!-- Tubes (du plus long au plus court, relies par une barre) -->
    <rect x="16" y="24" width="10" height="86" rx="4" fill="#D4934A" stroke="#8B6914" stroke-width="1"/>
    <rect x="28" y="24" width="10" height="78" rx="4" fill="#C17D2F" stroke="#8B6914" stroke-width="1"/>
    <rect x="40" y="24" width="10" height="70" rx="4" fill="#D4934A" stroke="#8B6914" stroke-width="1"/>
    <rect x="52" y="24" width="10" height="62" rx="4" fill="#C17D2F" stroke="#8B6914" stroke-width="1"/>
    <rect x="64" y="24" width="10" height="54" rx="4" fill="#D4934A" stroke="#8B6914" stroke-width="1"/>
    <rect x="76" y="24" width="10" height="46" rx="4" fill="#C17D2F" stroke="#8B6914" stroke-width="1"/>
    <rect x="88" y="24" width="10" height="38" rx="4" fill="#D4934A" stroke="#8B6914" stroke-width="1"/>
    <rect x="100" y="24" width="10" height="30" rx="4" fill="#C17D2F" stroke="#8B6914" stroke-width="1"/>

    <!-- Ouvertures (haut des tubes, trous sombres) -->
    <ellipse cx="21" cy="26" rx="4" ry="2" fill="#5C4A0E"/>
    <ellipse cx="33" cy="26" rx="4" ry="2" fill="#5C4A0E"/>
    <ellipse cx="45" cy="26" rx="4" ry="2" fill="#5C4A0E"/>
    <ellipse cx="57" cy="26" rx="4" ry="2" fill="#5C4A0E"/>
    <ellipse cx="69" cy="26" rx="4" ry="2" fill="#5C4A0E"/>
    <ellipse cx="81" cy="26" rx="4" ry="2" fill="#5C4A0E"/>
    <ellipse cx="93" cy="26" rx="4" ry="2" fill="#5C4A0E"/>
    <ellipse cx="105" cy="26" rx="4" ry="2" fill="#5C4A0E"/>

    <!-- Barres de liaison (ficelle/bambou) -->
    <rect x="14" y="34" width="98" height="3" rx="1" fill="#8B6914" stroke="#5C4A0E" stroke-width="0.8"/>
    <rect x="14" y="48" width="98" height="3" rx="1" fill="#8B6914" stroke="#5C4A0E" stroke-width="0.8"/>

  </g>
</svg>
