<?xml version="1.0" encoding="iso-8859-1"?>
<!-- Uploaded to: SVG Repo, www.svgrepo.com, Generator: SVG Repo Mixer Tools -->
<svg height="800px" width="800px" version="1.1" id="Capa_1" xmlns="http://www.w3.org/2000/svg" xmlns:xlink="http://www.w3.org/1999/xlink" 
	 viewBox="0 0 43.623 43.623" xml:space="preserve">
<g>
	<path style="fill:#030104;" d="M35.632,11.704c-0.071-0.116-0.125-0.255-0.229-0.356l-0.282-0.33l-0.328-0.283
		c-0.101-0.104-0.234-0.159-0.349-0.23c-0.121-0.061-0.228-0.149-0.349-0.176c-0.118-0.039-0.229-0.077-0.331-0.111
		c-0.204-0.077-0.403-0.064-0.528-0.09c-0.13-0.016-0.204-0.025-0.204-0.025l0.004-0.038c-1.9,2.377-4.69,5.498-8.646,9.172
		c0.073-0.019,0.153-0.03,0.248-0.024c0.177-0.004,0.377-0.003,0.589,0.026c0.227,0.012,0.408,0.086,0.616,0.165
		c0.197,0.089,0.437,0.137,0.608,0.296c0.184,0.141,0.372,0.285,0.559,0.428c0.143,0.188,0.286,0.375,0.427,0.56
		c0.156,0.173,0.207,0.411,0.295,0.608c0.078,0.204,0.155,0.399,0.16,0.604c0.012,0.09,0.006,0.168,0.009,0.254
		c3.063-3.573,5.775-7.009,7.964-9.904c-0.019-0.063-0.037-0.122-0.057-0.183C35.78,11.943,35.693,11.825,35.632,11.704z
		 M29.312,17.189c-0.294,0.306-0.698,0.394-0.902,0.198c-0.205-0.197-0.132-0.604,0.161-0.91c0.294-0.306,0.698-0.394,0.902-0.198
		C29.678,16.476,29.605,16.883,29.312,17.189z M32.617,13.216c-0.294,0.306-0.698,0.394-0.902,0.198
		c-0.205-0.197-0.133-0.605,0.161-0.91c0.294-0.306,0.698-0.394,0.902-0.198C32.983,12.503,32.91,12.91,32.617,13.216z
		 M41.595,4.275c-0.23,0.351-2.128,3.172-5.145,7.2c-0.017-0.067-0.018-0.134-0.045-0.201c-0.068-0.163-0.103-0.362-0.23-0.504
		l-0.346-0.461l-0.46-0.346c-0.14-0.129-0.34-0.162-0.503-0.231c-0.172-0.061-0.322-0.111-0.512-0.115
		c-0.177-0.019-0.345-0.009-0.49,0.006c-0.291,0.018-0.447,0.165-0.599,0.232c-0.053,0.032-0.09,0.057-0.125,0.081
		c2.427-3.054,3.372-4.85,3.436-4.948c0.908-1.385,3.767-5.773,5.153-4.866C43.115,1.03,42.503,2.889,41.595,4.275z M27.187,22.139
		c-0.035-0.16-0.147-0.283-0.226-0.44c-0.091-0.151-0.161-0.315-0.294-0.447l-0.363-0.422l-0.426-0.361
		c-0.132-0.134-0.304-0.202-0.454-0.294c-0.157-0.079-0.295-0.191-0.453-0.225c-0.153-0.05-0.297-0.098-0.431-0.142
		c-0.25-0.092-0.485-0.082-0.648-0.109c-2.922,2.681-6.459,5.643-10.713,8.817c0.075-0.019,0.151-0.038,0.246-0.035
		c0.23-0.018,0.495-0.028,0.774,0.005c0.3,0.009,0.537,0.093,0.81,0.193c0.258,0.111,0.574,0.167,0.797,0.373
		c0.241,0.182,0.486,0.367,0.73,0.552c0.185,0.245,0.37,0.49,0.551,0.731c0.202,0.226,0.261,0.539,0.371,0.797
		c0.098,0.267,0.186,0.524,0.186,0.792c0.026,0.259,0.013,0.508-0.003,0.728c0.005,0.171-0.043,0.331-0.096,0.479
		c3.49-3.308,6.821-6.888,9.835-10.371c-0.013-0.069-0.019-0.133-0.05-0.216C27.286,22.409,27.238,22.294,27.187,22.139z
		 M18.766,27.528c-0.351,0.304-0.8,0.36-1.003,0.125c-0.203-0.234-0.084-0.671,0.267-0.975c0.351-0.304,0.8-0.36,1.003-0.125
		C19.236,26.788,19.117,27.225,18.766,27.528z M22.766,23.528c-0.351,0.304-0.8,0.36-1.003,0.125
		c-0.203-0.234-0.084-0.671,0.267-0.975c0.351-0.304,0.8-0.36,1.003-0.125C23.236,22.788,23.117,23.225,22.766,23.528z
		 M16.572,32.353c-0.043-0.2-0.183-0.382-0.28-0.578c-0.113-0.188-0.199-0.408-0.366-0.573c-0.149-0.176-0.3-0.357-0.451-0.536
		c-0.179-0.151-0.358-0.304-0.534-0.452c-0.164-0.167-0.38-0.253-0.568-0.366c-0.196-0.097-0.369-0.238-0.566-0.28
		c-0.19-0.062-0.37-0.121-0.535-0.175c-0.329-0.119-0.649-0.111-0.852-0.155c-0.023-0.003-0.032-0.004-0.052-0.007
		c-0.051-0.007-0.094-0.013-0.131-0.018c-2.999,2.204-6.33,4.501-10.051,6.874c-0.607,0.119-0.985,0.977-1.057,2.148
		c-0.15,1.179,0.042,2.415,0.485,3.231c0.021,0.037,0.054-0.035,0.076,0.002c0.518,1.315,1.293,2.831,1.981,1.831
		c0.002,0,0.004,0,0.005,0c0.151,0,0.282,0.079,0.404-0.035c4.274-2.384,8.609-5.704,12.742-9.55
		c0.022-0.021,0.044,0.009,0.066-0.012c-0.029-0.211-0.036-0.497-0.14-0.787C16.693,32.747,16.634,32.545,16.572,32.353z
		 M3.452,42.549c-0.641,0.125-1.394-0.963-1.681-2.432c-0.287-1.469-0.001-2.761,0.64-2.886s1.394,0.963,1.681,2.432
		C4.379,41.132,4.093,42.423,3.452,42.549z M4.159,43.379c0.058-0.066,0.113-0.137,0.163-0.221
		C4.368,43.195,4.292,43.279,4.159,43.379z"/>
</g>
</svg>
