<svg xmlns="http://www.w3.org/2000/svg" viewBox="0 0 128 128" width="128" height="128">
  <defs><linearGradient id="g" x1="0" y1="0" x2="1" y2="1"><stop offset="0" stop-color="#e1c76f"/><stop offset="1" stop-color="#c99a35"/></linearGradient></defs>
  <rect x="10" y="58" width="72" height="6" rx="3" fill="url(#g)" stroke="#86690f" stroke-width="1.4"/>
  <rect x="6" y="59" width="4" height="4" rx="1" fill="url(#g)" stroke="#86690f"/>
  <ellipse cx="5" cy="61" rx="2.3" ry="1.4" fill="url(#g)" stroke="#86690f"/>
  <rect x="84" y="42" width="5" height="38" rx="2" fill="url(#g)" stroke="#86690f"/>
  <rect x="98" y="42" width="5" height="38" rx="2" fill="url(#g)" stroke="#86690f"/>
  <rect x="84" y="42" width="19" height="4" rx="2" fill="url(#g)" stroke="#86690f"/>
  <rect x="84" y="76" width="19" height="4" rx="2" fill="url(#g)" stroke="#86690f"/>
  <path d="M70 61 C70 46,76 36,88 32 H104" fill="none" stroke="url(#g)" stroke-width="6" stroke-linecap="round"/>
  <path d="M104 32 C114 40,121 50,123 61 C121 72,114 82,104 90 C109 81,111 71,111 61 C111 51,109 41,104 32 Z" fill="url(#g)" stroke="#86690f" stroke-width="1.5"/>
</svg>
