<svg xmlns="http://www.w3.org/2000/svg" viewBox="0 0 128 128" width="128" height="128">
  <!-- Trombone - refait depuis zéro -->
  <rect x="10" y="58" width="72" height="6" rx="3" fill="#d6b247" stroke="#896b0f" stroke-width="1.3"/>
  <rect x="6" y="59" width="4" height="4" rx="1" fill="#d6b247" stroke="#896b0f"/>
  <ellipse cx="5" cy="61" rx="2.6" ry="1.6" fill="#d6b247" stroke="#896b0f"/>

  <rect x="82" y="42" width="5" height="38" rx="2" fill="#d6b247" stroke="#896b0f"/>
  <rect x="96" y="42" width="5" height="38" rx="2" fill="#d6b247" stroke="#896b0f"/>
  <rect x="82" y="42" width="19" height="4" rx="2" fill="#d6b247" stroke="#896b0f"/>
  <rect x="82" y="76" width="19" height="4" rx="2" fill="#d6b247" stroke="#896b0f"/>

  <path d="M82 61 H70" stroke="#d6b247" stroke-width="6" stroke-linecap="round"/>
  <path d="M70 61 C70 46,76 36,88 32" stroke="#d6b247" stroke-width="6" fill="none" stroke-linecap="round"/>
  <path d="M88 32 H102" stroke="#d6b247" stroke-width="6" stroke-linecap="round"/>

  <path d="M102 32 C113 40,120 50,122 61 C120 72,113 82,102 90 C108 80,110 70,110 61 C110 52,108 42,102 32 Z" fill="#d6b247" stroke="#896b0f" stroke-width="1.5"/>
</svg>
