<svg xmlns="http://www.w3.org/2000/svg" viewBox="0 0 128 128" width="128" height="128">
  <!-- GM Trombone -->
  <rect x="10" y="58" width="72" height="6" rx="3" fill="#d5b247" stroke="#876a12" stroke-width="1.4"/>
  <rect x="6" y="59" width="4" height="4" rx="1" fill="#d5b247" stroke="#876a12"/>
  <ellipse cx="5" cy="61" rx="2.5" ry="1.6" fill="#d5b247" stroke="#876a12"/>
  <rect x="84" y="42" width="5" height="38" rx="2" fill="#d5b247" stroke="#876a12"/>
  <rect x="98" y="42" width="5" height="38" rx="2" fill="#d5b247" stroke="#876a12"/>
  <rect x="84" y="42" width="19" height="4" rx="2" fill="#d5b247" stroke="#876a12"/>
  <rect x="84" y="76" width="19" height="4" rx="2" fill="#d5b247" stroke="#876a12"/>
  <path d="M70 61 C70 46 76 36 88 32 H103" fill="none" stroke="#d5b247" stroke-width="6" stroke-linecap="round"/>
  <path d="M103 32 C114 40 121 50 123 61 C121 72 114 82 103 90 C109 81 111 70 111 61 C111 52 109 41 103 32 Z" fill="#d5b247" stroke="#876a12" stroke-width="1.5"/>
</svg>
