<svg xmlns="http://www.w3.org/2000/svg" viewBox="0 0 128 128" width="128" height="128">
  <!-- GM Tuba -->
  <g fill="none" stroke="#c9a236" stroke-width="9" stroke-linecap="round" stroke-linejoin="round">
    <path d="M38 92 V34 H76 V70 H54 V46 H90"/>
  </g>
  <rect x="31" y="24" width="5" height="10" rx="1" fill="#d8bb69" stroke="#866912"/>
  <ellipse cx="33.5" cy="22" rx="4.5" ry="2.2" fill="#d8bb69" stroke="#866912"/>
  <rect x="58" y="49" width="6" height="11" rx="1" fill="#ecd177" stroke="#866912"/>
  <rect x="67" y="49" width="6" height="11" rx="1" fill="#ecd177" stroke="#866912"/>
  <rect x="76" y="49" width="6" height="11" rx="1" fill="#ecd177" stroke="#866912"/>
  <path d="M90 46 C106 56 114 72 114 88 C114 102 104 112 90 112 C76 112 66 102 66 88 C66 72 76 56 90 46 Z" fill="#d8b44d" stroke="#866912" stroke-width="2"/>
</svg>
