<svg xmlns="http://www.w3.org/2000/svg" viewBox="0 0 128 128" width="128" height="128">
  <defs>
    <linearGradient id="brass" x1="0" y1="0" x2="1" y2="1">
      <stop offset="0" stop-color="#e0c566"/>
      <stop offset="1" stop-color="#c5962e"/>
    </linearGradient>
  </defs>
  <g fill="none" stroke="url(#brass)" stroke-width="9" stroke-linecap="round" stroke-linejoin="round">
    <path d="M40 92 V36 H78 V72 H56 V48 H90"/>
  </g>
  <rect x="33" y="26" width="5" height="10" rx="1" fill="#e7d08a" stroke="#876810"/>
  <ellipse cx="35.5" cy="24" rx="4.2" ry="2.1" fill="#e7d08a" stroke="#876810"/>
  <rect x="59" y="50" width="6" height="11" rx="1" fill="#efd981" stroke="#876810"/>
  <rect x="68" y="50" width="6" height="11" rx="1" fill="#efd981" stroke="#876810"/>
  <rect x="77" y="50" width="6" height="11" rx="1" fill="#efd981" stroke="#876810"/>
  <path d="M90 46 C106 57,114 72,114 88 C114 102,104 112,90 112 C76 112,66 102,66 88 C66 72,76 57,90 46 Z" fill="url(#brass)" stroke="#876810" stroke-width="2"/>
</svg>
