<svg xmlns="http://www.w3.org/2000/svg" viewBox="0 0 128 128" width="128" height="128">
  <!-- Hand Clap - Note 39 -->

    <!-- Main gauche -->
    <path d="
      M 28 72 L 24 48 C 22 40, 26 36, 30 38 L 34 48
      L 32 32 C 30 24, 34 20, 38 22 L 42 44
      L 40 26 C 38 18, 44 14, 48 18 L 50 46
      L 50 30 C 50 22, 56 20, 58 26 L 56 54
      L 56 42 C 58 36, 62 36, 62 42 L 60 64
      C 56 72, 44 78, 28 72 Z
    " fill="#D4934A" stroke="#B87A3D" stroke-width="1.5"/>

    <!-- Main droite -->
    <path d="
      M 100 72 L 104 48 C 106 40, 102 36, 98 38 L 94 48
      L 96 32 C 98 24, 94 20, 90 22 L 86 44
      L 88 26 C 90 18, 84 14, 80 18 L 78 46
      L 78 30 C 78 22, 72 20, 70 26 L 72 54
      L 72 42 C 70 36, 66 36, 66 42 L 68 64
      C 72 72, 84 78, 100 72 Z
    " fill="#D4934A" stroke="#B87A3D" stroke-width="1.5"/>

    <!-- Lignes d'impact -->
    <line x1="56" y1="50" x2="72" y2="50" stroke="#E87D1E" stroke-width="2" opacity="0.6"/>
    <line x1="50" y1="56" x2="78" y2="56" stroke="#E87D1E" stroke-width="2" opacity="0.4"/>
    <line x1="54" y1="62" x2="74" y2="62" stroke="#E87D1E" stroke-width="2" opacity="0.6"/>

</svg>
